solid 3Dsprt-box
facet normal 0.0 -1.0 0.0
  outer loop
    vertex -751.3953177128615 518.7556415081184 27.000000000000092
    vertex -752.8953177128616 518.7556415081184 -2.4999999999998783
    vertex -751.3953177128615 518.7556415081184 -2.4999999999998783
  endloop
endfacet
facet normal 0.0 -1.0 0.0
  outer loop
    vertex -752.8953177128616 518.7556415081184 -2.4999999999998783
    vertex -751.3953177128615 518.7556415081184 27.000000000000092
    vertex -752.8953177128616 518.7556415081184 27.000000000000092
  endloop
endfacet
facet normal 0.0 0.0 -1.0
  outer loop
    vertex -727.8953177128616 539.2556415081184 1.2161105455987808e-13
    vertex -751.3953177128615 537.7556415081184 1.2161105455987808e-13
    vertex -751.3953177128615 539.2556415081184 1.2161105455987808e-13
  endloop
endfacet
facet normal 0.0 0.0 -1.0
  outer loop
    vertex -751.3953177128615 537.7556415081184 1.2161105455987808e-13
    vertex -727.8953177128616 539.2556415081184 1.2161105455987808e-13
    vertex -748.3953177128616 537.7556415081184 1.2161105455987808e-13
  endloop
endfacet
facet normal 0.0 0.0 -1.0
  outer loop
    vertex -748.3953177128616 537.7556415081184 1.2161105455987808e-13
    vertex -727.8953177128616 539.2556415081184 1.2161105455987808e-13
    vertex -748.3953177128616 518.7556415081184 1.2161105455987808e-13
  endloop
endfacet
facet normal 0.0 0.0 -1.0
  outer loop
    vertex -748.3953177128616 518.7556415081184 1.2161105455987808e-13
    vertex -727.8953177128616 539.2556415081184 1.2161105455987808e-13
    vertex -727.8953177128616 518.7556415081184 1.2161105455987808e-13
  endloop
endfacet
facet normal 1.0 0.0 0.0
  outer loop
    vertex -746.8953177128616 537.7556415081184 2.5000000000001217
    vertex -746.8953177128616 518.7556415081184 27.000000000000092
    vertex -746.8953177128616 518.7556415081184 2.5000000000001217
  endloop
endfacet
facet normal 1.0 0.0 0.0
  outer loop
    vertex -746.8953177128616 518.7556415081184 27.000000000000092
    vertex -746.8953177128616 537.7556415081184 2.5000000000001217
    vertex -746.8953177128616 537.7556415081184 27.000000000000092
  endloop
endfacet
facet normal 0.0 1.0 0.0
  outer loop
    vertex -751.3953177128615 539.2556415081184 27.000000000000092
    vertex -727.8953177128616 539.2556415081184 1.2161105455987808e-13
    vertex -751.3953177128615 539.2556415081184 1.2161105455987808e-13
  endloop
endfacet
facet normal 0.0 1.0 0.0
  outer loop
    vertex -727.8953177128616 539.2556415081184 1.2161105455987808e-13
    vertex -751.3953177128615 539.2556415081184 27.000000000000092
    vertex -727.8953177128616 539.2556415081184 27.000000000000092
  endloop
endfacet
facet normal 1.0 0.0 0.0
  outer loop
    vertex -751.3953177128615 518.7556415081184 -2.4999999999998783
    vertex -751.3953177128615 537.7556415081184 1.2161105455987808e-13
    vertex -751.3953177128615 518.7556415081184 27.000000000000092
  endloop
endfacet
facet normal 1.0 0.0 0.0
  outer loop
    vertex -751.3953177128615 537.7556415081184 1.2161105455987808e-13
    vertex -751.3953177128615 518.7556415081184 -2.4999999999998783
    vertex -751.3953177128615 542.2556415081184 -2.4999999999998783
  endloop
endfacet
facet normal 1.0 0.0 0.0
  outer loop
    vertex -751.3953177128615 537.7556415081184 1.2161105455987808e-13
    vertex -751.3953177128615 542.2556415081184 -2.4999999999998783
    vertex -751.3953177128615 539.2556415081184 1.2161105455987808e-13
  endloop
endfacet
facet normal 1.0 0.0 0.0
  outer loop
    vertex -751.3953177128615 539.2556415081184 1.2161105455987808e-13
    vertex -751.3953177128615 542.2556415081184 -2.4999999999998783
    vertex -751.3953177128615 539.2556415081184 27.000000000000092
  endloop
endfacet
facet normal 1.0 0.0 0.0
  outer loop
    vertex -751.3953177128615 539.2556415081184 27.000000000000092
    vertex -751.3953177128615 542.2556415081184 -2.4999999999998783
    vertex -751.3953177128615 542.2556415081184 27.000000000000092
  endloop
endfacet
facet normal 1.0 0.0 0.0
  outer loop
    vertex -751.3953177128615 537.7556415081184 27.000000000000092
    vertex -751.3953177128615 518.7556415081184 27.000000000000092
    vertex -751.3953177128615 537.7556415081184 1.2161105455987808e-13
  endloop
endfacet
facet normal 0.0 -1.0 0.0
  outer loop
    vertex -727.8953177128616 518.7556415081184 2.5000000000001217
    vertex -748.3953177128616 518.7556415081184 1.2161105455987808e-13
    vertex -727.8953177128616 518.7556415081184 1.2161105455987808e-13
  endloop
endfacet
facet normal 0.0 -1.0 0.0
  outer loop
    vertex -748.3953177128616 518.7556415081184 1.2161105455987808e-13
    vertex -727.8953177128616 518.7556415081184 2.5000000000001217
    vertex -746.8953177128616 518.7556415081184 2.5000000000001217
  endloop
endfacet
facet normal 0.0 -1.0 0.0
  outer loop
    vertex -748.3953177128616 518.7556415081184 1.2161105455987808e-13
    vertex -746.8953177128616 518.7556415081184 2.5000000000001217
    vertex -748.3953177128616 518.7556415081184 27.000000000000092
  endloop
endfacet
facet normal 0.0 -1.0 0.0
  outer loop
    vertex -748.3953177128616 518.7556415081184 27.000000000000092
    vertex -746.8953177128616 518.7556415081184 2.5000000000001217
    vertex -746.8953177128616 518.7556415081184 27.000000000000092
  endloop
endfacet
facet normal 0.0 0.0 1.0
  outer loop
    vertex -746.8953177128616 518.7556415081184 27.000000000000092
    vertex -748.3953177128616 537.7556415081184 27.000000000000092
    vertex -748.3953177128616 518.7556415081184 27.000000000000092
  endloop
endfacet
facet normal 0.0 0.0 1.0
  outer loop
    vertex -748.3953177128616 537.7556415081184 27.000000000000092
    vertex -751.3953177128615 539.2556415081184 27.000000000000092
    vertex -751.3953177128615 537.7556415081184 27.000000000000092
  endloop
endfacet
facet normal 0.0 0.0 1.0
  outer loop
    vertex -751.3953177128615 539.2556415081184 27.000000000000092
    vertex -748.3953177128616 537.7556415081184 27.000000000000092
    vertex -727.8953177128616 539.2556415081184 27.000000000000092
  endloop
endfacet
facet normal 0.0 0.0 1.0
  outer loop
    vertex -727.8953177128616 539.2556415081184 27.000000000000092
    vertex -748.3953177128616 537.7556415081184 27.000000000000092
    vertex -746.8953177128616 537.7556415081184 27.000000000000092
  endloop
endfacet
facet normal 0.0 0.0 1.0
  outer loop
    vertex -746.8953177128616 537.7556415081184 27.000000000000092
    vertex -748.3953177128616 537.7556415081184 27.000000000000092
    vertex -746.8953177128616 518.7556415081184 27.000000000000092
  endloop
endfacet
facet normal 0.0 0.0 1.0
  outer loop
    vertex -727.8953177128616 539.2556415081184 27.000000000000092
    vertex -746.8953177128616 537.7556415081184 27.000000000000092
    vertex -727.8953177128616 537.7556415081184 27.000000000000092
  endloop
endfacet
facet normal 0.0 0.0 1.0
  outer loop
    vertex -751.3953177128615 518.7556415081184 27.000000000000092
    vertex -752.8953177128616 543.7556415081184 27.000000000000092
    vertex -752.8953177128616 518.7556415081184 27.000000000000092
  endloop
endfacet
facet normal 0.0 0.0 1.0
  outer loop
    vertex -752.8953177128616 543.7556415081184 27.000000000000092
    vertex -751.3953177128615 518.7556415081184 27.000000000000092
    vertex -751.3953177128615 542.2556415081184 27.000000000000092
  endloop
endfacet
facet normal 0.0 0.0 1.0
  outer loop
    vertex -752.8953177128616 543.7556415081184 27.000000000000092
    vertex -751.3953177128615 542.2556415081184 27.000000000000092
    vertex -727.8953177128616 543.7556415081184 27.000000000000092
  endloop
endfacet
facet normal 0.0 0.0 1.0
  outer loop
    vertex -751.3953177128615 542.2556415081184 27.000000000000092
    vertex -751.3953177128615 518.7556415081184 27.000000000000092
    vertex -751.3953177128615 537.7556415081184 27.000000000000092
  endloop
endfacet
facet normal 0.0 0.0 1.0
  outer loop
    vertex -751.3953177128615 542.2556415081184 27.000000000000092
    vertex -751.3953177128615 537.7556415081184 27.000000000000092
    vertex -751.3953177128615 539.2556415081184 27.000000000000092
  endloop
endfacet
facet normal 0.0 0.0 1.0
  outer loop
    vertex -727.8953177128616 543.7556415081184 27.000000000000092
    vertex -751.3953177128615 542.2556415081184 27.000000000000092
    vertex -727.8953177128616 542.2556415081184 27.000000000000092
  endloop
endfacet
facet normal 0.0 -1.0 0.0
  outer loop
    vertex -727.8953177128616 542.2556415081184 27.000000000000092
    vertex -751.3953177128615 542.2556415081184 -2.4999999999998783
    vertex -727.8953177128616 542.2556415081184 -2.4999999999998783
  endloop
endfacet
facet normal 0.0 -1.0 0.0
  outer loop
    vertex -751.3953177128615 542.2556415081184 -2.4999999999998783
    vertex -727.8953177128616 542.2556415081184 27.000000000000092
    vertex -751.3953177128615 542.2556415081184 27.000000000000092
  endloop
endfacet
facet normal 0.0 -1.0 0.0
  outer loop
    vertex -748.3953177128616 537.7556415081184 27.000000000000092
    vertex -751.3953177128615 537.7556415081184 1.2161105455987808e-13
    vertex -748.3953177128616 537.7556415081184 1.2161105455987808e-13
  endloop
endfacet
facet normal 0.0 -1.0 0.0
  outer loop
    vertex -751.3953177128615 537.7556415081184 1.2161105455987808e-13
    vertex -748.3953177128616 537.7556415081184 27.000000000000092
    vertex -751.3953177128615 537.7556415081184 27.000000000000092
  endloop
endfacet
facet normal 0.0 0.0 1.0
  outer loop
    vertex -727.8953177128616 518.7556415081184 2.5000000000001217
    vertex -746.8953177128616 537.7556415081184 2.5000000000001217
    vertex -746.8953177128616 518.7556415081184 2.5000000000001217
  endloop
endfacet
facet normal 0.0 0.0 1.0
  outer loop
    vertex -746.8953177128616 537.7556415081184 2.5000000000001217
    vertex -727.8953177128616 518.7556415081184 2.5000000000001217
    vertex -727.8953177128616 537.7556415081184 2.5000000000001217
  endloop
endfacet
facet normal -1.0 0.0 0.0
  outer loop
    vertex -748.3953177128616 537.7556415081184 27.000000000000092
    vertex -748.3953177128616 518.7556415081184 1.2161105455987808e-13
    vertex -748.3953177128616 518.7556415081184 27.000000000000092
  endloop
endfacet
facet normal -1.0 0.0 0.0
  outer loop
    vertex -748.3953177128616 518.7556415081184 1.2161105455987808e-13
    vertex -748.3953177128616 537.7556415081184 27.000000000000092
    vertex -748.3953177128616 537.7556415081184 1.2161105455987808e-13
  endloop
endfacet
facet normal 1.0 0.0 0.0
  outer loop
    vertex -727.8953177128616 539.2556415081184 1.2161105455987808e-13
    vertex -727.8953177128616 518.7556415081184 2.5000000000001217
    vertex -727.8953177128616 518.7556415081184 1.2161105455987808e-13
  endloop
endfacet
facet normal 1.0 0.0 0.0
  outer loop
    vertex -727.8953177128616 518.7556415081184 2.5000000000001217
    vertex -727.8953177128616 539.2556415081184 1.2161105455987808e-13
    vertex -727.8953177128616 537.7556415081184 2.5000000000001217
  endloop
endfacet
facet normal 1.0 0.0 0.0
  outer loop
    vertex -727.8953177128616 537.7556415081184 2.5000000000001217
    vertex -727.8953177128616 539.2556415081184 1.2161105455987808e-13
    vertex -727.8953177128616 537.7556415081184 27.000000000000092
  endloop
endfacet
facet normal 1.0 0.0 0.0
  outer loop
    vertex -727.8953177128616 537.7556415081184 27.000000000000092
    vertex -727.8953177128616 539.2556415081184 1.2161105455987808e-13
    vertex -727.8953177128616 539.2556415081184 27.000000000000092
  endloop
endfacet
facet normal 0.0 -1.0 0.0
  outer loop
    vertex -727.8953177128616 537.7556415081184 27.000000000000092
    vertex -746.8953177128616 537.7556415081184 2.5000000000001217
    vertex -727.8953177128616 537.7556415081184 2.5000000000001217
  endloop
endfacet
facet normal 0.0 -1.0 0.0
  outer loop
    vertex -746.8953177128616 537.7556415081184 2.5000000000001217
    vertex -727.8953177128616 537.7556415081184 27.000000000000092
    vertex -746.8953177128616 537.7556415081184 27.000000000000092
  endloop
endfacet
facet normal 1.0 0.0 0.0
  outer loop
    vertex -727.8953177128616 543.7556415081184 -2.4999999999998783
    vertex -727.8953177128616 542.2556415081184 27.000000000000092
    vertex -727.8953177128616 542.2556415081184 -2.4999999999998783
  endloop
endfacet
facet normal 1.0 0.0 0.0
  outer loop
    vertex -727.8953177128616 542.2556415081184 27.000000000000092
    vertex -727.8953177128616 543.7556415081184 -2.4999999999998783
    vertex -727.8953177128616 543.7556415081184 27.000000000000092
  endloop
endfacet
facet normal 0.0 0.0 -1.0
  outer loop
    vertex -751.3953177128615 518.7556415081184 -2.4999999999998783
    vertex -752.8953177128616 518.7556415081184 -2.4999999999998783
    vertex -751.3953177128615 542.2556415081184 -2.4999999999998783
  endloop
endfacet
facet normal 0.0 0.0 -1.0
  outer loop
    vertex -752.8953177128616 543.7556415081184 -2.4999999999998783
    vertex -751.3953177128615 542.2556415081184 -2.4999999999998783
    vertex -752.8953177128616 518.7556415081184 -2.4999999999998783
  endloop
endfacet
facet normal 0.0 0.0 -1.0
  outer loop
    vertex -751.3953177128615 542.2556415081184 -2.4999999999998783
    vertex -752.8953177128616 543.7556415081184 -2.4999999999998783
    vertex -727.8953177128616 543.7556415081184 -2.4999999999998783
  endloop
endfacet
facet normal 0.0 0.0 -1.0
  outer loop
    vertex -751.3953177128615 542.2556415081184 -2.4999999999998783
    vertex -727.8953177128616 543.7556415081184 -2.4999999999998783
    vertex -727.8953177128616 542.2556415081184 -2.4999999999998783
  endloop
endfacet
facet normal -1.0 0.0 0.0
  outer loop
    vertex -752.8953177128616 543.7556415081184 27.000000000000092
    vertex -752.8953177128616 518.7556415081184 -2.4999999999998783
    vertex -752.8953177128616 518.7556415081184 27.000000000000092
  endloop
endfacet
facet normal -1.0 0.0 0.0
  outer loop
    vertex -752.8953177128616 518.7556415081184 -2.4999999999998783
    vertex -752.8953177128616 543.7556415081184 27.000000000000092
    vertex -752.8953177128616 543.7556415081184 -2.4999999999998783
  endloop
endfacet
facet normal 0.0 1.0 0.0
  outer loop
    vertex -752.8953177128616 543.7556415081184 27.000000000000092
    vertex -727.8953177128616 543.7556415081184 -2.4999999999998783
    vertex -752.8953177128616 543.7556415081184 -2.4999999999998783
  endloop
endfacet
facet normal 0.0 1.0 0.0
  outer loop
    vertex -727.8953177128616 543.7556415081184 -2.4999999999998783
    vertex -752.8953177128616 543.7556415081184 27.000000000000092
    vertex -727.8953177128616 543.7556415081184 27.000000000000092
  endloop
endfacet
endsolid 3Dsprt-box
