solid 3Dsprt-box
facet normal 0.0 0.0 1.0
  outer loop
    vertex -269.89531771286164 70.7556415081183 26.999999999999833
    vertex -294.89531771286164 72.2556415081183 26.999999999999833
    vertex -294.89531771286164 70.7556415081183 26.999999999999833
  endloop
endfacet
facet normal 0.0 0.0 1.0
  outer loop
    vertex -294.89531771286164 72.2556415081183 26.999999999999833
    vertex -269.89531771286164 70.7556415081183 26.999999999999833
    vertex -271.3953177128617 72.2556415081183 26.999999999999833
  endloop
endfacet
facet normal 0.0 0.0 1.0
  outer loop
    vertex -271.3953177128617 72.2556415081183 26.999999999999833
    vertex -269.89531771286164 70.7556415081183 26.999999999999833
    vertex -271.3953177128617 75.2556415081183 26.999999999999833
  endloop
endfacet
facet normal 0.0 0.0 1.0
  outer loop
    vertex -271.3953177128617 75.2556415081183 26.999999999999833
    vertex -269.89531771286164 70.7556415081183 26.999999999999833
    vertex -271.3953177128617 76.7556415081183 26.999999999999833
  endloop
endfacet
facet normal 0.0 0.0 1.0
  outer loop
    vertex -271.3953177128617 76.7556415081183 26.999999999999833
    vertex -269.89531771286164 70.7556415081183 26.999999999999833
    vertex -271.3953177128617 95.7556415081183 26.999999999999833
  endloop
endfacet
facet normal 0.0 0.0 1.0
  outer loop
    vertex -271.3953177128617 95.7556415081183 26.999999999999833
    vertex -269.89531771286164 70.7556415081183 26.999999999999833
    vertex -269.89531771286164 95.7556415081183 26.999999999999833
  endloop
endfacet
facet normal 0.0 0.0 1.0
  outer loop
    vertex -271.3953177128617 75.2556415081183 26.999999999999833
    vertex -294.89531771286164 76.7556415081183 26.999999999999833
    vertex -294.89531771286164 75.2556415081183 26.999999999999833
  endloop
endfacet
facet normal 0.0 0.0 1.0
  outer loop
    vertex -294.89531771286164 76.7556415081183 26.999999999999833
    vertex -271.3953177128617 75.2556415081183 26.999999999999833
    vertex -275.89531771286164 76.7556415081183 26.999999999999833
  endloop
endfacet
facet normal 0.0 0.0 1.0
  outer loop
    vertex -275.89531771286164 76.7556415081183 26.999999999999833
    vertex -271.3953177128617 75.2556415081183 26.999999999999833
    vertex -274.3953177128617 76.7556415081183 26.999999999999833
  endloop
endfacet
facet normal 0.0 0.0 1.0
  outer loop
    vertex -275.89531771286164 76.7556415081183 26.999999999999833
    vertex -274.3953177128617 76.7556415081183 26.999999999999833
    vertex -275.89531771286164 95.7556415081183 26.999999999999833
  endloop
endfacet
facet normal 0.0 0.0 1.0
  outer loop
    vertex -274.3953177128617 76.7556415081183 26.999999999999833
    vertex -271.3953177128617 75.2556415081183 26.999999999999833
    vertex -271.3953177128617 76.7556415081183 26.999999999999833
  endloop
endfacet
facet normal 0.0 0.0 1.0
  outer loop
    vertex -274.3953177128617 95.7556415081183 26.999999999999833
    vertex -275.89531771286164 95.7556415081183 26.999999999999833
    vertex -274.3953177128617 76.7556415081183 26.999999999999833
  endloop
endfacet
facet normal 0.0 1.0 0.0
  outer loop
    vertex -294.89531771286164 72.2556415081183 26.999999999999833
    vertex -271.3953177128617 72.2556415081183 -2.5000000000000404
    vertex -294.89531771286164 72.2556415081183 -2.5000000000000404
  endloop
endfacet
facet normal 0.0 1.0 0.0
  outer loop
    vertex -271.3953177128617 72.2556415081183 -2.5000000000000404
    vertex -294.89531771286164 72.2556415081183 26.999999999999833
    vertex -271.3953177128617 72.2556415081183 26.999999999999833
  endloop
endfacet
facet normal -1.0 0.0 0.0
  outer loop
    vertex -294.89531771286164 72.2556415081183 26.999999999999833
    vertex -294.89531771286164 70.7556415081183 -2.5000000000000404
    vertex -294.89531771286164 70.7556415081183 26.999999999999833
  endloop
endfacet
facet normal -1.0 0.0 0.0
  outer loop
    vertex -294.89531771286164 70.7556415081183 -2.5000000000000404
    vertex -294.89531771286164 72.2556415081183 26.999999999999833
    vertex -294.89531771286164 72.2556415081183 -2.5000000000000404
  endloop
endfacet
facet normal 0.0 1.0 0.0
  outer loop
    vertex -274.3953177128617 76.7556415081183 26.999999999999833
    vertex -271.3953177128617 76.7556415081183 -4.053701818662603e-14
    vertex -274.3953177128617 76.7556415081183 -4.053701818662603e-14
  endloop
endfacet
facet normal 0.0 1.0 0.0
  outer loop
    vertex -271.3953177128617 76.7556415081183 -4.053701818662603e-14
    vertex -274.3953177128617 76.7556415081183 26.999999999999833
    vertex -271.3953177128617 76.7556415081183 26.999999999999833
  endloop
endfacet
facet normal -1.0 0.0 0.0
  outer loop
    vertex -275.89531771286164 95.7556415081183 26.999999999999833
    vertex -275.89531771286164 76.7556415081183 2.4999999999999596
    vertex -275.89531771286164 76.7556415081183 26.999999999999833
  endloop
endfacet
facet normal -1.0 0.0 0.0
  outer loop
    vertex -275.89531771286164 76.7556415081183 2.4999999999999596
    vertex -275.89531771286164 95.7556415081183 26.999999999999833
    vertex -275.89531771286164 95.7556415081183 2.4999999999999596
  endloop
endfacet
facet normal 0.0 -1.0 0.0
  outer loop
    vertex -271.3953177128617 75.2556415081183 26.999999999999833
    vertex -294.89531771286164 75.2556415081183 -4.053701818662603e-14
    vertex -271.3953177128617 75.2556415081183 -4.053701818662603e-14
  endloop
endfacet
facet normal 0.0 -1.0 0.0
  outer loop
    vertex -294.89531771286164 75.2556415081183 -4.053701818662603e-14
    vertex -271.3953177128617 75.2556415081183 26.999999999999833
    vertex -294.89531771286164 75.2556415081183 26.999999999999833
  endloop
endfacet
facet normal -1.0 0.0 0.0
  outer loop
    vertex -271.3953177128617 95.7556415081183 26.999999999999833
    vertex -271.3953177128617 76.7556415081183 -4.053701818662603e-14
    vertex -271.3953177128617 76.7556415081183 26.999999999999833
  endloop
endfacet
facet normal -1.0 0.0 0.0
  outer loop
    vertex -271.3953177128617 75.2556415081183 26.999999999999833
    vertex -271.3953177128617 72.2556415081183 -2.5000000000000404
    vertex -271.3953177128617 72.2556415081183 26.999999999999833
  endloop
endfacet
facet normal -1.0 0.0 0.0
  outer loop
    vertex -271.3953177128617 72.2556415081183 -2.5000000000000404
    vertex -271.3953177128617 75.2556415081183 26.999999999999833
    vertex -271.3953177128617 75.2556415081183 -4.053701818662603e-14
  endloop
endfacet
facet normal -1.0 0.0 0.0
  outer loop
    vertex -271.3953177128617 72.2556415081183 -2.5000000000000404
    vertex -271.3953177128617 75.2556415081183 -4.053701818662603e-14
    vertex -271.3953177128617 95.7556415081183 -2.5000000000000404
  endloop
endfacet
facet normal -1.0 0.0 0.0
  outer loop
    vertex -271.3953177128617 95.7556415081183 -2.5000000000000404
    vertex -271.3953177128617 75.2556415081183 -4.053701818662603e-14
    vertex -271.3953177128617 76.7556415081183 -4.053701818662603e-14
  endloop
endfacet
facet normal -1.0 0.0 0.0
  outer loop
    vertex -271.3953177128617 95.7556415081183 -2.5000000000000404
    vertex -271.3953177128617 76.7556415081183 -4.053701818662603e-14
    vertex -271.3953177128617 95.7556415081183 26.999999999999833
  endloop
endfacet
facet normal 0.0 -1.0 0.0
  outer loop
    vertex -269.89531771286164 70.7556415081183 26.999999999999833
    vertex -294.89531771286164 70.7556415081183 -2.5000000000000404
    vertex -269.89531771286164 70.7556415081183 -2.5000000000000404
  endloop
endfacet
facet normal 0.0 -1.0 0.0
  outer loop
    vertex -294.89531771286164 70.7556415081183 -2.5000000000000404
    vertex -269.89531771286164 70.7556415081183 26.999999999999833
    vertex -294.89531771286164 70.7556415081183 26.999999999999833
  endloop
endfacet
facet normal 1.0 0.0 0.0
  outer loop
    vertex -269.89531771286164 95.7556415081183 -2.5000000000000404
    vertex -269.89531771286164 70.7556415081183 26.999999999999833
    vertex -269.89531771286164 70.7556415081183 -2.5000000000000404
  endloop
endfacet
facet normal 1.0 0.0 0.0
  outer loop
    vertex -269.89531771286164 70.7556415081183 26.999999999999833
    vertex -269.89531771286164 95.7556415081183 -2.5000000000000404
    vertex -269.89531771286164 95.7556415081183 26.999999999999833
  endloop
endfacet
facet normal 0.0 1.0 0.0
  outer loop
    vertex -271.3953177128617 95.7556415081183 26.999999999999833
    vertex -269.89531771286164 95.7556415081183 -2.5000000000000404
    vertex -271.3953177128617 95.7556415081183 -2.5000000000000404
  endloop
endfacet
facet normal 0.0 1.0 0.0
  outer loop
    vertex -269.89531771286164 95.7556415081183 -2.5000000000000404
    vertex -271.3953177128617 95.7556415081183 26.999999999999833
    vertex -269.89531771286164 95.7556415081183 26.999999999999833
  endloop
endfacet
facet normal 0.0 0.0 1.0
  outer loop
    vertex -275.89531771286164 76.7556415081183 2.4999999999999596
    vertex -294.89531771286164 95.7556415081183 2.4999999999999596
    vertex -294.89531771286164 76.7556415081183 2.4999999999999596
  endloop
endfacet
facet normal 0.0 0.0 1.0
  outer loop
    vertex -294.89531771286164 95.7556415081183 2.4999999999999596
    vertex -275.89531771286164 76.7556415081183 2.4999999999999596
    vertex -275.89531771286164 95.7556415081183 2.4999999999999596
  endloop
endfacet
facet normal 0.0 1.0 0.0
  outer loop
    vertex -294.89531771286164 76.7556415081183 26.999999999999833
    vertex -275.89531771286164 76.7556415081183 2.4999999999999596
    vertex -294.89531771286164 76.7556415081183 2.4999999999999596
  endloop
endfacet
facet normal 0.0 1.0 0.0
  outer loop
    vertex -275.89531771286164 76.7556415081183 2.4999999999999596
    vertex -294.89531771286164 76.7556415081183 26.999999999999833
    vertex -275.89531771286164 76.7556415081183 26.999999999999833
  endloop
endfacet
facet normal 0.0 1.0 0.0
  outer loop
    vertex -294.89531771286164 95.7556415081183 2.4999999999999596
    vertex -274.3953177128617 95.7556415081183 -4.053701818662603e-14
    vertex -294.89531771286164 95.7556415081183 -4.053701818662603e-14
  endloop
endfacet
facet normal 0.0 1.0 0.0
  outer loop
    vertex -274.3953177128617 95.7556415081183 -4.053701818662603e-14
    vertex -294.89531771286164 95.7556415081183 2.4999999999999596
    vertex -275.89531771286164 95.7556415081183 2.4999999999999596
  endloop
endfacet
facet normal 0.0 1.0 0.0
  outer loop
    vertex -274.3953177128617 95.7556415081183 -4.053701818662603e-14
    vertex -275.89531771286164 95.7556415081183 2.4999999999999596
    vertex -274.3953177128617 95.7556415081183 26.999999999999833
  endloop
endfacet
facet normal 0.0 1.0 0.0
  outer loop
    vertex -274.3953177128617 95.7556415081183 26.999999999999833
    vertex -275.89531771286164 95.7556415081183 2.4999999999999596
    vertex -275.89531771286164 95.7556415081183 26.999999999999833
  endloop
endfacet
facet normal -1.0 0.0 0.0
  outer loop
    vertex -294.89531771286164 76.7556415081183 26.999999999999833
    vertex -294.89531771286164 75.2556415081183 -4.053701818662603e-14
    vertex -294.89531771286164 75.2556415081183 26.999999999999833
  endloop
endfacet
facet normal -1.0 0.0 0.0
  outer loop
    vertex -294.89531771286164 75.2556415081183 -4.053701818662603e-14
    vertex -294.89531771286164 76.7556415081183 26.999999999999833
    vertex -294.89531771286164 76.7556415081183 2.4999999999999596
  endloop
endfacet
facet normal -1.0 0.0 0.0
  outer loop
    vertex -294.89531771286164 75.2556415081183 -4.053701818662603e-14
    vertex -294.89531771286164 76.7556415081183 2.4999999999999596
    vertex -294.89531771286164 95.7556415081183 -4.053701818662603e-14
  endloop
endfacet
facet normal -1.0 0.0 0.0
  outer loop
    vertex -294.89531771286164 95.7556415081183 -4.053701818662603e-14
    vertex -294.89531771286164 76.7556415081183 2.4999999999999596
    vertex -294.89531771286164 95.7556415081183 2.4999999999999596
  endloop
endfacet
facet normal 1.0 0.0 0.0
  outer loop
    vertex -274.3953177128617 95.7556415081183 -4.053701818662603e-14
    vertex -274.3953177128617 76.7556415081183 26.999999999999833
    vertex -274.3953177128617 76.7556415081183 -4.053701818662603e-14
  endloop
endfacet
facet normal 1.0 0.0 0.0
  outer loop
    vertex -274.3953177128617 76.7556415081183 26.999999999999833
    vertex -274.3953177128617 95.7556415081183 -4.053701818662603e-14
    vertex -274.3953177128617 95.7556415081183 26.999999999999833
  endloop
endfacet
facet normal 0.0 0.0 -1.0
  outer loop
    vertex -274.3953177128617 95.7556415081183 -4.053701818662603e-14
    vertex -294.89531771286164 75.2556415081183 -4.053701818662603e-14
    vertex -294.89531771286164 95.7556415081183 -4.053701818662603e-14
  endloop
endfacet
facet normal 0.0 0.0 -1.0
  outer loop
    vertex -294.89531771286164 75.2556415081183 -4.053701818662603e-14
    vertex -274.3953177128617 95.7556415081183 -4.053701818662603e-14
    vertex -274.3953177128617 76.7556415081183 -4.053701818662603e-14
  endloop
endfacet
facet normal 0.0 0.0 -1.0
  outer loop
    vertex -294.89531771286164 75.2556415081183 -4.053701818662603e-14
    vertex -274.3953177128617 76.7556415081183 -4.053701818662603e-14
    vertex -271.3953177128617 75.2556415081183 -4.053701818662603e-14
  endloop
endfacet
facet normal 0.0 0.0 -1.0
  outer loop
    vertex -271.3953177128617 75.2556415081183 -4.053701818662603e-14
    vertex -274.3953177128617 76.7556415081183 -4.053701818662603e-14
    vertex -271.3953177128617 76.7556415081183 -4.053701818662603e-14
  endloop
endfacet
facet normal 0.0 0.0 -1.0
  outer loop
    vertex -269.89531771286164 95.7556415081183 -2.5000000000000404
    vertex -271.3953177128617 72.2556415081183 -2.5000000000000404
    vertex -271.3953177128617 95.7556415081183 -2.5000000000000404
  endloop
endfacet
facet normal 0.0 0.0 -1.0
  outer loop
    vertex -271.3953177128617 72.2556415081183 -2.5000000000000404
    vertex -294.89531771286164 70.7556415081183 -2.5000000000000404
    vertex -294.89531771286164 72.2556415081183 -2.5000000000000404
  endloop
endfacet
facet normal 0.0 0.0 -1.0
  outer loop
    vertex -294.89531771286164 70.7556415081183 -2.5000000000000404
    vertex -271.3953177128617 72.2556415081183 -2.5000000000000404
    vertex -269.89531771286164 70.7556415081183 -2.5000000000000404
  endloop
endfacet
facet normal 0.0 0.0 -1.0
  outer loop
    vertex -269.89531771286164 70.7556415081183 -2.5000000000000404
    vertex -271.3953177128617 72.2556415081183 -2.5000000000000404
    vertex -269.89531771286164 95.7556415081183 -2.5000000000000404
  endloop
endfacet
endsolid 3Dsprt-box
