solid 3Dsprt-box
facet normal 1.0 0.0 0.0
  outer loop
    vertex -751.3953177128615 75.2556415081181 27.000000000000007
    vertex -751.3953177128615 72.2556415081181 27.000000000000007
    vertex -751.3953177128615 75.2556415081181 1.346533995416621e-13
  endloop
endfacet
facet normal 1.0 0.0 0.0
  outer loop
    vertex -751.3953177128615 72.2556415081181 -2.4999999999998654
    vertex -751.3953177128615 75.2556415081181 1.346533995416621e-13
    vertex -751.3953177128615 72.2556415081181 27.000000000000007
  endloop
endfacet
facet normal 1.0 0.0 0.0
  outer loop
    vertex -751.3953177128615 75.2556415081181 1.346533995416621e-13
    vertex -751.3953177128615 72.2556415081181 -2.4999999999998654
    vertex -751.3953177128615 95.7556415081181 -2.4999999999998654
  endloop
endfacet
facet normal 1.0 0.0 0.0
  outer loop
    vertex -751.3953177128615 75.2556415081181 1.346533995416621e-13
    vertex -751.3953177128615 95.7556415081181 -2.4999999999998654
    vertex -751.3953177128615 76.7556415081181 1.346533995416621e-13
  endloop
endfacet
facet normal 1.0 0.0 0.0
  outer loop
    vertex -751.3953177128615 76.7556415081181 1.346533995416621e-13
    vertex -751.3953177128615 95.7556415081181 -2.4999999999998654
    vertex -751.3953177128615 76.7556415081181 27.000000000000007
  endloop
endfacet
facet normal 1.0 0.0 0.0
  outer loop
    vertex -751.3953177128615 76.7556415081181 27.000000000000007
    vertex -751.3953177128615 95.7556415081181 -2.4999999999998654
    vertex -751.3953177128615 95.7556415081181 27.000000000000007
  endloop
endfacet
facet normal 0.0 -1.0 0.0
  outer loop
    vertex -727.8953177128616 75.2556415081181 27.000000000000007
    vertex -751.3953177128615 75.2556415081181 1.346533995416621e-13
    vertex -727.8953177128616 75.2556415081181 1.346533995416621e-13
  endloop
endfacet
facet normal 0.0 -1.0 0.0
  outer loop
    vertex -751.3953177128615 75.2556415081181 1.346533995416621e-13
    vertex -727.8953177128616 75.2556415081181 27.000000000000007
    vertex -751.3953177128615 75.2556415081181 27.000000000000007
  endloop
endfacet
facet normal 1.0 0.0 0.0
  outer loop
    vertex -746.8953177128616 95.7556415081181 2.5000000000001346
    vertex -746.8953177128616 76.7556415081181 27.000000000000007
    vertex -746.8953177128616 76.7556415081181 2.5000000000001346
  endloop
endfacet
facet normal 1.0 0.0 0.0
  outer loop
    vertex -746.8953177128616 76.7556415081181 27.000000000000007
    vertex -746.8953177128616 95.7556415081181 2.5000000000001346
    vertex -746.8953177128616 95.7556415081181 27.000000000000007
  endloop
endfacet
facet normal 1.0 0.0 0.0
  outer loop
    vertex -727.8953177128616 76.7556415081181 27.000000000000007
    vertex -727.8953177128616 75.2556415081181 27.000000000000007
    vertex -727.8953177128616 76.7556415081181 2.5000000000001346
  endloop
endfacet
facet normal 1.0 0.0 0.0
  outer loop
    vertex -727.8953177128616 75.2556415081181 1.346533995416621e-13
    vertex -727.8953177128616 76.7556415081181 2.5000000000001346
    vertex -727.8953177128616 75.2556415081181 27.000000000000007
  endloop
endfacet
facet normal 1.0 0.0 0.0
  outer loop
    vertex -727.8953177128616 76.7556415081181 2.5000000000001346
    vertex -727.8953177128616 75.2556415081181 1.346533995416621e-13
    vertex -727.8953177128616 95.7556415081181 1.346533995416621e-13
  endloop
endfacet
facet normal 1.0 0.0 0.0
  outer loop
    vertex -727.8953177128616 76.7556415081181 2.5000000000001346
    vertex -727.8953177128616 95.7556415081181 1.346533995416621e-13
    vertex -727.8953177128616 95.7556415081181 2.5000000000001346
  endloop
endfacet
facet normal -1.0 0.0 0.0
  outer loop
    vertex -748.3953177128616 95.7556415081181 27.000000000000007
    vertex -748.3953177128616 76.7556415081181 1.346533995416621e-13
    vertex -748.3953177128616 76.7556415081181 27.000000000000007
  endloop
endfacet
facet normal -1.0 0.0 0.0
  outer loop
    vertex -748.3953177128616 76.7556415081181 1.346533995416621e-13
    vertex -748.3953177128616 95.7556415081181 27.000000000000007
    vertex -748.3953177128616 95.7556415081181 1.346533995416621e-13
  endloop
endfacet
facet normal 1.0 0.0 0.0
  outer loop
    vertex -727.8953177128616 72.2556415081181 -2.4999999999998654
    vertex -727.8953177128616 70.7556415081181 27.000000000000007
    vertex -727.8953177128616 70.7556415081181 -2.4999999999998654
  endloop
endfacet
facet normal 1.0 0.0 0.0
  outer loop
    vertex -727.8953177128616 70.7556415081181 27.000000000000007
    vertex -727.8953177128616 72.2556415081181 -2.4999999999998654
    vertex -727.8953177128616 72.2556415081181 27.000000000000007
  endloop
endfacet
facet normal 0.0 -1.0 0.0
  outer loop
    vertex -727.8953177128616 70.7556415081181 27.000000000000007
    vertex -752.8953177128616 70.7556415081181 -2.4999999999998654
    vertex -727.8953177128616 70.7556415081181 -2.4999999999998654
  endloop
endfacet
facet normal 0.0 -1.0 0.0
  outer loop
    vertex -752.8953177128616 70.7556415081181 -2.4999999999998654
    vertex -727.8953177128616 70.7556415081181 27.000000000000007
    vertex -752.8953177128616 70.7556415081181 27.000000000000007
  endloop
endfacet
facet normal 0.0 1.0 0.0
  outer loop
    vertex -751.3953177128615 72.2556415081181 27.000000000000007
    vertex -727.8953177128616 72.2556415081181 -2.4999999999998654
    vertex -751.3953177128615 72.2556415081181 -2.4999999999998654
  endloop
endfacet
facet normal 0.0 1.0 0.0
  outer loop
    vertex -727.8953177128616 72.2556415081181 -2.4999999999998654
    vertex -751.3953177128615 72.2556415081181 27.000000000000007
    vertex -727.8953177128616 72.2556415081181 27.000000000000007
  endloop
endfacet
facet normal 0.0 1.0 0.0
  outer loop
    vertex -746.8953177128616 76.7556415081181 27.000000000000007
    vertex -727.8953177128616 76.7556415081181 2.5000000000001346
    vertex -746.8953177128616 76.7556415081181 2.5000000000001346
  endloop
endfacet
facet normal 0.0 1.0 0.0
  outer loop
    vertex -727.8953177128616 76.7556415081181 2.5000000000001346
    vertex -746.8953177128616 76.7556415081181 27.000000000000007
    vertex -727.8953177128616 76.7556415081181 27.000000000000007
  endloop
endfacet
facet normal 0.0 1.0 0.0
  outer loop
    vertex -751.3953177128615 76.7556415081181 27.000000000000007
    vertex -748.3953177128616 76.7556415081181 1.346533995416621e-13
    vertex -751.3953177128615 76.7556415081181 1.346533995416621e-13
  endloop
endfacet
facet normal 0.0 1.0 0.0
  outer loop
    vertex -748.3953177128616 76.7556415081181 1.346533995416621e-13
    vertex -751.3953177128615 76.7556415081181 27.000000000000007
    vertex -748.3953177128616 76.7556415081181 27.000000000000007
  endloop
endfacet
facet normal 0.0 1.0 0.0
  outer loop
    vertex -752.8953177128616 95.7556415081181 27.000000000000007
    vertex -751.3953177128615 95.7556415081181 -2.4999999999998654
    vertex -752.8953177128616 95.7556415081181 -2.4999999999998654
  endloop
endfacet
facet normal 0.0 1.0 0.0
  outer loop
    vertex -751.3953177128615 95.7556415081181 -2.4999999999998654
    vertex -752.8953177128616 95.7556415081181 27.000000000000007
    vertex -751.3953177128615 95.7556415081181 27.000000000000007
  endloop
endfacet
facet normal -1.0 0.0 0.0
  outer loop
    vertex -752.8953177128616 95.7556415081181 27.000000000000007
    vertex -752.8953177128616 70.7556415081181 -2.4999999999998654
    vertex -752.8953177128616 70.7556415081181 27.000000000000007
  endloop
endfacet
facet normal -1.0 0.0 0.0
  outer loop
    vertex -752.8953177128616 70.7556415081181 -2.4999999999998654
    vertex -752.8953177128616 95.7556415081181 27.000000000000007
    vertex -752.8953177128616 95.7556415081181 -2.4999999999998654
  endloop
endfacet
facet normal 0.0 0.0 1.0
  outer loop
    vertex -752.8953177128616 70.7556415081181 27.000000000000007
    vertex -751.3953177128615 72.2556415081181 27.000000000000007
    vertex -752.8953177128616 95.7556415081181 27.000000000000007
  endloop
endfacet
facet normal 0.0 0.0 1.0
  outer loop
    vertex -751.3953177128615 72.2556415081181 27.000000000000007
    vertex -752.8953177128616 70.7556415081181 27.000000000000007
    vertex -727.8953177128616 70.7556415081181 27.000000000000007
  endloop
endfacet
facet normal 0.0 0.0 1.0
  outer loop
    vertex -751.3953177128615 72.2556415081181 27.000000000000007
    vertex -727.8953177128616 70.7556415081181 27.000000000000007
    vertex -727.8953177128616 72.2556415081181 27.000000000000007
  endloop
endfacet
facet normal 0.0 0.0 1.0
  outer loop
    vertex -727.8953177128616 75.2556415081181 27.000000000000007
    vertex -751.3953177128615 76.7556415081181 27.000000000000007
    vertex -751.3953177128615 75.2556415081181 27.000000000000007
  endloop
endfacet
facet normal 0.0 0.0 1.0
  outer loop
    vertex -751.3953177128615 76.7556415081181 27.000000000000007
    vertex -727.8953177128616 75.2556415081181 27.000000000000007
    vertex -748.3953177128616 76.7556415081181 27.000000000000007
  endloop
endfacet
facet normal 0.0 0.0 1.0
  outer loop
    vertex -748.3953177128616 76.7556415081181 27.000000000000007
    vertex -727.8953177128616 75.2556415081181 27.000000000000007
    vertex -746.8953177128616 76.7556415081181 27.000000000000007
  endloop
endfacet
facet normal 0.0 0.0 1.0
  outer loop
    vertex -748.3953177128616 76.7556415081181 27.000000000000007
    vertex -746.8953177128616 76.7556415081181 27.000000000000007
    vertex -748.3953177128616 95.7556415081181 27.000000000000007
  endloop
endfacet
facet normal 0.0 0.0 1.0
  outer loop
    vertex -746.8953177128616 76.7556415081181 27.000000000000007
    vertex -727.8953177128616 75.2556415081181 27.000000000000007
    vertex -727.8953177128616 76.7556415081181 27.000000000000007
  endloop
endfacet
facet normal 0.0 0.0 1.0
  outer loop
    vertex -746.8953177128616 95.7556415081181 27.000000000000007
    vertex -748.3953177128616 95.7556415081181 27.000000000000007
    vertex -746.8953177128616 76.7556415081181 27.000000000000007
  endloop
endfacet
facet normal 0.0 0.0 1.0
  outer loop
    vertex -751.3953177128615 72.2556415081181 27.000000000000007
    vertex -751.3953177128615 95.7556415081181 27.000000000000007
    vertex -752.8953177128616 95.7556415081181 27.000000000000007
  endloop
endfacet
facet normal 0.0 0.0 1.0
  outer loop
    vertex -751.3953177128615 95.7556415081181 27.000000000000007
    vertex -751.3953177128615 72.2556415081181 27.000000000000007
    vertex -751.3953177128615 75.2556415081181 27.000000000000007
  endloop
endfacet
facet normal 0.0 0.0 1.0
  outer loop
    vertex -751.3953177128615 95.7556415081181 27.000000000000007
    vertex -751.3953177128615 75.2556415081181 27.000000000000007
    vertex -751.3953177128615 76.7556415081181 27.000000000000007
  endloop
endfacet
facet normal 0.0 0.0 -1.0
  outer loop
    vertex -727.8953177128616 95.7556415081181 1.346533995416621e-13
    vertex -748.3953177128616 76.7556415081181 1.346533995416621e-13
    vertex -748.3953177128616 95.7556415081181 1.346533995416621e-13
  endloop
endfacet
facet normal 0.0 0.0 -1.0
  outer loop
    vertex -748.3953177128616 76.7556415081181 1.346533995416621e-13
    vertex -751.3953177128615 75.2556415081181 1.346533995416621e-13
    vertex -751.3953177128615 76.7556415081181 1.346533995416621e-13
  endloop
endfacet
facet normal 0.0 0.0 -1.0
  outer loop
    vertex -751.3953177128615 75.2556415081181 1.346533995416621e-13
    vertex -748.3953177128616 76.7556415081181 1.346533995416621e-13
    vertex -727.8953177128616 75.2556415081181 1.346533995416621e-13
  endloop
endfacet
facet normal 0.0 0.0 -1.0
  outer loop
    vertex -727.8953177128616 75.2556415081181 1.346533995416621e-13
    vertex -748.3953177128616 76.7556415081181 1.346533995416621e-13
    vertex -727.8953177128616 95.7556415081181 1.346533995416621e-13
  endloop
endfacet
facet normal 0.0 1.0 0.0
  outer loop
    vertex -727.8953177128616 95.7556415081181 2.5000000000001346
    vertex -727.8953177128616 95.7556415081181 1.346533995416621e-13
    vertex -746.8953177128616 95.7556415081181 2.5000000000001346
  endloop
endfacet
facet normal 0.0 1.0 0.0
  outer loop
    vertex -748.3953177128616 95.7556415081181 1.346533995416621e-13
    vertex -746.8953177128616 95.7556415081181 2.5000000000001346
    vertex -727.8953177128616 95.7556415081181 1.346533995416621e-13
  endloop
endfacet
facet normal 0.0 1.0 0.0
  outer loop
    vertex -746.8953177128616 95.7556415081181 2.5000000000001346
    vertex -748.3953177128616 95.7556415081181 1.346533995416621e-13
    vertex -748.3953177128616 95.7556415081181 27.000000000000007
  endloop
endfacet
facet normal 0.0 1.0 0.0
  outer loop
    vertex -746.8953177128616 95.7556415081181 2.5000000000001346
    vertex -748.3953177128616 95.7556415081181 27.000000000000007
    vertex -746.8953177128616 95.7556415081181 27.000000000000007
  endloop
endfacet
facet normal 0.0 0.0 -1.0
  outer loop
    vertex -751.3953177128615 95.7556415081181 -2.4999999999998654
    vertex -752.8953177128616 70.7556415081181 -2.4999999999998654
    vertex -752.8953177128616 95.7556415081181 -2.4999999999998654
  endloop
endfacet
facet normal 0.0 0.0 -1.0
  outer loop
    vertex -752.8953177128616 70.7556415081181 -2.4999999999998654
    vertex -751.3953177128615 95.7556415081181 -2.4999999999998654
    vertex -751.3953177128615 72.2556415081181 -2.4999999999998654
  endloop
endfacet
facet normal 0.0 0.0 -1.0
  outer loop
    vertex -752.8953177128616 70.7556415081181 -2.4999999999998654
    vertex -751.3953177128615 72.2556415081181 -2.4999999999998654
    vertex -727.8953177128616 70.7556415081181 -2.4999999999998654
  endloop
endfacet
facet normal 0.0 0.0 -1.0
  outer loop
    vertex -727.8953177128616 70.7556415081181 -2.4999999999998654
    vertex -751.3953177128615 72.2556415081181 -2.4999999999998654
    vertex -727.8953177128616 72.2556415081181 -2.4999999999998654
  endloop
endfacet
facet normal 0.0 0.0 1.0
  outer loop
    vertex -727.8953177128616 76.7556415081181 2.5000000000001346
    vertex -746.8953177128616 95.7556415081181 2.5000000000001346
    vertex -746.8953177128616 76.7556415081181 2.5000000000001346
  endloop
endfacet
facet normal 0.0 0.0 1.0
  outer loop
    vertex -746.8953177128616 95.7556415081181 2.5000000000001346
    vertex -727.8953177128616 76.7556415081181 2.5000000000001346
    vertex -727.8953177128616 95.7556415081181 2.5000000000001346
  endloop
endfacet
endsolid 3Dsprt-box
