solid 3Dsprt-box
facet normal -1.0 0.0 0.0
  outer loop
    vertex -275.89531771286164 537.7556415081182 26.999999999999808
    vertex -275.89531771286164 518.7556415081182 2.4999999999998352
    vertex -275.89531771286164 518.7556415081182 26.999999999999808
  endloop
endfacet
facet normal -1.0 0.0 0.0
  outer loop
    vertex -275.89531771286164 518.7556415081182 2.4999999999998352
    vertex -275.89531771286164 537.7556415081182 26.999999999999808
    vertex -275.89531771286164 537.7556415081182 2.4999999999998352
  endloop
endfacet
facet normal 0.0 1.0 0.0
  outer loop
    vertex -294.89531771286164 539.2556415081183 26.999999999999808
    vertex -271.3953177128617 539.2556415081183 -1.6461554341873351e-13
    vertex -294.89531771286164 539.2556415081183 -1.6461554341873351e-13
  endloop
endfacet
facet normal 0.0 1.0 0.0
  outer loop
    vertex -271.3953177128617 539.2556415081183 -1.6461554341873351e-13
    vertex -294.89531771286164 539.2556415081183 26.999999999999808
    vertex -271.3953177128617 539.2556415081183 26.999999999999808
  endloop
endfacet
facet normal -1.0 0.0 0.0
  outer loop
    vertex -271.3953177128617 542.2556415081182 26.999999999999808
    vertex -271.3953177128617 539.2556415081183 -1.6461554341873351e-13
    vertex -271.3953177128617 539.2556415081183 26.999999999999808
  endloop
endfacet
facet normal -1.0 0.0 0.0
  outer loop
    vertex -271.3953177128617 537.7556415081182 26.999999999999808
    vertex -271.3953177128617 518.7556415081182 -2.5000000000001648
    vertex -271.3953177128617 518.7556415081182 26.999999999999808
  endloop
endfacet
facet normal -1.0 0.0 0.0
  outer loop
    vertex -271.3953177128617 518.7556415081182 -2.5000000000001648
    vertex -271.3953177128617 537.7556415081182 26.999999999999808
    vertex -271.3953177128617 537.7556415081182 -1.6461554341873351e-13
  endloop
endfacet
facet normal -1.0 0.0 0.0
  outer loop
    vertex -271.3953177128617 518.7556415081182 -2.5000000000001648
    vertex -271.3953177128617 537.7556415081182 -1.6461554341873351e-13
    vertex -271.3953177128617 542.2556415081182 -2.5000000000001648
  endloop
endfacet
facet normal -1.0 0.0 0.0
  outer loop
    vertex -271.3953177128617 542.2556415081182 -2.5000000000001648
    vertex -271.3953177128617 537.7556415081182 -1.6461554341873351e-13
    vertex -271.3953177128617 539.2556415081183 -1.6461554341873351e-13
  endloop
endfacet
facet normal -1.0 0.0 0.0
  outer loop
    vertex -271.3953177128617 542.2556415081182 -2.5000000000001648
    vertex -271.3953177128617 539.2556415081183 -1.6461554341873351e-13
    vertex -271.3953177128617 542.2556415081182 26.999999999999808
  endloop
endfacet
facet normal 0.0 -1.0 0.0
  outer loop
    vertex -294.89531771286164 518.7556415081182 2.4999999999998352
    vertex -294.89531771286164 518.7556415081182 -1.6461554341873351e-13
    vertex -275.89531771286164 518.7556415081182 2.4999999999998352
  endloop
endfacet
facet normal 0.0 -1.0 0.0
  outer loop
    vertex -274.3953177128617 518.7556415081182 -1.6461554341873351e-13
    vertex -275.89531771286164 518.7556415081182 2.4999999999998352
    vertex -294.89531771286164 518.7556415081182 -1.6461554341873351e-13
  endloop
endfacet
facet normal 0.0 -1.0 0.0
  outer loop
    vertex -275.89531771286164 518.7556415081182 2.4999999999998352
    vertex -274.3953177128617 518.7556415081182 -1.6461554341873351e-13
    vertex -274.3953177128617 518.7556415081182 26.999999999999808
  endloop
endfacet
facet normal 0.0 -1.0 0.0
  outer loop
    vertex -275.89531771286164 518.7556415081182 2.4999999999998352
    vertex -274.3953177128617 518.7556415081182 26.999999999999808
    vertex -275.89531771286164 518.7556415081182 26.999999999999808
  endloop
endfacet
facet normal 0.0 0.0 1.0
  outer loop
    vertex -274.3953177128617 518.7556415081182 26.999999999999808
    vertex -275.89531771286164 537.7556415081182 26.999999999999808
    vertex -275.89531771286164 518.7556415081182 26.999999999999808
  endloop
endfacet
facet normal 0.0 0.0 1.0
  outer loop
    vertex -269.89531771286164 518.7556415081182 26.999999999999808
    vertex -271.3953177128617 537.7556415081182 26.999999999999808
    vertex -271.3953177128617 518.7556415081182 26.999999999999808
  endloop
endfacet
facet normal 0.0 0.0 1.0
  outer loop
    vertex -271.3953177128617 537.7556415081182 26.999999999999808
    vertex -269.89531771286164 518.7556415081182 26.999999999999808
    vertex -271.3953177128617 539.2556415081183 26.999999999999808
  endloop
endfacet
facet normal 0.0 0.0 1.0
  outer loop
    vertex -271.3953177128617 539.2556415081183 26.999999999999808
    vertex -269.89531771286164 518.7556415081182 26.999999999999808
    vertex -271.3953177128617 542.2556415081182 26.999999999999808
  endloop
endfacet
facet normal 0.0 0.0 1.0
  outer loop
    vertex -271.3953177128617 542.2556415081182 26.999999999999808
    vertex -294.89531771286164 543.7556415081182 26.999999999999808
    vertex -294.89531771286164 542.2556415081182 26.999999999999808
  endloop
endfacet
facet normal 0.0 0.0 1.0
  outer loop
    vertex -294.89531771286164 543.7556415081182 26.999999999999808
    vertex -271.3953177128617 542.2556415081182 26.999999999999808
    vertex -269.89531771286164 543.7556415081182 26.999999999999808
  endloop
endfacet
facet normal 0.0 0.0 1.0
  outer loop
    vertex -269.89531771286164 543.7556415081182 26.999999999999808
    vertex -271.3953177128617 542.2556415081182 26.999999999999808
    vertex -269.89531771286164 518.7556415081182 26.999999999999808
  endloop
endfacet
facet normal 0.0 0.0 1.0
  outer loop
    vertex -275.89531771286164 537.7556415081182 26.999999999999808
    vertex -294.89531771286164 539.2556415081183 26.999999999999808
    vertex -294.89531771286164 537.7556415081182 26.999999999999808
  endloop
endfacet
facet normal 0.0 0.0 1.0
  outer loop
    vertex -294.89531771286164 539.2556415081183 26.999999999999808
    vertex -275.89531771286164 537.7556415081182 26.999999999999808
    vertex -271.3953177128617 539.2556415081183 26.999999999999808
  endloop
endfacet
facet normal 0.0 0.0 1.0
  outer loop
    vertex -271.3953177128617 539.2556415081183 26.999999999999808
    vertex -275.89531771286164 537.7556415081182 26.999999999999808
    vertex -274.3953177128617 537.7556415081182 26.999999999999808
  endloop
endfacet
facet normal 0.0 0.0 1.0
  outer loop
    vertex -274.3953177128617 537.7556415081182 26.999999999999808
    vertex -275.89531771286164 537.7556415081182 26.999999999999808
    vertex -274.3953177128617 518.7556415081182 26.999999999999808
  endloop
endfacet
facet normal 0.0 0.0 1.0
  outer loop
    vertex -271.3953177128617 539.2556415081183 26.999999999999808
    vertex -274.3953177128617 537.7556415081182 26.999999999999808
    vertex -271.3953177128617 537.7556415081182 26.999999999999808
  endloop
endfacet
facet normal 0.0 0.0 -1.0
  outer loop
    vertex -269.89531771286164 543.7556415081182 -2.5000000000001648
    vertex -294.89531771286164 542.2556415081182 -2.5000000000001648
    vertex -294.89531771286164 543.7556415081182 -2.5000000000001648
  endloop
endfacet
facet normal 0.0 0.0 -1.0
  outer loop
    vertex -294.89531771286164 542.2556415081182 -2.5000000000001648
    vertex -269.89531771286164 543.7556415081182 -2.5000000000001648
    vertex -271.3953177128617 542.2556415081182 -2.5000000000001648
  endloop
endfacet
facet normal 0.0 0.0 -1.0
  outer loop
    vertex -271.3953177128617 542.2556415081182 -2.5000000000001648
    vertex -269.89531771286164 543.7556415081182 -2.5000000000001648
    vertex -271.3953177128617 518.7556415081182 -2.5000000000001648
  endloop
endfacet
facet normal 0.0 0.0 -1.0
  outer loop
    vertex -271.3953177128617 518.7556415081182 -2.5000000000001648
    vertex -269.89531771286164 543.7556415081182 -2.5000000000001648
    vertex -269.89531771286164 518.7556415081182 -2.5000000000001648
  endloop
endfacet
facet normal 0.0 -1.0 0.0
  outer loop
    vertex -271.3953177128617 542.2556415081182 26.999999999999808
    vertex -294.89531771286164 542.2556415081182 -2.5000000000001648
    vertex -271.3953177128617 542.2556415081182 -2.5000000000001648
  endloop
endfacet
facet normal 0.0 -1.0 0.0
  outer loop
    vertex -294.89531771286164 542.2556415081182 -2.5000000000001648
    vertex -271.3953177128617 542.2556415081182 26.999999999999808
    vertex -294.89531771286164 542.2556415081182 26.999999999999808
  endloop
endfacet
facet normal 0.0 -1.0 0.0
  outer loop
    vertex -271.3953177128617 537.7556415081182 26.999999999999808
    vertex -274.3953177128617 537.7556415081182 -1.6461554341873351e-13
    vertex -271.3953177128617 537.7556415081182 -1.6461554341873351e-13
  endloop
endfacet
facet normal 0.0 -1.0 0.0
  outer loop
    vertex -274.3953177128617 537.7556415081182 -1.6461554341873351e-13
    vertex -271.3953177128617 537.7556415081182 26.999999999999808
    vertex -274.3953177128617 537.7556415081182 26.999999999999808
  endloop
endfacet
facet normal 1.0 0.0 0.0
  outer loop
    vertex -269.89531771286164 543.7556415081182 -2.5000000000001648
    vertex -269.89531771286164 518.7556415081182 26.999999999999808
    vertex -269.89531771286164 518.7556415081182 -2.5000000000001648
  endloop
endfacet
facet normal 1.0 0.0 0.0
  outer loop
    vertex -269.89531771286164 518.7556415081182 26.999999999999808
    vertex -269.89531771286164 543.7556415081182 -2.5000000000001648
    vertex -269.89531771286164 543.7556415081182 26.999999999999808
  endloop
endfacet
facet normal 0.0 0.0 1.0
  outer loop
    vertex -275.89531771286164 518.7556415081182 2.4999999999998352
    vertex -294.89531771286164 537.7556415081182 2.4999999999998352
    vertex -294.89531771286164 518.7556415081182 2.4999999999998352
  endloop
endfacet
facet normal 0.0 0.0 1.0
  outer loop
    vertex -294.89531771286164 537.7556415081182 2.4999999999998352
    vertex -275.89531771286164 518.7556415081182 2.4999999999998352
    vertex -275.89531771286164 537.7556415081182 2.4999999999998352
  endloop
endfacet
facet normal 1.0 0.0 0.0
  outer loop
    vertex -274.3953177128617 537.7556415081182 -1.6461554341873351e-13
    vertex -274.3953177128617 518.7556415081182 26.999999999999808
    vertex -274.3953177128617 518.7556415081182 -1.6461554341873351e-13
  endloop
endfacet
facet normal 1.0 0.0 0.0
  outer loop
    vertex -274.3953177128617 518.7556415081182 26.999999999999808
    vertex -274.3953177128617 537.7556415081182 -1.6461554341873351e-13
    vertex -274.3953177128617 537.7556415081182 26.999999999999808
  endloop
endfacet
facet normal -1.0 0.0 0.0
  outer loop
    vertex -294.89531771286164 543.7556415081182 26.999999999999808
    vertex -294.89531771286164 542.2556415081182 -2.5000000000001648
    vertex -294.89531771286164 542.2556415081182 26.999999999999808
  endloop
endfacet
facet normal -1.0 0.0 0.0
  outer loop
    vertex -294.89531771286164 542.2556415081182 -2.5000000000001648
    vertex -294.89531771286164 543.7556415081182 26.999999999999808
    vertex -294.89531771286164 543.7556415081182 -2.5000000000001648
  endloop
endfacet
facet normal 0.0 -1.0 0.0
  outer loop
    vertex -275.89531771286164 537.7556415081182 26.999999999999808
    vertex -294.89531771286164 537.7556415081182 2.4999999999998352
    vertex -275.89531771286164 537.7556415081182 2.4999999999998352
  endloop
endfacet
facet normal 0.0 -1.0 0.0
  outer loop
    vertex -294.89531771286164 537.7556415081182 2.4999999999998352
    vertex -275.89531771286164 537.7556415081182 26.999999999999808
    vertex -294.89531771286164 537.7556415081182 26.999999999999808
  endloop
endfacet
facet normal -1.0 0.0 0.0
  outer loop
    vertex -294.89531771286164 539.2556415081183 26.999999999999808
    vertex -294.89531771286164 537.7556415081182 2.4999999999998352
    vertex -294.89531771286164 537.7556415081182 26.999999999999808
  endloop
endfacet
facet normal -1.0 0.0 0.0
  outer loop
    vertex -294.89531771286164 537.7556415081182 2.4999999999998352
    vertex -294.89531771286164 518.7556415081182 -1.6461554341873351e-13
    vertex -294.89531771286164 518.7556415081182 2.4999999999998352
  endloop
endfacet
facet normal -1.0 0.0 0.0
  outer loop
    vertex -294.89531771286164 518.7556415081182 -1.6461554341873351e-13
    vertex -294.89531771286164 537.7556415081182 2.4999999999998352
    vertex -294.89531771286164 539.2556415081183 -1.6461554341873351e-13
  endloop
endfacet
facet normal -1.0 0.0 0.0
  outer loop
    vertex -294.89531771286164 539.2556415081183 -1.6461554341873351e-13
    vertex -294.89531771286164 537.7556415081182 2.4999999999998352
    vertex -294.89531771286164 539.2556415081183 26.999999999999808
  endloop
endfacet
facet normal 0.0 1.0 0.0
  outer loop
    vertex -294.89531771286164 543.7556415081182 26.999999999999808
    vertex -269.89531771286164 543.7556415081182 -2.5000000000001648
    vertex -294.89531771286164 543.7556415081182 -2.5000000000001648
  endloop
endfacet
facet normal 0.0 1.0 0.0
  outer loop
    vertex -269.89531771286164 543.7556415081182 -2.5000000000001648
    vertex -294.89531771286164 543.7556415081182 26.999999999999808
    vertex -269.89531771286164 543.7556415081182 26.999999999999808
  endloop
endfacet
facet normal 0.0 -1.0 0.0
  outer loop
    vertex -269.89531771286164 518.7556415081182 26.999999999999808
    vertex -271.3953177128617 518.7556415081182 -2.5000000000001648
    vertex -269.89531771286164 518.7556415081182 -2.5000000000001648
  endloop
endfacet
facet normal 0.0 -1.0 0.0
  outer loop
    vertex -271.3953177128617 518.7556415081182 -2.5000000000001648
    vertex -269.89531771286164 518.7556415081182 26.999999999999808
    vertex -271.3953177128617 518.7556415081182 26.999999999999808
  endloop
endfacet
facet normal 0.0 0.0 -1.0
  outer loop
    vertex -294.89531771286164 539.2556415081183 -1.6461554341873351e-13
    vertex -274.3953177128617 537.7556415081182 -1.6461554341873351e-13
    vertex -294.89531771286164 518.7556415081182 -1.6461554341873351e-13
  endloop
endfacet
facet normal 0.0 0.0 -1.0
  outer loop
    vertex -274.3953177128617 537.7556415081182 -1.6461554341873351e-13
    vertex -294.89531771286164 539.2556415081183 -1.6461554341873351e-13
    vertex -271.3953177128617 539.2556415081183 -1.6461554341873351e-13
  endloop
endfacet
facet normal 0.0 0.0 -1.0
  outer loop
    vertex -274.3953177128617 537.7556415081182 -1.6461554341873351e-13
    vertex -271.3953177128617 539.2556415081183 -1.6461554341873351e-13
    vertex -271.3953177128617 537.7556415081182 -1.6461554341873351e-13
  endloop
endfacet
facet normal 0.0 0.0 -1.0
  outer loop
    vertex -274.3953177128617 518.7556415081182 -1.6461554341873351e-13
    vertex -294.89531771286164 518.7556415081182 -1.6461554341873351e-13
    vertex -274.3953177128617 537.7556415081182 -1.6461554341873351e-13
  endloop
endfacet
endsolid 3Dsprt-box
