solid 3Dsprt box 24
facet normal -1.0 -1.152096797150455e-09 1.6375008692196485e-25
  outer loop
    vertex 93.3430179700877 954.7231150037142 96.39073610910634
    vertex 93.34301795313054 969.4416333202213 77.8934273199563
    vertex 93.3430179700877 954.7231150037142 77.89073610910634
  endloop
endfacet
facet normal -1.0 -1.152096797150455e-09 1.6375008692196485e-25
  outer loop
    vertex 93.34301795313054 969.4416333202213 77.8934273199563
    vertex 93.3430179700877 954.7231150037142 96.39073610910634
    vertex 93.34301795313054 969.4416333202213 96.3934273199563
  endloop
endfacet
facet normal -9.769404420108046e-05 -0.00012414271579783178 0.99999998752223
  outer loop
    vertex 78.71815070293309 936.7848544111866 96.38845892142459
    vertex 92.51642606725103 951.3346437862838 96.38710748423487
    vertex 93.3430179700877 954.7231150037142 96.39073610910634
  endloop
endfacet
facet normal -9.769404420108046e-05 -0.00012414271579783178 0.99999998752223
  outer loop
    vertex 92.51642606725103 951.3346437862838 96.38710748423487
    vertex 78.71815070293309 936.7848544111866 96.38845892142459
    vertex 79.87909217202794 935.8350055508985 96.38702785716981
  endloop
endfacet
facet normal -9.769404420108046e-05 -0.00012414271579783178 0.99999998752223
  outer loop
    vertex 93.34301795313054 969.4416333202213 96.3934273199563
    vertex 94.84301795313053 949.4416333202213 96.3934273199563
    vertex 94.84301795313053 969.4416333202213 96.3934273199563
  endloop
endfacet
facet normal -9.769404420108046e-05 -0.00012414271579783178 0.99999998752223
  outer loop
    vertex 94.84301795313053 949.4416333202213 96.3934273199563
    vertex 93.34301795313054 969.4416333202213 96.3934273199563
    vertex 93.3430179700877 954.7231150037142 96.39073610910634
  endloop
endfacet
facet normal -9.769404420108046e-05 -0.00012414271579783178 0.99999998752223
  outer loop
    vertex 94.84301795313053 949.4416333202213 96.3934273199563
    vertex 93.3430179700877 954.7231150037142 96.39073610910634
    vertex 92.51642606725103 951.3346437862838 96.38710748423487
  endloop
endfacet
facet normal 0.7750390791418773 -0.631913304936647 -2.910249963831772e-05
  outer loop
    vertex 92.51790084783713 951.337373399102 76.39342731995639
    vertex 79.87909217202794 935.8350055508985 96.38702785716981
    vertex 79.88056695261403 935.8377351637165 76.39334769289133
  endloop
endfacet
facet normal 0.7750390791418773 -0.631913304936647 -2.910249963831772e-05
  outer loop
    vertex 79.87909217202794 935.8350055508985 96.38702785716981
    vertex 92.51790084783713 951.337373399102 76.39342731995639
    vertex 92.51642606725103 951.3346437862838 96.38710748423487
  endloop
endfacet
facet normal -1.177379967786021e-16 1.0 -5.0681915996473656e-17
  outer loop
    vertex 94.84301795313053 969.4416333202213 96.3934273199563
    vertex 93.34301795313054 969.4416333202213 77.8934273199563
    vertex 93.34301795313054 969.4416333202213 96.3934273199563
  endloop
endfacet
facet normal -1.177379967786021e-16 1.0 -5.0681915996473656e-17
  outer loop
    vertex 99.34301795313054 969.4416333202213 96.39342731995606
    vertex 97.84301795313051 969.4416333202213 77.8934273199563
    vertex 97.84301795313051 969.4416333202213 96.39342731995606
  endloop
endfacet
facet normal -1.177379967786021e-16 1.0 -5.0681915996473656e-17
  outer loop
    vertex 97.84301795313051 969.4416333202213 77.8934273199563
    vertex 99.34301795313054 969.4416333202213 96.39342731995606
    vertex 97.84301795313051 969.4416333202213 76.3934273199563
  endloop
endfacet
facet normal -1.177379967786021e-16 1.0 -5.0681915996473656e-17
  outer loop
    vertex 97.84301795313051 969.4416333202213 76.3934273199563
    vertex 99.34301795313054 969.4416333202213 96.39342731995606
    vertex 97.84301795313051 969.4416333202213 73.3934273199563
  endloop
endfacet
facet normal -1.177379967786021e-16 1.0 -5.0681915996473656e-17
  outer loop
    vertex 97.84301795313051 969.4416333202213 73.3934273199563
    vertex 74.34301795313054 969.4416333202213 71.8934273199563
    vertex 74.34301795313054 969.4416333202213 73.3934273199563
  endloop
endfacet
facet normal -1.177379967786021e-16 1.0 -5.0681915996473656e-17
  outer loop
    vertex 74.34301795313054 969.4416333202213 71.8934273199563
    vertex 97.84301795313051 969.4416333202213 73.3934273199563
    vertex 99.34301795313054 969.4416333202213 71.8934273199563
  endloop
endfacet
facet normal -1.177379967786021e-16 1.0 -5.0681915996473656e-17
  outer loop
    vertex 99.34301795313054 969.4416333202213 71.8934273199563
    vertex 97.84301795313051 969.4416333202213 73.3934273199563
    vertex 99.34301795313054 969.4416333202213 96.39342731995606
  endloop
endfacet
facet normal -1.177379967786021e-16 1.0 -5.0681915996473656e-17
  outer loop
    vertex 93.34301795313054 969.4416333202213 77.8934273199563
    vertex 74.34301795313054 969.4416333202213 76.3934273199563
    vertex 74.34301795313054 969.4416333202213 77.8934273199563
  endloop
endfacet
facet normal -1.177379967786021e-16 1.0 -5.0681915996473656e-17
  outer loop
    vertex 74.34301795313054 969.4416333202213 76.3934273199563
    vertex 93.34301795313054 969.4416333202213 77.8934273199563
    vertex 97.84301795313051 969.4416333202213 76.3934273199563
  endloop
endfacet
facet normal -1.177379967786021e-16 1.0 -5.0681915996473656e-17
  outer loop
    vertex 97.84301795313051 969.4416333202213 76.3934273199563
    vertex 93.34301795313054 969.4416333202213 77.8934273199563
    vertex 94.84301795313053 969.4416333202213 77.8934273199563
  endloop
endfacet
facet normal -1.177379967786021e-16 1.0 -5.0681915996473656e-17
  outer loop
    vertex 94.84301795313053 969.4416333202213 77.8934273199563
    vertex 93.34301795313054 969.4416333202213 77.8934273199563
    vertex 94.84301795313053 969.4416333202213 96.3934273199563
  endloop
endfacet
facet normal -1.177379967786021e-16 1.0 -5.0681915996473656e-17
  outer loop
    vertex 97.84301795313051 969.4416333202213 76.3934273199563
    vertex 94.84301795313053 969.4416333202213 77.8934273199563
    vertex 97.84301795313051 969.4416333202213 77.8934273199563
  endloop
endfacet
facet normal 1.0 0.0 0.0
  outer loop
    vertex 99.34301795313054 969.4416333202213 96.39342731995606
    vertex 99.34301795313054 949.4416333202213 71.8934273199563
    vertex 99.34301795313054 969.4416333202213 71.8934273199563
  endloop
endfacet
facet normal 1.0 0.0 0.0
  outer loop
    vertex 99.34301795313054 949.4416333202213 71.8934273199563
    vertex 99.34301795313054 969.4416333202213 96.39342731995606
    vertex 99.3429968305367 949.4415624363949 96.39342515324815
  endloop
endfacet
facet normal -1.0 0.0 0.0
  outer loop
    vertex 74.34301795313054 940.368674789997 73.39338750494817
    vertex 74.34301795313054 969.4416333202213 71.8934273199563
    vertex 74.34301795313054 940.368674789997 71.89338750494814
  endloop
endfacet
facet normal -1.0 0.0 0.0
  outer loop
    vertex 74.34301795313054 969.4416333202213 71.8934273199563
    vertex 74.34301795313054 940.368674789997 73.39338750494817
    vertex 74.34301795313054 969.4416333202213 73.3934273199563
  endloop
endfacet
facet normal -0.42945963304194334 -0.5261235876388316 0.7340016308684362
  outer loop
    vertex 82.20564443638591 933.9419432361215 77.88795275713427
    vertex 97.54583376221848 947.242511653336 96.39709217447013
    vertex 94.84301795313053 949.4416333202213 96.3934273199563
  endloop
endfacet
facet normal -0.42945963304194334 -0.5261235876388316 0.7340016308684362
  outer loop
    vertex 97.54583376221848 947.242511653336 96.39709217447013
    vertex 82.20564443638591 933.9419432361215 77.88795275713427
    vertex 84.8862208604987 931.751848607064 77.88794782534737
  endloop
endfacet
facet normal -0.7750470251423368 0.6319035595490312 1.572507651410343e-05
  outer loop
    vertex 78.71815070293309 936.7848544111866 96.38845892142459
    vertex 93.3430179700877 954.7231150037142 77.89073610910634
    vertex 78.7196217266099 936.7875794161718 77.88795275713427
  endloop
endfacet
facet normal -0.7750470251423368 0.6319035595490312 1.572507651410343e-05
  outer loop
    vertex 93.3430179700877 954.7231150037142 77.89073610910634
    vertex 78.71815070293309 936.7848544111866 96.38845892142459
    vertex 93.3430179700877 954.7231150037142 96.39073610910634
  endloop
endfacet
facet normal 0.0 1.6653345369377348e-16 1.0
  outer loop
    vertex 94.84301795313053 949.4416333202213 77.8934273199563
    vertex 97.84301795313051 969.4416333202213 77.8934273199563
    vertex 94.84301795313053 969.4416333202213 77.8934273199563
  endloop
endfacet
facet normal 0.0 1.6653345369377348e-16 1.0
  outer loop
    vertex 97.84301795313051 969.4416333202213 77.8934273199563
    vertex 94.84301795313053 949.4416333202213 77.8934273199563
    vertex 97.84301795313051 949.4416333202213 77.8934273199563
  endloop
endfacet
facet normal -1.0 0.0 0.0
  outer loop
    vertex 97.84301795313051 949.4416333202213 96.39342731995606
    vertex 97.84301795313051 969.4416333202213 77.8934273199563
    vertex 97.84301795313051 949.4416333202213 77.8934273199563
  endloop
endfacet
facet normal -1.0 0.0 0.0
  outer loop
    vertex 97.84301795313051 969.4416333202213 77.8934273199563
    vertex 97.84301795313051 949.4416333202213 96.39342731995606
    vertex 97.84301795313051 969.4416333202213 96.39342731995606
  endloop
endfacet
facet normal -0.7750391131243687 0.6319132639274097 6.162562451173035e-09
  outer loop
    vertex 82.20564443638591 933.9419432361215 77.88795275713427
    vertex 94.84301795313043 949.4416333202219 76.39342731995639
    vertex 82.20568405790735 933.9419950848363 76.39334769289133
  endloop
endfacet
facet normal -0.7750391131243687 0.6319132639274097 6.162562451173035e-09
  outer loop
    vertex 94.84301795313043 949.4416333202219 76.39342731995639
    vertex 82.20564443638591 933.9419432361215 77.88795275713427
    vertex 94.84301795313053 949.4416333202213 77.8934273199563
  endloop
endfacet
facet normal -0.7750391131243687 0.6319132639274097 6.162562451173035e-09
  outer loop
    vertex 94.84301795313053 949.4416333202213 77.8934273199563
    vertex 82.20564443638591 933.9419432361215 77.88795275713427
    vertex 94.84301795313053 949.4416333202213 96.3934273199563
  endloop
endfacet
facet normal 8.337453838020553e-05 -0.00011821605180634073 0.9999999895368258
  outer loop
    vertex 74.34301795313054 940.368390522363 77.89334768994033
    vertex 93.34301795313054 969.4416333202213 77.8934273199563
    vertex 74.34301795313054 969.4416333202213 77.8934273199563
  endloop
endfacet
facet normal 8.337453838020553e-05 -0.00011821605180634073 0.9999999895368258
  outer loop
    vertex 93.34301795313054 969.4416333202213 77.8934273199563
    vertex 74.34301795313054 940.368390522363 77.89334768994033
    vertex 93.3430179700877 954.7231150037142 77.89073610910634
  endloop
endfacet
facet normal 8.337453838020553e-05 -0.00011821605180634073 0.9999999895368258
  outer loop
    vertex 93.3430179700877 954.7231150037142 77.89073610910634
    vertex 74.34301795313054 940.368390522363 77.89334768994033
    vertex 78.7196217266099 936.7875794161718 77.88795275713427
  endloop
endfacet
facet normal 3.215237671117881e-07 1.4974542930472746e-06 -0.9999999999988272
  outer loop
    vertex 99.34301795313054 949.4416333202213 71.8934273199563
    vertex 74.34301795313054 969.4416333202213 71.8934273199563
    vertex 99.34301795313054 969.4416333202213 71.8934273199563
  endloop
endfacet
facet normal 3.215237671117881e-07 1.4974542930472746e-06 -0.9999999999988272
  outer loop
    vertex 74.34301795313054 969.4416333202213 71.8934273199563
    vertex 99.34301795313054 949.4416333202213 71.8934273199563
    vertex 74.34301795313054 940.368674789997 71.89338750494814
  endloop
endfacet
facet normal 3.215237671117881e-07 1.4974542930472746e-06 -0.9999999999988272
  outer loop
    vertex 74.34301795313054 940.368674789997 71.89338750494814
    vertex 99.34301795313054 949.4416333202213 71.8934273199563
    vertex 89.52544446041439 937.4285687088809 71.89342731995623
  endloop
endfacet
facet normal 3.215237671117881e-07 1.4974542930472746e-06 -0.9999999999988272
  outer loop
    vertex 74.34301795313054 940.368674789997 71.89338750494814
    vertex 89.52544446041439 937.4285687088809 71.89342731995623
    vertex 84.88649547564145 931.7521956587598 71.89334768994013
  endloop
endfacet
facet normal 7.222346914116766e-07 -5.4168079072142916e-08 0.9999999999997378
  outer loop
    vertex 97.84301795313051 949.4416333202213 96.39342731995606
    vertex 99.34301795313054 969.4416333202213 96.39342731995606
    vertex 97.84301795313051 969.4416333202213 96.39342731995606
  endloop
endfacet
facet normal 7.222346914116766e-07 -5.4168079072142916e-08 0.9999999999997378
  outer loop
    vertex 99.34301795313054 969.4416333202213 96.39342731995606
    vertex 97.84301795313051 949.4416333202213 96.39342731995606
    vertex 99.3429968305367 949.4415624363949 96.39342515324815
  endloop
endfacet
facet normal 0.0 1.0 -1.6653345369377348e-16
  outer loop
    vertex 97.84301795313051 949.4416333202213 96.39342731995606
    vertex 94.84301795313053 949.4416333202213 77.8934273199563
    vertex 94.84301795313053 949.4416333202213 96.3934273199563
  endloop
endfacet
facet normal 0.0 1.0 -1.6653345369377348e-16
  outer loop
    vertex 94.84301795313053 949.4416333202213 77.8934273199563
    vertex 97.84301795313051 949.4416333202213 96.39342731995606
    vertex 97.84301795313051 949.4416333202213 77.8934273199563
  endloop
endfacet
facet normal -0.7743140639553064 0.6328014936463231 3.787667881066232e-13
  outer loop
    vertex 83.98715207118435 932.4871763030955 76.39334768994007
    vertex 97.84301795313051 949.4416333202213 73.3934273199563
    vertex 83.98715207117989 932.4871763030936 73.3933476899413
  endloop
endfacet
facet normal -0.7743140639553064 0.6328014936463231 3.787667881066232e-13
  outer loop
    vertex 97.84301795313051 949.4416333202213 73.3934273199563
    vertex 83.98715207118435 932.4871763030955 76.39334768994007
    vertex 97.84301795313051 949.4416333202213 76.3934273199563
  endloop
endfacet
facet normal 1.0 0.0 0.0
  outer loop
    vertex 94.84301795313053 969.4416333202213 96.3934273199563
    vertex 94.84301795313053 949.4416333202213 77.8934273199563
    vertex 94.84301795313053 969.4416333202213 77.8934273199563
  endloop
endfacet
facet normal 1.0 0.0 0.0
  outer loop
    vertex 94.84301795313053 949.4416333202213 77.8934273199563
    vertex 94.84301795313053 969.4416333202213 96.3934273199563
    vertex 94.84301795313053 949.4416333202213 96.3934273199563
  endloop
endfacet
facet normal 1.8814996476872398e-06 2.121446114178095e-06 -0.9999999999959799
  outer loop
    vertex 97.84301795313051 949.4416333202213 76.3934273199563
    vertex 74.34301795313054 969.4416333202213 76.3934273199563
    vertex 97.84301795313051 969.4416333202213 76.3934273199563
  endloop
endfacet
facet normal 1.8814996476872398e-06 2.121446114178095e-06 -0.9999999999959799
  outer loop
    vertex 74.34301795313054 969.4416333202213 76.3934273199563
    vertex 97.84301795313051 949.4416333202213 76.3934273199563
    vertex 92.51790084783713 951.337373399102 76.39342731995639
  endloop
endfacet
facet normal 1.8814996476872398e-06 2.121446114178095e-06 -0.9999999999959799
  outer loop
    vertex 92.51790084783713 951.337373399102 76.39342731995639
    vertex 97.84301795313051 949.4416333202213 76.3934273199563
    vertex 94.84301795313043 949.4416333202219 76.39342731995639
  endloop
endfacet
facet normal 1.8814996476872398e-06 2.121446114178095e-06 -0.9999999999959799
  outer loop
    vertex 94.84301795313043 949.4416333202219 76.39342731995639
    vertex 97.84301795313051 949.4416333202213 76.3934273199563
    vertex 82.20568405790735 933.9419950848363 76.39334769289133
  endloop
endfacet
facet normal 1.8814996476872398e-06 2.121446114178095e-06 -0.9999999999959799
  outer loop
    vertex 82.20568405790735 933.9419950848363 76.39334769289133
    vertex 97.84301795313051 949.4416333202213 76.3934273199563
    vertex 83.98715207118435 932.4871763030955 76.39334768994007
  endloop
endfacet
facet normal 1.8814996476872398e-06 2.121446114178095e-06 -0.9999999999959799
  outer loop
    vertex 92.51790084783713 951.337373399102 76.39342731995639
    vertex 74.34311598312347 940.3685103631575 76.39334770592144
    vertex 74.34301795313054 969.4416333202213 76.3934273199563
  endloop
endfacet
facet normal 1.8814996476872398e-06 2.121446114178095e-06 -0.9999999999959799
  outer loop
    vertex 74.34311598312347 940.3685103631575 76.39334770592144
    vertex 92.51790084783713 951.337373399102 76.39342731995639
    vertex 79.88056695261403 935.8377351637165 76.39334769289133
  endloop
endfacet
facet normal 4.3521163406003345e-07 0.0016668924419905677 0.9999986107337338
  outer loop
    vertex 97.54583376221848 947.242511653336 96.39709217447013
    vertex 97.84301795313051 949.4416333202213 96.39342731995606
    vertex 94.84301795313053 949.4416333202213 96.3934273199563
  endloop
endfacet
facet normal 4.3521163406003345e-07 0.0016668924419905677 0.9999986107337338
  outer loop
    vertex 97.84301795313051 949.4416333202213 96.39342731995606
    vertex 97.54583376221848 947.242511653336 96.39709217447013
    vertex 99.3429968305367 949.4415624363949 96.39342515324815
  endloop
endfacet
facet normal -1.0 0.0 0.0
  outer loop
    vertex 97.84301795313051 949.4416333202213 76.3934273199563
    vertex 97.84301795313051 969.4416333202213 73.3934273199563
    vertex 97.84301795313051 949.4416333202213 73.3934273199563
  endloop
endfacet
facet normal -1.0 0.0 0.0
  outer loop
    vertex 97.84301795313051 969.4416333202213 73.3934273199563
    vertex 97.84301795313051 949.4416333202213 76.3934273199563
    vertex 97.84301795313051 969.4416333202213 76.3934273199563
  endloop
endfacet
facet normal -0.6327916941680792 -0.7743220626323613 -0.00012293354966053457
  outer loop
    vertex 84.88649547564145 931.7521956587598 71.89334768994013
    vertex 74.34301795313054 940.368674789997 73.39338750494817
    vertex 74.34301795313054 940.368674789997 71.89338750494814
  endloop
endfacet
facet normal -0.6327916941680792 -0.7743220626323613 -0.00012293354966053457
  outer loop
    vertex 74.34301795313054 940.368674789997 73.39338750494817
    vertex 84.88649547564145 931.7521956587598 71.89334768994013
    vertex 83.98715207117989 932.4871763030936 73.3933476899413
  endloop
endfacet
facet normal -0.6327916941680792 -0.7743220626323613 -0.00012293354966053457
  outer loop
    vertex 83.98715207117989 932.4871763030936 73.3933476899413
    vertex 84.88649547564145 931.7521956587598 71.89334768994013
    vertex 83.98715207118435 932.4871763030955 76.39334768994007
  endloop
endfacet
facet normal -0.6327916941680792 -0.7743220626323613 -0.00012293354966053457
  outer loop
    vertex 83.98715207118435 932.4871763030955 76.39334768994007
    vertex 84.88649547564145 931.7521956587598 71.89334768994013
    vertex 84.8862208604987 931.751848607064 77.88794782534737
  endloop
endfacet
facet normal -0.6327916941680792 -0.7743220626323613 -0.00012293354966053457
  outer loop
    vertex 82.20568405790735 933.9419950848363 76.39334769289133
    vertex 84.8862208604987 931.751848607064 77.88794782534737
    vertex 82.20564443638591 933.9419432361215 77.88795275713427
  endloop
endfacet
facet normal -0.6327916941680792 -0.7743220626323613 -0.00012293354966053457
  outer loop
    vertex 84.8862208604987 931.751848607064 77.88794782534737
    vertex 82.20568405790735 933.9419950848363 76.39334769289133
    vertex 83.98715207118435 932.4871763030955 76.39334768994007
  endloop
endfacet
facet normal -0.6315692119347485 -0.775319499246758 -6.799909701954727e-05
  outer loop
    vertex 92.51790084783713 951.337373399102 76.39342731995639
    vertex 94.84301795313053 949.4416333202213 96.3934273199563
    vertex 92.51642606725103 951.3346437862838 96.38710748423487
  endloop
endfacet
facet normal -0.6315692119347485 -0.775319499246758 -6.799909701954727e-05
  outer loop
    vertex 94.84301795313053 949.4416333202213 96.3934273199563
    vertex 92.51790084783713 951.337373399102 76.39342731995639
    vertex 94.84301795313043 949.4416333202219 76.39342731995639
  endloop
endfacet
facet normal -0.6315692119347485 -0.775319499246758 -6.799909701954727e-05
  outer loop
    vertex 94.84301795313053 949.4416333202213 96.3934273199563
    vertex 94.84301795313043 949.4416333202219 76.39342731995639
    vertex 94.84301795313053 949.4416333202213 77.8934273199563
  endloop
endfacet
facet normal 0.7743144464004443 -0.6328010256742053 -1.1168949996955483e-06
  outer loop
    vertex 89.52544446041439 937.4285687088809 71.89342731995623
    vertex 84.8862208604987 931.751848607064 77.88794782534737
    vertex 84.88649547564145 931.7521956587598 71.89334768994013
  endloop
endfacet
facet normal 0.7743144464004443 -0.6328010256742053 -1.1168949996955483e-06
  outer loop
    vertex 84.8862208604987 931.751848607064 77.88794782534737
    vertex 89.52544446041439 937.4285687088809 71.89342731995623
    vertex 99.34301795313054 949.4416333202213 71.8934273199563
  endloop
endfacet
facet normal 0.7743144464004443 -0.6328010256742053 -1.1168949996955483e-06
  outer loop
    vertex 84.8862208604987 931.751848607064 77.88794782534737
    vertex 99.34301795313054 949.4416333202213 71.8934273199563
    vertex 99.3429968305367 949.4415624363949 96.39342515324815
  endloop
endfacet
facet normal 0.7743144464004443 -0.6328010256742053 -1.1168949996955483e-06
  outer loop
    vertex 84.8862208604987 931.751848607064 77.88794782534737
    vertex 99.3429968305367 949.4415624363949 96.39342515324815
    vertex 97.54583376221848 947.242511653336 96.39709217447013
  endloop
endfacet
facet normal 9.571778116156736e-08 -1.8457327066847019e-06 0.999999999998292
  outer loop
    vertex 74.34301795313054 940.368674789997 73.39338750494817
    vertex 97.84301795313051 969.4416333202213 73.3934273199563
    vertex 74.34301795313054 969.4416333202213 73.3934273199563
  endloop
endfacet
facet normal 9.571778116156736e-08 -1.8457327066847019e-06 0.999999999998292
  outer loop
    vertex 97.84301795313051 969.4416333202213 73.3934273199563
    vertex 74.34301795313054 940.368674789997 73.39338750494817
    vertex 97.84301795313051 949.4416333202213 73.3934273199563
  endloop
endfacet
facet normal 9.571778116156736e-08 -1.8457327066847019e-06 0.999999999998292
  outer loop
    vertex 97.84301795313051 949.4416333202213 73.3934273199563
    vertex 74.34301795313054 940.368674789997 73.39338750494817
    vertex 83.98715207117989 932.4871763030936 73.3933476899413
  endloop
endfacet
facet normal -0.9999999994646946 -1.6858248315521566e-06 -3.267673163757797e-05
  outer loop
    vertex 74.34301795313054 940.368390522363 77.89334768994033
    vertex 74.34301795313054 969.4416333202213 76.3934273199563
    vertex 74.34311598312347 940.3685103631575 76.39334770592144
  endloop
endfacet
facet normal -0.9999999994646946 -1.6858248315521566e-06 -3.267673163757797e-05
  outer loop
    vertex 74.34301795313054 969.4416333202213 76.3934273199563
    vertex 74.34301795313054 940.368390522363 77.89334768994033
    vertex 74.34301795313054 969.4416333202213 77.8934273199563
  endloop
endfacet
facet normal -0.6332451364605117 -0.7739512726909746 -0.00015700040980302308
  outer loop
    vertex 74.34311598312347 940.3685103631575 76.39334770592144
    vertex 78.7196217266099 936.7875794161718 77.88795275713427
    vertex 74.34301795313054 940.368390522363 77.89334768994033
  endloop
endfacet
facet normal -0.6332451364605117 -0.7739512726909746 -0.00015700040980302308
  outer loop
    vertex 78.7196217266099 936.7875794161718 77.88795275713427
    vertex 74.34311598312347 940.3685103631575 76.39334770592144
    vertex 79.88056695261403 935.8377351637165 76.39334769289133
  endloop
endfacet
facet normal -0.6332451364605117 -0.7739512726909746 -0.00015700040980302308
  outer loop
    vertex 78.7196217266099 936.7875794161718 77.88795275713427
    vertex 79.88056695261403 935.8377351637165 76.39334769289133
    vertex 79.87909217202794 935.8350055508985 96.38702785716981
  endloop
endfacet
facet normal -0.6332451364605117 -0.7739512726909746 -0.00015700040980302308
  outer loop
    vertex 79.87909217202794 935.8350055508985 96.38702785716981
    vertex 78.71815070293309 936.7848544111866 96.38845892142459
    vertex 78.7196217266099 936.7875794161718 77.88795275713427
  endloop
endfacet
endsolid 3Dsprt box 24
