solid 3Dsprt box 24
facet normal -1.0 1.152096797150455e-09 3.864538072798154e-27
  outer loop
    vertex 87.55073453717388 1014.170778150053 77.40481558885827
    vertex 87.55073452021672 999.4522598335459 77.40750679970823
    vertex 87.55073453717388 1014.170778150053 95.90481558885828
  endloop
endfacet
facet normal -1.0 1.152096797150455e-09 3.864538072798154e-27
  outer loop
    vertex 87.55073452021672 999.4522598335459 95.90750679970823
    vertex 87.55073453717388 1014.170778150053 95.90481558885828
    vertex 87.55073452021672 999.4522598335459 77.40750679970823
  endloop
endfacet
facet normal -9.769404420108046e-05 0.00012414271579797056 0.99999998752223
  outer loop
    vertex 87.55073453717388 1014.170778150053 95.90481558885828
    vertex 86.7241426343372 1017.5592493674834 95.9011869639868
    vertex 72.92586727001925 1032.1090387425804 95.9025384011765
  endloop
endfacet
facet normal -9.769404420108046e-05 0.00012414271579797056 0.99999998752223
  outer loop
    vertex 74.0868087391141 1033.0588876028687 95.90110733692174
    vertex 72.92586727001925 1032.1090387425804 95.9025384011765
    vertex 86.7241426343372 1017.5592493674834 95.9011869639868
  endloop
endfacet
facet normal -9.769404420108046e-05 0.00012414271579797056 0.99999998752223
  outer loop
    vertex 89.0507345202167 999.4522598335459 95.90750679970823
    vertex 89.0507345202167 1019.4522598335459 95.90750679970823
    vertex 87.55073452021672 999.4522598335459 95.90750679970823
  endloop
endfacet
facet normal -9.769404420108046e-05 0.00012414271579797056 0.99999998752223
  outer loop
    vertex 87.55073453717388 1014.170778150053 95.90481558885828
    vertex 87.55073452021672 999.4522598335459 95.90750679970823
    vertex 89.0507345202167 1019.4522598335459 95.90750679970823
  endloop
endfacet
facet normal -9.769404420108046e-05 0.00012414271579797056 0.99999998752223
  outer loop
    vertex 86.7241426343372 1017.5592493674834 95.9011869639868
    vertex 87.55073453717388 1014.170778150053 95.90481558885828
    vertex 89.0507345202167 1019.4522598335459 95.90750679970823
  endloop
endfacet
facet normal 0.7750390791418773 0.631913304936647 -2.9102499638405414e-05
  outer loop
    vertex 74.0882835197002 1033.0561579900507 75.90742717264327
    vertex 74.0868087391141 1033.0588876028687 95.90110733692174
    vertex 86.72561741492329 1017.5565197546651 75.90750679970833
  endloop
endfacet
facet normal 0.7750390791418773 0.631913304936647 -2.9102499638405414e-05
  outer loop
    vertex 86.7241426343372 1017.5592493674834 95.9011869639868
    vertex 86.72561741492329 1017.5565197546651 75.90750679970833
    vertex 74.0868087391141 1033.0588876028687 95.90110733692174
  endloop
endfacet
facet normal -1.177379967786021e-16 -1.0 8.809596208167091e-17
  outer loop
    vertex 87.55073452021672 999.4522598335459 95.90750679970823
    vertex 87.55073452021672 999.4522598335459 77.40750679970823
    vertex 89.0507345202167 999.4522598335459 95.90750679970823
  endloop
endfacet
facet normal -1.177379967786021e-16 -1.0 8.809596208167091e-17
  outer loop
    vertex 92.0507345202167 999.4522598335459 95.907506799708
    vertex 92.0507345202167 999.4522598335459 77.40750679970823
    vertex 93.55073452021671 999.4522598335459 95.907506799708
  endloop
endfacet
facet normal -1.177379967786021e-16 -1.0 8.809596208167091e-17
  outer loop
    vertex 92.0507345202167 999.4522598335459 75.90750679970823
    vertex 93.55073452021671 999.4522598335459 95.907506799708
    vertex 92.0507345202167 999.4522598335459 77.40750679970823
  endloop
endfacet
facet normal -1.177379967786021e-16 -1.0 8.809596208167091e-17
  outer loop
    vertex 92.0507345202167 999.4522598335459 72.90750679970823
    vertex 93.55073452021671 999.4522598335459 95.907506799708
    vertex 92.0507345202167 999.4522598335459 75.90750679970823
  endloop
endfacet
facet normal -1.177379967786021e-16 -1.0 8.809596208167091e-17
  outer loop
    vertex 68.55073452021671 999.4522598335459 72.90750679970823
    vertex 68.55073452021671 999.4522598335459 71.40750679970823
    vertex 92.0507345202167 999.4522598335459 72.90750679970823
  endloop
endfacet
facet normal -1.177379967786021e-16 -1.0 8.809596208167091e-17
  outer loop
    vertex 93.55073452021671 999.4522598335459 71.40750679970823
    vertex 92.0507345202167 999.4522598335459 72.90750679970823
    vertex 68.55073452021671 999.4522598335459 71.40750679970823
  endloop
endfacet
facet normal -1.177379967786021e-16 -1.0 8.809596208167091e-17
  outer loop
    vertex 93.55073452021671 999.4522598335459 95.907506799708
    vertex 92.0507345202167 999.4522598335459 72.90750679970823
    vertex 93.55073452021671 999.4522598335459 71.40750679970823
  endloop
endfacet
facet normal -1.177379967786021e-16 -1.0 8.809596208167091e-17
  outer loop
    vertex 68.55073452021671 999.4522598335459 77.40750679970823
    vertex 68.55073452021671 999.4522598335459 75.90750679970823
    vertex 87.55073452021672 999.4522598335459 77.40750679970823
  endloop
endfacet
facet normal -1.177379967786021e-16 -1.0 8.809596208167091e-17
  outer loop
    vertex 92.0507345202167 999.4522598335459 75.90750679970823
    vertex 87.55073452021672 999.4522598335459 77.40750679970823
    vertex 68.55073452021671 999.4522598335459 75.90750679970823
  endloop
endfacet
facet normal -1.177379967786021e-16 -1.0 8.809596208167091e-17
  outer loop
    vertex 89.0507345202167 999.4522598335459 77.40750679970823
    vertex 87.55073452021672 999.4522598335459 77.40750679970823
    vertex 92.0507345202167 999.4522598335459 75.90750679970823
  endloop
endfacet
facet normal -1.177379967786021e-16 -1.0 8.809596208167091e-17
  outer loop
    vertex 89.0507345202167 999.4522598335459 95.90750679970823
    vertex 87.55073452021672 999.4522598335459 77.40750679970823
    vertex 89.0507345202167 999.4522598335459 77.40750679970823
  endloop
endfacet
facet normal -1.177379967786021e-16 -1.0 8.809596208167091e-17
  outer loop
    vertex 92.0507345202167 999.4522598335459 77.40750679970823
    vertex 89.0507345202167 999.4522598335459 77.40750679970823
    vertex 92.0507345202167 999.4522598335459 75.90750679970823
  endloop
endfacet
facet normal 1.0 0.0 0.0
  outer loop
    vertex 93.55073452021671 999.4522598335459 71.40750679970823
    vertex 93.55073452021671 1019.4522598335459 71.40750679970823
    vertex 93.55073452021671 999.4522598335459 95.907506799708
  endloop
endfacet
facet normal 1.0 0.0 0.0
  outer loop
    vertex 93.55071339762287 1019.4523307173723 95.90750463300009
    vertex 93.55073452021671 999.4522598335459 95.907506799708
    vertex 93.55073452021671 1019.4522598335459 71.40750679970823
  endloop
endfacet
facet normal -1.0 0.0 0.0
  outer loop
    vertex 68.55073452021671 1028.5252183637701 71.40746698470006
    vertex 68.55073452021671 999.4522598335459 71.40750679970823
    vertex 68.55073452021671 1028.5252183637701 72.9074669847001
  endloop
endfacet
facet normal -1.0 0.0 0.0
  outer loop
    vertex 68.55073452021671 999.4522598335459 72.90750679970823
    vertex 68.55073452021671 1028.5252183637701 72.9074669847001
    vertex 68.55073452021671 999.4522598335459 71.40750679970823
  endloop
endfacet
facet normal -0.42945963304194334 0.5261235876388317 0.7340016308684361
  outer loop
    vertex 89.0507345202167 1019.4522598335459 95.90750679970823
    vertex 91.75355032930466 1021.6513815004312 95.91117165422207
    vertex 76.41336100347208 1034.9519499176456 77.4020322368862
  endloop
endfacet
facet normal -0.42945963304194334 0.5261235876388317 0.7340016308684361
  outer loop
    vertex 79.09393742758486 1037.1420445467031 77.4020273050993
    vertex 76.41336100347208 1034.9519499176456 77.4020322368862
    vertex 91.75355032930466 1021.6513815004312 95.91117165422207
  endloop
endfacet
facet normal -0.7750470251423368 -0.6319035595490312 1.572507651419112e-05
  outer loop
    vertex 72.92733829369607 1032.1063137375954 77.4020322368862
    vertex 87.55073453717388 1014.170778150053 77.40481558885827
    vertex 72.92586727001925 1032.1090387425804 95.9025384011765
  endloop
endfacet
facet normal -0.7750470251423368 -0.6319035595490312 1.572507651419112e-05
  outer loop
    vertex 87.55073453717388 1014.170778150053 95.90481558885828
    vertex 72.92586727001925 1032.1090387425804 95.9025384011765
    vertex 87.55073453717388 1014.170778150053 77.40481558885827
  endloop
endfacet
facet normal 0.0 -2.7755575615628914e-17 1.0
  outer loop
    vertex 89.0507345202167 999.4522598335459 77.40750679970823
    vertex 92.0507345202167 999.4522598335459 77.40750679970823
    vertex 89.0507345202167 1019.4522598335459 77.40750679970823
  endloop
endfacet
facet normal 0.0 -2.7755575615628914e-17 1.0
  outer loop
    vertex 92.0507345202167 1019.4522598335459 77.40750679970823
    vertex 89.0507345202167 1019.4522598335459 77.40750679970823
    vertex 92.0507345202167 999.4522598335459 77.40750679970823
  endloop
endfacet
facet normal -1.0 0.0 0.0
  outer loop
    vertex 92.0507345202167 1019.4522598335459 77.40750679970823
    vertex 92.0507345202167 999.4522598335459 77.40750679970823
    vertex 92.0507345202167 1019.4522598335459 95.907506799708
  endloop
endfacet
facet normal -1.0 0.0 0.0
  outer loop
    vertex 92.0507345202167 999.4522598335459 95.907506799708
    vertex 92.0507345202167 1019.4522598335459 95.907506799708
    vertex 92.0507345202167 999.4522598335459 77.40750679970823
  endloop
endfacet
facet normal -0.7750391131243687 -0.6319132639274097 6.162562538868617e-09
  outer loop
    vertex 76.41340062499351 1034.9518980689309 75.90742717264327
    vertex 89.05073452021661 1019.4522598335453 75.90750679970833
    vertex 76.41336100347208 1034.9519499176456 77.4020322368862
  endloop
endfacet
facet normal -0.7750391131243687 -0.6319132639274097 6.162562538868617e-09
  outer loop
    vertex 89.0507345202167 1019.4522598335459 77.40750679970823
    vertex 76.41336100347208 1034.9519499176456 77.4020322368862
    vertex 89.05073452021661 1019.4522598335453 75.90750679970833
  endloop
endfacet
facet normal -0.7750391131243687 -0.6319132639274097 6.162562538868617e-09
  outer loop
    vertex 89.0507345202167 1019.4522598335459 95.90750679970823
    vertex 76.41336100347208 1034.9519499176456 77.4020322368862
    vertex 89.0507345202167 1019.4522598335459 77.40750679970823
  endloop
endfacet
facet normal 8.337453838020553e-05 0.00011821605180647951 0.9999999895368258
  outer loop
    vertex 68.55073452021671 999.4522598335459 77.40750679970823
    vertex 87.55073452021672 999.4522598335459 77.40750679970823
    vertex 68.55073452021671 1028.5255026314042 77.40742716969226
  endloop
endfacet
facet normal 8.337453838020553e-05 0.00011821605180647951 0.9999999895368258
  outer loop
    vertex 87.55073453717388 1014.170778150053 77.40481558885827
    vertex 68.55073452021671 1028.5255026314042 77.40742716969226
    vertex 87.55073452021672 999.4522598335459 77.40750679970823
  endloop
endfacet
facet normal 8.337453838020553e-05 0.00011821605180647951 0.9999999895368258
  outer loop
    vertex 72.92733829369607 1032.1063137375954 77.4020322368862
    vertex 68.55073452021671 1028.5255026314042 77.40742716969226
    vertex 87.55073453717388 1014.170778150053 77.40481558885827
  endloop
endfacet
facet normal 3.215237671117881e-07 -1.4974542931860524e-06 -0.9999999999988272
  outer loop
    vertex 93.55073452021671 999.4522598335459 71.40750679970823
    vertex 68.55073452021671 999.4522598335459 71.40750679970823
    vertex 93.55073452021671 1019.4522598335459 71.40750679970823
  endloop
endfacet
facet normal 3.215237671117881e-07 -1.4974542931860524e-06 -0.9999999999988272
  outer loop
    vertex 68.55073452021671 1028.5252183637701 71.40746698470006
    vertex 93.55073452021671 1019.4522598335459 71.40750679970823
    vertex 68.55073452021671 999.4522598335459 71.40750679970823
  endloop
endfacet
facet normal 3.215237671117881e-07 -1.4974542931860524e-06 -0.9999999999988272
  outer loop
    vertex 83.73316102750056 1031.4653244448862 71.40750679970816
    vertex 93.55073452021671 1019.4522598335459 71.40750679970823
    vertex 68.55073452021671 1028.5252183637701 71.40746698470006
  endloop
endfacet
facet normal 3.215237671117881e-07 -1.4974542931860524e-06 -0.9999999999988272
  outer loop
    vertex 79.09421204272762 1037.1416974950073 71.40742716969206
    vertex 83.73316102750056 1031.4653244448862 71.40750679970816
    vertex 68.55073452021671 1028.5252183637701 71.40746698470006
  endloop
endfacet
facet normal 0.0 -1.0 -2.7755575615628914e-17
  outer loop
    vertex 89.0507345202167 1019.4522598335459 95.90750679970823
    vertex 89.0507345202167 1019.4522598335459 77.40750679970823
    vertex 92.0507345202167 1019.4522598335459 95.907506799708
  endloop
endfacet
facet normal 0.0 -1.0 -2.7755575615628914e-17
  outer loop
    vertex 92.0507345202167 1019.4522598335459 77.40750679970823
    vertex 92.0507345202167 1019.4522598335459 95.907506799708
    vertex 89.0507345202167 1019.4522598335459 77.40750679970823
  endloop
endfacet
facet normal -0.7743140639553064 -0.6328014936463231 3.788546069551561e-13
  outer loop
    vertex 78.19486863826606 1036.4067168506735 72.90742716969322
    vertex 92.0507345202167 1019.4522598335459 72.90750679970823
    vertex 78.19486863827052 1036.4067168506717 75.90742716969199
  endloop
endfacet
facet normal -0.7743140639553064 -0.6328014936463231 3.788546069551561e-13
  outer loop
    vertex 92.0507345202167 1019.4522598335459 75.90750679970823
    vertex 78.19486863827052 1036.4067168506717 75.90742716969199
    vertex 92.0507345202167 1019.4522598335459 72.90750679970823
  endloop
endfacet
facet normal 1.0 0.0 0.0
  outer loop
    vertex 89.0507345202167 999.4522598335459 77.40750679970823
    vertex 89.0507345202167 1019.4522598335459 77.40750679970823
    vertex 89.0507345202167 999.4522598335459 95.90750679970823
  endloop
endfacet
facet normal 1.0 0.0 0.0
  outer loop
    vertex 89.0507345202167 1019.4522598335459 95.90750679970823
    vertex 89.0507345202167 999.4522598335459 95.90750679970823
    vertex 89.0507345202167 1019.4522598335459 77.40750679970823
  endloop
endfacet
facet normal 1.8814996476872398e-06 -2.121446114316873e-06 -0.9999999999959799
  outer loop
    vertex 92.0507345202167 999.4522598335459 75.90750679970823
    vertex 68.55073452021671 999.4522598335459 75.90750679970823
    vertex 92.0507345202167 1019.4522598335459 75.90750679970823
  endloop
endfacet
facet normal 1.8814996476872398e-06 -2.121446114316873e-06 -0.9999999999959799
  outer loop
    vertex 86.72561741492329 1017.5565197546651 75.90750679970833
    vertex 92.0507345202167 1019.4522598335459 75.90750679970823
    vertex 68.55073452021671 999.4522598335459 75.90750679970823
  endloop
endfacet
facet normal 1.8814996476872398e-06 -2.121446114316873e-06 -0.9999999999959799
  outer loop
    vertex 89.05073452021661 1019.4522598335453 75.90750679970833
    vertex 92.0507345202167 1019.4522598335459 75.90750679970823
    vertex 86.72561741492329 1017.5565197546651 75.90750679970833
  endloop
endfacet
facet normal 1.8814996476872398e-06 -2.121446114316873e-06 -0.9999999999959799
  outer loop
    vertex 76.41340062499351 1034.9518980689309 75.90742717264327
    vertex 92.0507345202167 1019.4522598335459 75.90750679970823
    vertex 89.05073452021661 1019.4522598335453 75.90750679970833
  endloop
endfacet
facet normal 1.8814996476872398e-06 -2.121446114316873e-06 -0.9999999999959799
  outer loop
    vertex 78.19486863827052 1036.4067168506717 75.90742716969199
    vertex 92.0507345202167 1019.4522598335459 75.90750679970823
    vertex 76.41340062499351 1034.9518980689309 75.90742717264327
  endloop
endfacet
facet normal 1.8814996476872398e-06 -2.121446114316873e-06 -0.9999999999959799
  outer loop
    vertex 68.55073452021671 999.4522598335459 75.90750679970823
    vertex 68.55083255020963 1028.5253827906097 75.90742718567337
    vertex 86.72561741492329 1017.5565197546651 75.90750679970833
  endloop
endfacet
facet normal 1.8814996476872398e-06 -2.121446114316873e-06 -0.9999999999959799
  outer loop
    vertex 74.0882835197002 1033.0561579900507 75.90742717264327
    vertex 86.72561741492329 1017.5565197546651 75.90750679970833
    vertex 68.55083255020963 1028.5253827906097 75.90742718567337
  endloop
endfacet
facet normal -1.0 0.0 0.0
  outer loop
    vertex 92.0507345202167 1019.4522598335459 72.90750679970823
    vertex 92.0507345202167 999.4522598335459 72.90750679970823
    vertex 92.0507345202167 1019.4522598335459 75.90750679970823
  endloop
endfacet
facet normal -1.0 0.0 0.0
  outer loop
    vertex 92.0507345202167 999.4522598335459 75.90750679970823
    vertex 92.0507345202167 1019.4522598335459 75.90750679970823
    vertex 92.0507345202167 999.4522598335459 72.90750679970823
  endloop
endfacet
facet normal -0.6327916941680792 0.7743220626323613 -0.00012293354966064202
  outer loop
    vertex 68.55073452021671 1028.5252183637701 71.40746698470006
    vertex 68.55073452021671 1028.5252183637701 72.9074669847001
    vertex 79.09421204272762 1037.1416974950073 71.40742716969206
  endloop
endfacet
facet normal -0.6327916941680792 0.7743220626323613 -0.00012293354966064202
  outer loop
    vertex 78.19486863826606 1036.4067168506735 72.90742716969322
    vertex 79.09421204272762 1037.1416974950073 71.40742716969206
    vertex 68.55073452021671 1028.5252183637701 72.9074669847001
  endloop
endfacet
facet normal -0.6327916941680792 0.7743220626323613 -0.00012293354966064202
  outer loop
    vertex 78.19486863827052 1036.4067168506717 75.90742716969199
    vertex 79.09421204272762 1037.1416974950073 71.40742716969206
    vertex 78.19486863826606 1036.4067168506735 72.90742716969322
  endloop
endfacet
facet normal -0.6327916941680792 0.7743220626323613 -0.00012293354966064202
  outer loop
    vertex 79.09393742758486 1037.1420445467031 77.4020273050993
    vertex 79.09421204272762 1037.1416974950073 71.40742716969206
    vertex 78.19486863827052 1036.4067168506717 75.90742716969199
  endloop
endfacet
facet normal -0.6327916941680792 0.7743220626323613 -0.00012293354966064202
  outer loop
    vertex 76.41336100347208 1034.9519499176456 77.4020322368862
    vertex 79.09393742758486 1037.1420445467031 77.4020273050993
    vertex 76.41340062499351 1034.9518980689309 75.90742717264327
  endloop
endfacet
facet normal -0.6327916941680792 0.7743220626323613 -0.00012293354966064202
  outer loop
    vertex 78.19486863827052 1036.4067168506717 75.90742716969199
    vertex 76.41340062499351 1034.9518980689309 75.90742717264327
    vertex 79.09393742758486 1037.1420445467031 77.4020273050993
  endloop
endfacet
facet normal -0.6315692119347485 0.775319499246758 -6.799909701965487e-05
  outer loop
    vertex 86.7241426343372 1017.5592493674834 95.9011869639868
    vertex 89.0507345202167 1019.4522598335459 95.90750679970823
    vertex 86.72561741492329 1017.5565197546651 75.90750679970833
  endloop
endfacet
facet normal -0.6315692119347485 0.775319499246758 -6.799909701965487e-05
  outer loop
    vertex 89.05073452021661 1019.4522598335453 75.90750679970833
    vertex 86.72561741492329 1017.5565197546651 75.90750679970833
    vertex 89.0507345202167 1019.4522598335459 95.90750679970823
  endloop
endfacet
facet normal -0.6315692119347485 0.775319499246758 -6.799909701965487e-05
  outer loop
    vertex 89.0507345202167 1019.4522598335459 77.40750679970823
    vertex 89.05073452021661 1019.4522598335453 75.90750679970833
    vertex 89.0507345202167 1019.4522598335459 95.90750679970823
  endloop
endfacet
facet normal 0.7743144464004443 0.6328010256742053 -1.1168949997833672e-06
  outer loop
    vertex 79.09421204272762 1037.1416974950073 71.40742716969206
    vertex 79.09393742758486 1037.1420445467031 77.4020273050993
    vertex 83.73316102750056 1031.4653244448862 71.40750679970816
  endloop
endfacet
facet normal 0.7743144464004443 0.6328010256742053 -1.1168949997833672e-06
  outer loop
    vertex 93.55073452021671 1019.4522598335459 71.40750679970823
    vertex 83.73316102750056 1031.4653244448862 71.40750679970816
    vertex 79.09393742758486 1037.1420445467031 77.4020273050993
  endloop
endfacet
facet normal 0.7743144464004443 0.6328010256742053 -1.1168949997833672e-06
  outer loop
    vertex 93.55071339762287 1019.4523307173723 95.90750463300009
    vertex 93.55073452021671 1019.4522598335459 71.40750679970823
    vertex 79.09393742758486 1037.1420445467031 77.4020273050993
  endloop
endfacet
facet normal 0.7743144464004443 0.6328010256742053 -1.1168949997833672e-06
  outer loop
    vertex 91.75355032930466 1021.6513815004312 95.91117165422207
    vertex 93.55071339762287 1019.4523307173723 95.90750463300009
    vertex 79.09393742758486 1037.1420445467031 77.4020273050993
  endloop
endfacet
facet normal 9.571778116156736e-08 1.8457327068234797e-06 0.999999999998292
  outer loop
    vertex 68.55073452021671 999.4522598335459 72.90750679970823
    vertex 92.0507345202167 999.4522598335459 72.90750679970823
    vertex 68.55073452021671 1028.5252183637701 72.9074669847001
  endloop
endfacet
facet normal 9.571778116156736e-08 1.8457327068234797e-06 0.999999999998292
  outer loop
    vertex 92.0507345202167 1019.4522598335459 72.90750679970823
    vertex 68.55073452021671 1028.5252183637701 72.9074669847001
    vertex 92.0507345202167 999.4522598335459 72.90750679970823
  endloop
endfacet
facet normal 9.571778116156736e-08 1.8457327068234797e-06 0.999999999998292
  outer loop
    vertex 78.19486863826606 1036.4067168506735 72.90742716969322
    vertex 68.55073452021671 1028.5252183637701 72.9074669847001
    vertex 92.0507345202167 1019.4522598335459 72.90750679970823
  endloop
endfacet
facet normal -0.9999999994646946 1.685824831552152e-06 -3.267673163757797e-05
  outer loop
    vertex 68.55083255020963 1028.5253827906097 75.90742718567337
    vertex 68.55073452021671 999.4522598335459 75.90750679970823
    vertex 68.55073452021671 1028.5255026314042 77.40742716969226
  endloop
endfacet
facet normal -0.9999999994646946 1.685824831552152e-06 -3.267673163757797e-05
  outer loop
    vertex 68.55073452021671 999.4522598335459 77.40750679970823
    vertex 68.55073452021671 1028.5255026314042 77.40742716969226
    vertex 68.55073452021671 999.4522598335459 75.90750679970823
  endloop
endfacet
facet normal -0.6332451364605117 0.7739512726909746 -0.00015700040980313047
  outer loop
    vertex 68.55073452021671 1028.5255026314042 77.40742716969226
    vertex 72.92733829369607 1032.1063137375954 77.4020322368862
    vertex 68.55083255020963 1028.5253827906097 75.90742718567337
  endloop
endfacet
facet normal -0.6332451364605117 0.7739512726909746 -0.00015700040980313047
  outer loop
    vertex 74.0882835197002 1033.0561579900507 75.90742717264327
    vertex 68.55083255020963 1028.5253827906097 75.90742718567337
    vertex 72.92733829369607 1032.1063137375954 77.4020322368862
  endloop
endfacet
facet normal -0.6332451364605117 0.7739512726909746 -0.00015700040980313047
  outer loop
    vertex 74.0868087391141 1033.0588876028687 95.90110733692174
    vertex 74.0882835197002 1033.0561579900507 75.90742717264327
    vertex 72.92733829369607 1032.1063137375954 77.4020322368862
  endloop
endfacet
facet normal -0.6332451364605117 0.7739512726909746 -0.00015700040980313047
  outer loop
    vertex 72.92733829369607 1032.1063137375954 77.4020322368862
    vertex 72.92586727001925 1032.1090387425804 95.9025384011765
    vertex 74.0868087391141 1033.0588876028687 95.90110733692174
  endloop
endfacet
facet normal 7.222346914116766e-07 5.4168079210920794e-08 0.9999999999997378
  outer loop
    vertex 92.0507345202167 999.4522598335459 95.907506799708
    vertex 93.55073452021671 999.4522598335459 95.907506799708
    vertex 92.0507345202167 1019.4522598335459 95.907506799708
  endloop
endfacet
facet normal 7.222346914116766e-07 5.4168079210920794e-08 0.9999999999997378
  outer loop
    vertex 93.55071339762287 1019.4523307173723 95.90750463300009
    vertex 92.0507345202167 1019.4522598335459 95.907506799708
    vertex 93.55073452021671 999.4522598335459 95.907506799708
  endloop
endfacet
facet normal 4.3521163406003345e-07 -0.001666892441990429 0.9999986107337338
  outer loop
    vertex 89.0507345202167 1019.4522598335459 95.90750679970823
    vertex 92.0507345202167 1019.4522598335459 95.907506799708
    vertex 91.75355032930466 1021.6513815004312 95.91117165422207
  endloop
endfacet
facet normal 4.3521163406003345e-07 -0.001666892441990429 0.9999986107337338
  outer loop
    vertex 93.55071339762287 1019.4523307173723 95.90750463300009
    vertex 91.75355032930466 1021.6513815004312 95.91117165422207
    vertex 92.0507345202167 1019.4522598335459 95.907506799708
  endloop
endfacet
endsolid 3Dsprt box 24
