solid 3Dsprt box 24
facet normal -7.31115947651149e-05 0.0007547886555750209 0.9999997124743487
  outer loop
    vertex 508.4767546901962 920.6107885506146 395.5075516491849
    vertex 506.11129613739666 921.6699167021216 395.5002244377232
    vertex 506.1284864348654 918.6838958591677 395.502311197613
  endloop
endfacet
facet normal -7.31115947651149e-05 0.0007547886555750209 0.9999997124743487
  outer loop
    vertex 506.11129613739666 921.6699167021216 395.5002244377232
    vertex 508.4767546901962 920.6107885506146 395.5075516491849
    vertex 506.3853572351005 923.1698958412895 395.5000776137504
  endloop
endfacet
facet normal -7.31115947651149e-05 0.0007547886555750209 0.9999997124743487
  outer loop
    vertex 506.11129613739666 921.6699167021216 395.5002244377232
    vertex 506.3853572351005 923.1698958412895 395.5000776137504
    vertex 486.11129613742963 921.6698803225602 395.5002244377681
  endloop
endfacet
facet normal -7.31115947651149e-05 0.0007547886555750209 0.9999997124743487
  outer loop
    vertex 486.11129613742963 921.6698803225602 395.5002244377681
    vertex 506.3853572351005 923.1698958412895 395.5000776137504
    vertex 506.1113642927946 923.1698955796508 395.5002206008547
  endloop
endfacet
facet normal -7.31115947651149e-05 0.0007547886555750209 0.9999997124743487
  outer loop
    vertex 486.11129613742963 921.6698803225602 395.5002244377681
    vertex 506.1113642927946 923.1698955796508 395.5002206008547
    vertex 486.111293408963 923.1698803225568 395.50022276758443
  endloop
endfacet
facet normal -0.0003608042207471357 0.9999998670127693 -0.00036850340339370446
  outer loop
    vertex 486.1113634449108 918.6698036498987 395.49568080673373
    vertex 506.1110077216697 918.6702021984655 377.00016681778567
    vertex 486.11130159435976 918.6698597236349 377.0002277781469
  endloop
endfacet
facet normal -0.0003608042207471357 0.9999998670127693 -0.00036850340339370446
  outer loop
    vertex 506.1110077216697 918.6702021984655 377.00016681778567
    vertex 486.1113634449108 918.6698036498987 395.49568080673373
    vertex 506.1284864348654 918.6838958591677 395.502311197613
  endloop
endfacet
facet normal -0.9999959192764095 -0.002817306316531708 0.00047351414709010607
  outer loop
    vertex 506.11129613739666 921.6699167021216 395.5002244377232
    vertex 506.1110077216697 918.6702021984655 377.00016681778567
    vertex 506.1284864348654 918.6838958591677 395.502311197613
  endloop
endfacet
facet normal -0.9999959192764095 -0.002817306316531708 0.00047351414709010607
  outer loop
    vertex 506.1110077216697 918.6702021984655 377.00016681778567
    vertex 506.11129613739666 921.6699167021216 395.5002244377232
    vertex 506.11129340891114 921.6698943392878 377.000234082928
  endloop
endfacet
facet normal -0.7736009127166923 -0.6336731237342056 1.004166062665207e-05
  outer loop
    vertex 500.9746558020352 917.1700579151183 395.49408639581276
    vertex 514.9672771397304 900.0872478631163 376.9946818820315
    vertex 514.9695890071562 900.0852363767411 395.49518805169345
  endloop
endfacet
facet normal -0.7736009127166923 -0.6336731237342056 1.004166062665207e-05
  outer loop
    vertex 514.9672771397304 900.0872478631163 376.9946818820315
    vertex 500.9746558020352 917.1700579151183 395.49408639581276
    vertex 500.9746894434185 917.1700280354997 376.99943205786684
  endloop
endfacet
facet normal -0.7736106206185076 -0.6336602426410723 0.0011421743758809348
  outer loop
    vertex 506.1110077216697 918.6702021984655 377.00016681778567
    vertex 518.7813649103517 903.2015853423503 377.0031765730989
    vertex 506.1284864348654 918.6838958591677 395.502311197613
  endloop
endfacet
facet normal -0.7736106206185076 -0.6336602426410723 0.0011421743758809348
  outer loop
    vertex 518.7813649103517 903.2015853423503 377.0031765730989
    vertex 506.1110077216697 918.6702021984655 377.00016681778567
    vertex 518.7844641214677 903.197805924666 375.50015824972877
  endloop
endfacet
facet normal -0.7736106206185076 -0.6336602426410723 0.0011421743758809348
  outer loop
    vertex 518.7844641214677 903.197805924666 375.50015824972877
    vertex 506.1110077216697 918.6702021984655 377.00016681778567
    vertex 506.11102004577316 918.6702120575753 375.500193231984
  endloop
endfacet
facet normal -0.001285039826214881 -0.999999174196148 1.672325584631629e-05
  outer loop
    vertex 512.5761975883337 898.1358261903966 375.5000030125557
    vertex 486.1113388834102 898.1698597236814 377.00025060399116
    vertex 486.1113388834099 898.1698580534976 375.500250603992
  endloop
endfacet
facet normal -0.001285039826214881 -0.999999174196148 1.672325584631629e-05
  outer loop
    vertex 486.1113388834102 898.1698597236814 377.00025060399116
    vertex 512.5761975883337 898.1358261903966 375.5000030125557
    vertex 512.5762220618177 898.1358746559666 376.99760916479823
  endloop
endfacet
facet normal -1.2177732835851585e-06 9.434206337582439e-08 -0.999999999999254
  outer loop
    vertex 486.1113388834087 898.1698530429466 371.00025060399486
    vertex 521.1363443129117 905.1203039373912 371.00016733518953
    vertex 512.6317286328059 898.1699012701014 371.00018903009993
  endloop
endfacet
facet normal -1.2177732835851585e-06 9.434206337582439e-08 -0.999999999999254
  outer loop
    vertex 521.1363443129117 905.1203039373912 371.00016733518953
    vertex 486.1113388834087 898.1698530429466 371.00025060399486
    vertex 486.11129340895764 923.1698530428897 371.00022276759984
  endloop
endfacet
facet normal -1.2177732835851585e-06 9.434206337582439e-08 -0.999999999999254
  outer loop
    vertex 521.1363443129117 905.1203039373912 371.00016733518953
    vertex 486.11129340895764 923.1698530428897 371.00022276759984
    vertex 516.2275681957867 911.1267961573684 371.00024477474267
  endloop
endfacet
facet normal -1.2177732835851585e-06 9.434206337582439e-08 -0.999999999999254
  outer loop
    vertex 516.2275681957867 911.1267961573684 371.00024477474267
    vertex 486.11129340895764 923.1698530428897 371.00022276759984
    vertex 506.3853067857985 923.169889908047 371.0002225758803
  endloop
endfacet
facet normal 1.4215350696493359e-05 -0.9999999998987112 -7.081994731638029e-07
  outer loop
    vertex 500.9746894434185 917.1700280354997 376.99943205786684
    vertex 486.11136617337786 917.1698036499021 395.49568247691747
    vertex 486.11130432282675 917.1698597236383 377.00022944833063
  endloop
endfacet
facet normal 1.4215350696493359e-05 -0.9999999998987112 -7.081994731638029e-07
  outer loop
    vertex 486.11136617337786 917.1698036499021 395.49568247691747
    vertex 500.9746894434185 917.1700280354997 376.99943205786684
    vertex 500.9746558020352 917.1700579151183 395.49408639581276
  endloop
endfacet
facet normal 1.2829774188705863e-06 -1.0654131857860036e-05 0.9999999999424217
  outer loop
    vertex 506.1110077216697 918.6702021984655 377.00016681778567
    vertex 486.1112961374255 921.6698597236281 377.00022443777937
    vertex 486.11130159435976 918.6698597236349 377.0002277781469
  endloop
endfacet
facet normal 1.2829774188705863e-06 -1.0654131857860036e-05 0.9999999999424217
  outer loop
    vertex 486.1112961374255 921.6698597236281 377.00022443777937
    vertex 506.1110077216697 918.6702021984655 377.00016681778567
    vertex 506.11129340891114 921.6698943392878 377.000234082928
  endloop
endfacet
facet normal 1.0827318032520206e-06 -0.9999999999294885 -1.1825856011918207e-05
  outer loop
    vertex 512.6317286328059 898.1699012701014 371.00018903009993
    vertex 486.1113388834092 898.1698547131302 372.50025060399395
    vertex 486.1113388834087 898.1698530429466 371.00025060399486
  endloop
endfacet
facet normal 1.0827318032520206e-06 -0.9999999999294885 -1.1825856011918207e-05
  outer loop
    vertex 486.1113388834092 898.1698547131302 372.50025060399395
    vertex 512.6317286328059 898.1699012701014 371.00018903009993
    vertex 512.6317385110624 898.1698616321971 372.5001353441988
  endloop
endfacet
facet normal -1.2469430662641953e-06 0.9999999999990521 -5.841668715056224e-07
  outer loop
    vertex 486.111293408963 923.1698803225568 395.50022276758443
    vertex 506.3853067857985 923.169889908047 371.0002225758803
    vertex 486.11129340895764 923.1698530428897 371.00022276759984
  endloop
endfacet
facet normal -1.2469430662641953e-06 0.9999999999990521 -5.841668715056224e-07
  outer loop
    vertex 506.3853067857985 923.169889908047 371.0002225758803
    vertex 486.111293408963 923.1698803225568 395.50022276758443
    vertex 506.1113642927946 923.1698955796508 395.5002206008547
  endloop
endfacet
facet normal -1.2469430662641953e-06 0.9999999999990521 -5.841668715056224e-07
  outer loop
    vertex 506.3853067857985 923.169889908047 371.0002225758803
    vertex 506.1113642927946 923.1698955796508 395.5002206008547
    vertex 506.3853572351005 923.1698958412895 395.5000776137504
  endloop
endfacet
facet normal -0.9999999999983458 -1.8189780599966613e-06 2.245520182933515e-12
  outer loop
    vertex 486.1113634449108 918.6698036498987 395.49568080673373
    vertex 486.11130432282675 917.1698597236383 377.00022944833063
    vertex 486.11136617337786 917.1698036499021 395.49568247691747
  endloop
endfacet
facet normal -0.9999999999983458 -1.8189780599966613e-06 2.245520182933515e-12
  outer loop
    vertex 486.11130432282675 917.1698597236383 377.00022944833063
    vertex 486.1113634449108 918.6698036498987 395.49568080673373
    vertex 486.11130159435976 918.6698597236349 377.0002277781469
  endloop
endfacet
facet normal -0.9999999999983458 -1.8189780599966613e-06 2.245520182933515e-12
  outer loop
    vertex 486.111293408963 923.1698803225568 395.50022276758443
    vertex 486.1112961374255 921.6698597236281 377.00022443777937
    vertex 486.11129613742963 921.6698803225602 395.5002244377681
  endloop
endfacet
facet normal -0.9999999999983458 -1.8189780599966613e-06 2.245520182933515e-12
  outer loop
    vertex 486.1112961374255 921.6698597236281 377.00022443777937
    vertex 486.111293408963 923.1698803225568 395.50022276758443
    vertex 486.11129340895764 923.1698530428897 371.00022276759984
  endloop
endfacet
facet normal -0.9999999999983458 -1.8189780599966613e-06 2.245520182933515e-12
  outer loop
    vertex 486.1112961374255 921.6698597236281 377.00022443777937
    vertex 486.11129340895764 923.1698530428897 371.00022276759984
    vertex 486.1112961374255 921.6698580534443 375.5002244377803
  endloop
endfacet
facet normal -0.9999999999983458 -1.8189780599966613e-06 2.245520182933515e-12
  outer loop
    vertex 486.1112961374255 921.6698597236281 377.00022443777937
    vertex 486.1112961374255 921.6698580534443 375.5002244377803
    vertex 486.1113388834099 898.1698580534976 375.500250603992
  endloop
endfacet
facet normal -0.9999999999983458 -1.8189780599966613e-06 2.245520182933515e-12
  outer loop
    vertex 486.1112961374255 921.6698580534443 375.5002244377803
    vertex 486.11129340895764 923.1698530428897 371.00022276759984
    vertex 486.1112961374248 921.6698547130769 372.5002244377821
  endloop
endfacet
facet normal -0.9999999999983458 -1.8189780599966613e-06 2.245520182933515e-12
  outer loop
    vertex 486.1112961374248 921.6698547130769 372.5002244377821
    vertex 486.11129340895764 923.1698530428897 371.00022276759984
    vertex 486.1113388834087 898.1698530429466 371.00025060399486
  endloop
endfacet
facet normal -0.9999999999983458 -1.8189780599966613e-06 2.245520182933515e-12
  outer loop
    vertex 486.1113388834087 898.1698530429466 371.00025060399486
    vertex 486.1113388834092 898.1698547131302 372.50025060399395
    vertex 486.1112961374248 921.6698547130769 372.5002244377821
  endloop
endfacet
facet normal -0.9999999999983458 -1.8189780599966613e-06 2.245520182933515e-12
  outer loop
    vertex 486.11130432282675 917.1698597236383 377.00022944833063
    vertex 486.1113388834099 898.1698580534976 375.500250603992
    vertex 486.1113388834102 898.1698597236814 377.00025060399116
  endloop
endfacet
facet normal -0.9999999999983458 -1.8189780599966613e-06 2.245520182933515e-12
  outer loop
    vertex 486.1113388834099 898.1698580534976 375.500250603992
    vertex 486.11130432282675 917.1698597236383 377.00022944833063
    vertex 486.11130159435976 918.6698597236349 377.0002277781469
  endloop
endfacet
facet normal -0.9999999999983458 -1.8189780599966613e-06 2.245520182933515e-12
  outer loop
    vertex 486.1113388834099 898.1698580534976 375.500250603992
    vertex 486.11130159435976 918.6698597236349 377.0002277781469
    vertex 486.1112961374255 921.6698597236281 377.00022443777937
  endloop
endfacet
facet normal 0.0001556453471960825 -4.292992059438057e-05 0.999999986965774
  outer loop
    vertex 514.9672771397304 900.0872478631163 376.9946818820315
    vertex 486.1113388834102 898.1698597236814 377.00025060399116
    vertex 512.5762220618177 898.1358746559666 376.99760916479823
  endloop
endfacet
facet normal 0.0001556453471960825 -4.292992059438057e-05 0.999999986965774
  outer loop
    vertex 486.1113388834102 898.1698597236814 377.00025060399116
    vertex 514.9672771397304 900.0872478631163 376.9946818820315
    vertex 486.11130432282675 917.1698597236383 377.00022944833063
  endloop
endfacet
facet normal 0.0001556453471960825 -4.292992059438057e-05 0.999999986965774
  outer loop
    vertex 486.11130432282675 917.1698597236383 377.00022944833063
    vertex 514.9672771397304 900.0872478631163 376.9946818820315
    vertex 500.9746894434185 917.1700280354997 376.99943205786684
  endloop
endfacet
facet normal -0.00013391066774733743 -0.000277618047653043 0.9999999524980754
  outer loop
    vertex 516.459636374481 901.3025147121269 395.4937517305519
    vertex 500.9746558020352 917.1700579151183 395.49408639581276
    vertex 514.9695890071562 900.0852363767411 395.49518805169345
  endloop
endfacet
facet normal -0.00013391066774733743 -0.000277618047653043 0.9999999524980754
  outer loop
    vertex 500.9746558020352 917.1700579151183 395.49408639581276
    vertex 516.459636374481 901.3025147121269 395.4937517305519
    vertex 503.7927192500692 916.7672556591739 395.49384792440014
  endloop
endfacet
facet normal -0.00013391066774733743 -0.000277618047653043 0.9999999524980754
  outer loop
    vertex 500.9746558020352 917.1700579151183 395.49408639581276
    vertex 503.7927192500692 916.7672556591739 395.49384792440014
    vertex 506.1284864348654 918.6838958591677 395.502311197613
  endloop
endfacet
facet normal -0.00013391066774733743 -0.000277618047653043 0.9999999524980754
  outer loop
    vertex 500.9746558020352 917.1700579151183 395.49408639581276
    vertex 506.1284864348654 918.6838958591677 395.502311197613
    vertex 486.1113634449108 918.6698036498987 395.49568080673373
  endloop
endfacet
facet normal -0.00013391066774733743 -0.000277618047653043 0.9999999524980754
  outer loop
    vertex 486.1113634449108 918.6698036498987 395.49568080673373
    vertex 486.11136617337786 917.1698036499021 395.49568247691747
    vertex 500.9746558020352 917.1700579151183 395.49408639581276
  endloop
endfacet
facet normal 2.30048173864257e-06 -1.3960242651492418e-06 0.9999999999963796
  outer loop
    vertex 520.2369960340332 904.3853205302014 372.5001630588939
    vertex 486.1113388834092 898.1698547131302 372.50025060399395
    vertex 512.6317385110624 898.1698616321971 372.5001353441988
  endloop
endfacet
facet normal 2.30048173864257e-06 -1.3960242651492418e-06 0.9999999999963796
  outer loop
    vertex 486.1113388834092 898.1698547131302 372.50025060399395
    vertex 520.2369960340332 904.3853205302014 372.5001630588939
    vertex 486.1112961374248 921.6698547130769 372.5002244377821
  endloop
endfacet
facet normal 2.30048173864257e-06 -1.3960242651492418e-06 0.9999999999963796
  outer loop
    vertex 486.1112961374248 921.6698547130769 372.5002244377821
    vertex 520.2369960340332 904.3853205302014 372.5001630588939
    vertex 506.1112961477296 921.6698910799965 372.5002217953031
  endloop
endfacet
facet normal 0.7736152377956942 0.6336556345555412 -2.5422947518026887e-05
  outer loop
    vertex 516.459636374481 901.3025147121269 395.4937517305519
    vertex 503.79040891389633 916.7692739487168 375.50016775475456
    vertex 503.7927192500692 916.7672556591739 395.49384792440014
  endloop
endfacet
facet normal 0.7736152377956942 0.6336556345555412 -2.5422947518026887e-05
  outer loop
    vertex 503.79040891389633 916.7692739487168 375.50016775475456
    vertex 516.459636374481 901.3025147121269 395.4937517305519
    vertex 516.4569709959487 901.3050272779832 376.99800111168804
  endloop
endfacet
facet normal 0.7736152377956942 0.6336556345555412 -2.5422947518026887e-05
  outer loop
    vertex 503.79040891389633 916.7692739487168 375.50016775475456
    vertex 516.4569709959487 901.3050272779832 376.99800111168804
    vertex 516.4573260383081 901.30453300167 375.50007156090624
  endloop
endfacet
facet normal -3.0806383312864797e-06 2.8547634226296405e-06 -0.99999999999118
  outer loop
    vertex 486.1113388834099 898.1698580534976 375.500250603992
    vertex 516.4573260383081 901.30453300167 375.50007156090624
    vertex 512.5761975883337 898.1358261903966 375.5000030125557
  endloop
endfacet
facet normal -3.0806383312864797e-06 2.8547634226296405e-06 -0.99999999999118
  outer loop
    vertex 516.4573260383081 901.30453300167 375.50007156090624
    vertex 486.1113388834099 898.1698580534976 375.500250603992
    vertex 486.1112961374255 921.6698580534443 375.5002244377803
  endloop
endfacet
facet normal -3.0806383312864797e-06 2.8547634226296405e-06 -0.99999999999118
  outer loop
    vertex 516.4573260383081 901.30453300167 375.50007156090624
    vertex 486.1112961374255 921.6698580534443 375.5002244377803
    vertex 503.79040891389633 916.7692739487168 375.50016775475456
  endloop
endfacet
facet normal -3.0806383312864797e-06 2.8547634226296405e-06 -0.99999999999118
  outer loop
    vertex 503.79040891389633 916.7692739487168 375.50016775475456
    vertex 486.1112961374255 921.6698580534443 375.5002244377803
    vertex 506.11102004577316 918.6702120575753 375.500193231984
  endloop
endfacet
facet normal -3.0806383312864797e-06 2.8547634226296405e-06 -0.99999999999118
  outer loop
    vertex 506.11102004577316 918.6702120575753 375.500193231984
    vertex 486.1112961374255 921.6698580534443 375.5002244377803
    vertex 506.11129613739223 921.6698944330054 375.5002244377355
  endloop
endfacet
facet normal -3.0806383312864797e-06 2.8547634226296405e-06 -0.99999999999118
  outer loop
    vertex 506.11102004577316 918.6702120575753 375.500193231984
    vertex 520.2369853881453 904.3853161021289 375.5001630588705
    vertex 518.7844641214677 903.197805924666 375.50015824972877
  endloop
endfacet
facet normal -3.0806383312864797e-06 2.8547634226296405e-06 -0.99999999999118
  outer loop
    vertex 520.2369853881453 904.3853161021289 375.5001630588705
    vertex 506.11102004577316 918.6702120575753 375.500193231984
    vertex 506.11129613739223 921.6698944330054 375.5002244377355
  endloop
endfacet
facet normal 1.8186620982354004e-06 -0.999999999997724 1.1155622143419543e-06
  outer loop
    vertex 506.1112961477296 921.6698910799965 372.5002217953031
    vertex 486.1112961374255 921.6698580534443 375.5002244377803
    vertex 486.1112961374248 921.6698547130769 372.5002244377821
  endloop
endfacet
facet normal 1.8186620982354004e-06 -0.999999999997724 1.1155622143419543e-06
  outer loop
    vertex 486.1112961374255 921.6698580534443 375.5002244377803
    vertex 506.1112961477296 921.6698910799965 372.5002217953031
    vertex 506.11129613739223 921.6698944330054 375.5002244377355
  endloop
endfacet
facet normal 1.7748803718366473e-06 -0.9999999999977508 1.1611289719838448e-06
  outer loop
    vertex 506.11129340891114 921.6698943392878 377.000234082928
    vertex 486.11129613742963 921.6698803225602 395.5002244377681
    vertex 486.1112961374255 921.6698597236281 377.00022443777937
  endloop
endfacet
facet normal 1.7748803718366473e-06 -0.9999999999977508 1.1611289719838448e-06
  outer loop
    vertex 486.11129613742963 921.6698803225602 395.5002244377681
    vertex 506.11129340891114 921.6698943392878 377.000234082928
    vertex 506.11129613739666 921.6699167021216 395.5002244377232
  endloop
endfacet
facet normal -0.7743134878464467 -0.6328021985878912 -1.1841248790965325e-06
  outer loop
    vertex 506.1112961477296 921.6698910799965 372.5002217953031
    vertex 520.2369853881453 904.3853161021289 375.5001630588705
    vertex 506.11129613739223 921.6698944330054 375.5002244377355
  endloop
endfacet
facet normal -0.7743134878464467 -0.6328021985878912 -1.1841248790965325e-06
  outer loop
    vertex 520.2369853881453 904.3853161021289 375.5001630588705
    vertex 506.1112961477296 921.6698910799965 372.5002217953031
    vertex 520.2369960340332 904.3853205302014 372.5001630588939
  endloop
endfacet
facet normal 0.6339776292448215 -0.7733513813070525 -8.153275308184461e-05
  outer loop
    vertex 506.11102004577316 918.6702120575753 375.500193231984
    vertex 503.7927192500692 916.7672556591739 395.49384792440014
    vertex 503.79040891389633 916.7692739487168 375.50016775475456
  endloop
endfacet
facet normal 0.6339776292448215 -0.7733513813070525 -8.153275308184461e-05
  outer loop
    vertex 503.7927192500692 916.7672556591739 395.49384792440014
    vertex 506.11102004577316 918.6702120575753 375.500193231984
    vertex 506.1110077216697 918.6702021984655 377.00016681778567
  endloop
endfacet
facet normal 0.6339776292448215 -0.7733513813070525 -8.153275308184461e-05
  outer loop
    vertex 506.1284864348654 918.6838958591677 395.502311197613
    vertex 503.7927192500692 916.7672556591739 395.49384792440014
    vertex 506.1110077216697 918.6702021984655 377.00016681778567
  endloop
endfacet
facet normal 0.6327843861772244 -0.7743280236929722 -0.00017981671085890322
  outer loop
    vertex 516.4569709959487 901.3050272779832 376.99800111168804
    vertex 514.9695890071562 900.0852363767411 395.49518805169345
    vertex 514.9672771397304 900.0872478631163 376.9946818820315
  endloop
endfacet
facet normal 0.6327843861772244 -0.7743280236929722 -0.00017981671085890322
  outer loop
    vertex 514.9695890071562 900.0852363767411 395.49518805169345
    vertex 516.4569709959487 901.3050272779832 376.99800111168804
    vertex 516.459636374481 901.3025147121269 395.4937517305519
  endloop
endfacet
facet normal 0.6324632382317972 -0.7745903770716132 5.779736562071314e-06
  outer loop
    vertex 516.4573260383081 901.30453300167 375.50007156090624
    vertex 512.5762220618177 898.1358746559666 376.99760916479823
    vertex 512.5761975883337 898.1358261903966 375.5000030125557
  endloop
endfacet
facet normal 0.6324632382317972 -0.7745903770716132 5.779736562071314e-06
  outer loop
    vertex 512.5762220618177 898.1358746559666 376.99760916479823
    vertex 516.4573260383081 901.30453300167 375.50007156090624
    vertex 514.9672771397304 900.0872478631163 376.9946818820315
  endloop
endfacet
facet normal 0.6324632382317972 -0.7745903770716132 5.779736562071314e-06
  outer loop
    vertex 514.9672771397304 900.0872478631163 376.9946818820315
    vertex 516.4573260383081 901.30453300167 375.50007156090624
    vertex 516.4569709959487 901.3050272779832 376.99800111168804
  endloop
endfacet
facet normal 0.6328619684598626 -0.7742640154342241 0.0009814686849847314
  outer loop
    vertex 521.1363443129117 905.1203039373912 371.00016733518953
    vertex 512.6317385110624 898.1698616321971 372.5001353441988
    vertex 512.6317286328059 898.1699012701014 371.00018903009993
  endloop
endfacet
facet normal 0.6328619684598626 -0.7742640154342241 0.0009814686849847314
  outer loop
    vertex 512.6317385110624 898.1698616321971 372.5001353441988
    vertex 521.1363443129117 905.1203039373912 371.00016733518953
    vertex 520.2369960340332 904.3853205302014 372.5001630588939
  endloop
endfacet
facet normal 0.6328619684598626 -0.7742640154342241 0.0009814686849847314
  outer loop
    vertex 520.2369960340332 904.3853205302014 372.5001630588939
    vertex 521.1363443129117 905.1203039373912 371.00016733518953
    vertex 521.1292434333857 905.1289252661987 377.008416927438
  endloop
endfacet
facet normal 0.6328619684598626 -0.7742640154342241 0.0009814686849847314
  outer loop
    vertex 518.7844641214677 903.197805924666 375.50015824972877
    vertex 521.1292434333857 905.1289252661987 377.008416927438
    vertex 518.7813649103517 903.2015853423503 377.0031765730989
  endloop
endfacet
facet normal 0.6328619684598626 -0.7742640154342241 0.0009814686849847314
  outer loop
    vertex 521.1292434333857 905.1289252661987 377.008416927438
    vertex 518.7844641214677 903.197805924666 375.50015824972877
    vertex 520.2369853881453 904.3853161021289 375.5001630588705
  endloop
endfacet
facet normal 0.6328619684598626 -0.7742640154342241 0.0009814686849847314
  outer loop
    vertex 521.1292434333857 905.1289252661987 377.008416927438
    vertex 520.2369853881453 904.3853161021289 375.5001630588705
    vertex 520.2369960340332 904.3853205302014 372.5001630588939
  endloop
endfacet
facet normal 0.6324632382317971 -0.774590377071613 5.779736562057943e-06
  outer loop
    vertex 516.4573260383081 901.30453300167 375.50007156090624
    vertex 512.5762220618177 898.1358746559666 376.99760916479823
    vertex 512.5761975883337 898.1358261903966 375.5000030125557
  endloop
endfacet
facet normal 0.6324632382317971 -0.774590377071613 5.779736562057943e-06
  outer loop
    vertex 512.5762220618177 898.1358746559666 376.99760916479823
    vertex 516.4573260383081 901.30453300167 375.50007156090624
    vertex 514.9672771397304 900.0872478631163 376.9946818820315
  endloop
endfacet
facet normal 0.6324632382317971 -0.774590377071613 5.779736562057943e-06
  outer loop
    vertex 514.9672771397304 900.0872478631163 376.9946818820315
    vertex 516.4573260383081 901.30453300167 375.50007156090624
    vertex 516.4569709959487 901.3050272779832 376.99800111168804
  endloop
endfacet
facet normal 0.6327843861772244 -0.7743280236929722 -0.00017981671085890783
  outer loop
    vertex 516.4569709959487 901.3050272779832 376.99800111168804
    vertex 514.9695890071562 900.0852363767411 395.49518805169345
    vertex 514.9672771397304 900.0872478631163 376.9946818820315
  endloop
endfacet
facet normal 0.6327843861772244 -0.7743280236929722 -0.00017981671085890783
  outer loop
    vertex 514.9695890071562 900.0852363767411 395.49518805169345
    vertex 516.4569709959487 901.3050272779832 376.99800111168804
    vertex 516.459636374481 901.3025147121269 395.4937517305519
  endloop
endfacet
facet normal 0.7743113736787035 0.6328047855315717 -3.7541193960101767e-07
  outer loop
    vertex 521.1363443129117 905.1203039373912 371.00016733518953
    vertex 516.2275681957867 911.1267961573684 371.00024477474267
    vertex 521.1292434333857 905.1289252661987 377.008416927438
  endloop
endfacet
facet normal 0.7743113736787035 0.6328047855315717 -3.7541193960101767e-07
  outer loop
    vertex 521.1292434333857 905.1289252661987 377.008416927438
    vertex 506.3853572351005 923.1698958412895 395.5000776137504
    vertex 508.4767546901962 920.6107885506146 395.5075516491849
  endloop
endfacet
facet normal 0.7743113736787035 0.6328047855315717 -3.7541193960101767e-07
  outer loop
    vertex 506.3853572351005 923.1698958412895 395.5000776137504
    vertex 521.1292434333857 905.1289252661987 377.008416927438
    vertex 506.3853067857985 923.169889908047 371.0002225758803
  endloop
endfacet
facet normal 0.7743113736787035 0.6328047855315717 -3.7541193960101767e-07
  outer loop
    vertex 506.3853067857985 923.169889908047 371.0002225758803
    vertex 521.1292434333857 905.1289252661987 377.008416927438
    vertex 516.2275681957867 911.1267961573684 371.00024477474267
  endloop
endfacet
facet normal 0.42986516778835937 -0.5257604545602143 0.7340244423334433
  outer loop
    vertex 521.1292434333857 905.1289252661987 377.008416927438
    vertex 506.1284864348654 918.6838958591677 395.502311197613
    vertex 518.7813649103517 903.2015853423503 377.0031765730989
  endloop
endfacet
facet normal 0.42986516778835937 -0.5257604545602143 0.7340244423334433
  outer loop
    vertex 506.1284864348654 918.6838958591677 395.502311197613
    vertex 521.1292434333857 905.1289252661987 377.008416927438
    vertex 508.4767546901962 920.6107885506146 395.5075516491849
  endloop
endfacet
endsolid 3Dsprt box 24
