solid 3Dsprt box 24
facet normal -0.00036080422074906995 -0.9999998680797155 -0.00036559658917593014
  outer loop
    vertex 467.98803911861154 825.2659842868824 377.00000530437546
    vertex 487.9877452459216 825.2656418118745 376.999944344904
    vertex 467.9881009692604 825.2660941234715 395.4954583327212
  endloop
endfacet
facet normal -0.00036080422074906995 -0.9999998680797155 -0.00036559658917593014
  outer loop
    vertex 488.005223959215 825.2520019334758 395.50208876445805
    vertex 467.9881009692604 825.2660941234715 395.4954583327212
    vertex 487.9877452459216 825.2656418118745 376.999944344904
  endloop
endfacet
facet normal -0.999995919276407 0.002817307692937643 0.00047350596298838
  outer loop
    vertex 488.005223959215 825.2520019334758 395.50208876445805
    vertex 487.9877452459216 825.2656418118745 376.999944344904
    vertex 487.9880336617462 822.2659810844686 395.50001068437734
  endloop
endfacet
facet normal -0.999995919276407 0.002817307692937643 0.00047350596298838
  outer loop
    vertex 487.98803093316303 822.2659496712603 377.00002032959526
    vertex 487.9880336617462 822.2659810844686 395.50001068437734
    vertex 487.9877452459216 825.2656418118745 376.999944344904
  endloop
endfacet
facet normal -0.7736009127166924 0.6336731237607177 8.199694428716579e-06
  outer loop
    vertex 496.84632653150584 843.8506613951181 395.49491155563686
    vertex 496.84401466398214 843.8485961312015 376.9944053919001
    vertex 482.8513933263848 826.7658398536108 395.4938595622388
  endloop
endfacet
facet normal -0.7736009127166924 0.6336731237607177 8.199694428716579e-06
  outer loop
    vertex 482.8514269676703 826.7658159726981 376.9992052242842
    vertex 482.8513933263848 826.7658398536108 395.4938595622388
    vertex 496.84401466398214 843.8485961312015 376.9944053919001
  endloop
endfacet
facet normal -0.0012850398262148068 0.9999991742405345 1.381644365261976e-05
  outer loop
    vertex 467.98807640765375 845.7659815967774 375.4999685405228
    vertex 467.98807640766205 845.7659842868155 376.9999685405204
    vertex 494.4529351125775 845.8000134591584 375.4997208500222
  endloop
endfacet
facet normal -0.0012850398262148068 0.9999991742405345 1.381644365261976e-05
  outer loop
    vertex 494.4529595860695 845.7999693468518 376.9973270023993
    vertex 494.4529351125775 845.8000134591584 375.4997208500222
    vertex 467.98807640766205 845.7659842868155 376.9999685405204
  endloop
endfacet
facet normal 0.6323864455210668 0.7746530567860374 -0.00015853478914642762
  outer loop
    vertex 494.4529351125775 845.8000134591584 375.4997208500222
    vertex 494.4529595860695 845.7999693468518 376.9973270023993
    vertex 498.33406356255193 842.6313066480978 375.4997986091955
  endloop
endfacet
facet normal 0.6323864455210668 0.7746530567860374 -0.00015853478914642762
  outer loop
    vertex 496.84401466398214 843.8485961312015 376.9944053919001
    vertex 498.33406356255193 842.6313066480978 375.4997986091955
    vertex 494.4529595860695 845.7999693468518 376.9973270023993
  endloop
endfacet
facet normal 0.6323864455210668 0.7746530567860374 -0.00015853478914642762
  outer loop
    vertex 496.84632653150584 843.8506613951181 395.49491155563686
    vertex 498.33406356255193 842.6313066480978 375.4997986091955
    vertex 496.84401466398214 843.8485961312015 376.9944053919001
  endloop
endfacet
facet normal 0.6323864455210668 0.7746530567860374 -0.00015853478914642762
  outer loop
    vertex 498.33637389883046 842.6333830555623 395.49347877288983
    vertex 498.33406356255193 842.6313066480978 375.4997986091955
    vertex 496.84632653150584 843.8506613951181 395.49491155563686
  endloop
endfacet
facet normal -1.2177785710171424e-06 -3.001156664252396e-06 -0.9999999999947551
  outer loop
    vertex 494.5084661570259 845.7659252993291 370.99990696663514
    vertex 503.0130818371318 838.8155226320054 370.9999054752117
    vertex 467.9880764076288 845.7659735266627 370.99996854053006
  endloop
endfacet
facet normal -1.2177785710171424e-06 -3.001156664252396e-06 -0.9999999999947551
  outer loop
    vertex 467.98803093317764 820.7659735267442 371.0000133745001
    vertex 467.9880764076288 845.7659735266627 370.99996854053006
    vertex 503.0130818371318 838.8155226320054 370.9999054752117
  endloop
endfacet
facet normal -1.2177785710171424e-06 -3.001156664252396e-06 -0.9999999999947551
  outer loop
    vertex 498.10430572000683 832.8090304122786 371.00000037455004
    vertex 467.98803093317764 820.7659735267442 371.0000133745001
    vertex 503.0130818371318 838.8155226320054 370.9999054752117
  endloop
endfacet
facet normal -1.2177785710171424e-06 -3.001156664252396e-06 -0.9999999999947551
  outer loop
    vertex 488.26204431001855 820.7659366615865 371.00001318278044
    vertex 467.98803093317764 820.7659735267442 371.0000133745001
    vertex 498.10430572000683 832.8090304122786 371.00000037455004
  endloop
endfacet
facet normal 1.4215350696475403e-05 0.9999999998924277 -3.615014073820684e-06
  outer loop
    vertex 467.98804184707865 826.7659842868776 377.0000026143373
    vertex 467.98810369772747 826.7660941234666 395.49545564268305
    vertex 482.8514269676703 826.7658159726981 376.9992052242842
  endloop
endfacet
facet normal 1.4215350696475403e-05 0.9999999998924277 -3.615014073820684e-06
  outer loop
    vertex 482.8513933263848 826.7658398536108 395.4938595622388
    vertex 482.8514269676703 826.7658159726981 376.9992052242842
    vertex 467.98810369772747 826.7660941234666 395.49545564268305
  endloop
endfacet
facet normal 1.2829827063025697e-06 1.356094645852679e-05 0.9999999999072273
  outer loop
    vertex 467.98803911861154 825.2659842868824 377.00000530437546
    vertex 467.9880336616773 822.2659842868921 377.0000106844518
    vertex 487.9877452459216 825.2656418118745 376.999944344904
  endloop
endfacet
facet normal 1.2829827063025697e-06 1.356094645852679e-05 0.9999999999072273
  outer loop
    vertex 487.98803093316303 822.2659496712603 377.00002032959526
    vertex 487.9877452459216 825.2656418118745 376.999944344904
    vertex 467.9880336616773 822.2659842868921 377.0000106844518
  endloop
endfacet
facet normal 1.08273180317528e-06 0.9999999998908881 -1.4732670612548147e-05
  outer loop
    vertex 467.9880764076288 845.7659735266627 370.99996854053006
    vertex 467.98807640763727 845.7659762167009 372.4999685405277
    vertex 494.5084661570259 845.7659252993291 370.99990696663514
  endloop
endfacet
facet normal 1.08273180317528e-06 0.9999999998908881 -1.4732670612548147e-05
  outer loop
    vertex 494.5084760352904 845.7659692972991 372.49985328061234
    vertex 494.5084661570259 845.7659252993291 370.99990696663514
    vertex 467.98807640763727 845.7659762167009 372.4999685405277
  endloop
endfacet
facet normal -1.2469430662530719e-06 -0.9999999999965253 2.3226477293798217e-06
  outer loop
    vertex 467.98803093317764 820.7659735267442 371.0000133745001
    vertex 488.26204431001855 820.7659366615865 371.00001318278044
    vertex 467.98803093331264 820.7660174640349 395.5000133744604
  endloop
endfacet
facet normal -1.2469430662530719e-06 -0.9999999999965253 2.3226477293798217e-06
  outer loop
    vertex 487.9881018171442 820.7660022069347 395.50001120766933
    vertex 467.98803093331264 820.7660174640349 395.5000133744604
    vertex 488.26204431001855 820.7659366615865 371.00001318278044
  endloop
endfacet
facet normal -1.2469430662530719e-06 -0.9999999999965253 2.3226477293798217e-06
  outer loop
    vertex 488.26209475945006 820.7660019448803 395.49986822056434
    vertex 487.9881018171442 820.7660022069347 395.50001120766933
    vertex 488.26204431001855 820.7659366615865 371.00001318278044
  endloop
endfacet
facet normal -0.9999999999983458 1.8189780599966613e-06 2.245520184702543e-12
  outer loop
    vertex 467.98810369772747 826.7660941234666 395.49545564268305
    vertex 467.98804184707865 826.7659842868776 377.0000026143373
    vertex 467.9881009692604 825.2660941234715 395.4954583327212
  endloop
endfacet
facet normal -0.9999999999983458 1.8189780599966613e-06 2.245520184702543e-12
  outer loop
    vertex 467.98803911861154 825.2659842868824 377.00000530437546
    vertex 467.9881009692604 825.2660941234715 395.4954583327212
    vertex 467.98804184707865 826.7659842868776 377.0000026143373
  endloop
endfacet
facet normal -0.9999999999983458 1.8189780599966613e-06 2.245520184702543e-12
  outer loop
    vertex 467.98803366177924 822.2660174640299 395.5000106844222
    vertex 467.9880336616773 822.2659842868921 377.0000106844518
    vertex 467.98803093331264 820.7660174640349 395.5000133744604
  endloop
endfacet
facet normal -0.9999999999983458 1.8189780599966613e-06 2.245520184702543e-12
  outer loop
    vertex 467.98803093317764 820.7659735267442 371.0000133745001
    vertex 467.98803093331264 820.7660174640349 395.5000133744604
    vertex 467.9880336616773 822.2659842868921 377.0000106844518
  endloop
endfacet
facet normal -0.9999999999983458 1.8189780599966613e-06 2.245520184702543e-12
  outer loop
    vertex 467.9880336616694 822.265981596854 375.50001068445414
    vertex 467.98803093317764 820.7659735267442 371.0000133745001
    vertex 467.9880336616773 822.2659842868921 377.0000106844518
  endloop
endfacet
facet normal -0.9999999999983458 1.8189780599966613e-06 2.245520184702543e-12
  outer loop
    vertex 467.98807640765375 845.7659815967774 375.4999685405228
    vertex 467.9880336616694 822.265981596854 375.50001068445414
    vertex 467.9880336616773 822.2659842868921 377.0000106844518
  endloop
endfacet
facet normal -0.9999999999983458 1.8189780599966613e-06 2.245520184702543e-12
  outer loop
    vertex 467.9880336616529 822.2659762167775 372.50001068445897
    vertex 467.98803093317764 820.7659735267442 371.0000133745001
    vertex 467.9880336616694 822.265981596854 375.50001068445414
  endloop
endfacet
facet normal -0.9999999999983458 1.8189780599966613e-06 2.245520184702543e-12
  outer loop
    vertex 467.9880764076288 845.7659735266627 370.99996854053006
    vertex 467.98803093317764 820.7659735267442 371.0000133745001
    vertex 467.9880336616529 822.2659762167775 372.50001068445897
  endloop
endfacet
facet normal -0.9999999999983458 1.8189780599966613e-06 2.245520184702543e-12
  outer loop
    vertex 467.9880336616529 822.2659762167775 372.50001068445897
    vertex 467.98807640763727 845.7659762167009 372.4999685405277
    vertex 467.9880764076288 845.7659735266627 370.99996854053006
  endloop
endfacet
facet normal -0.9999999999983458 1.8189780599966613e-06 2.245520184702543e-12
  outer loop
    vertex 467.98807640766205 845.7659842868155 376.9999685405204
    vertex 467.98807640765375 845.7659815967774 375.4999685405228
    vertex 467.98804184707865 826.7659842868776 377.0000026143373
  endloop
endfacet
facet normal -0.9999999999983458 1.8189780599966613e-06 2.245520184702543e-12
  outer loop
    vertex 467.98803911861154 825.2659842868824 377.00000530437546
    vertex 467.98804184707865 826.7659842868776 377.0000026143373
    vertex 467.98807640765375 845.7659815967774 375.4999685405228
  endloop
endfacet
facet normal -0.9999999999983458 1.8189780599966613e-06 2.245520184702543e-12
  outer loop
    vertex 467.9880336616773 822.2659842868921 377.0000106844518
    vertex 467.98803911861154 825.2659842868824 377.00000530437546
    vertex 467.98807640765375 845.7659815967774 375.4999685405228
  endloop
endfacet
facet normal 0.00015564535248351435 4.5836735157190237e-05 0.9999999868367588
  outer loop
    vertex 494.4529595860695 845.7999693468518 376.9973270023993
    vertex 467.98807640766205 845.7659842868155 376.9999685405204
    vertex 496.84401466398214 843.8485961312015 376.9944053919001
  endloop
endfacet
facet normal 0.00015564535248351435 4.5836735157190237e-05 0.9999999868367588
  outer loop
    vertex 467.98804184707865 826.7659842868776 377.0000026143373
    vertex 496.84401466398214 843.8485961312015 376.9944053919001
    vertex 467.98807640766205 845.7659842868155 376.9999685405204
  endloop
endfacet
facet normal 0.00015564535248351435 4.5836735157190237e-05 0.9999999868367588
  outer loop
    vertex 482.8514269676703 826.7658159726981 376.9992052242842
    vertex 496.84401466398214 843.8485961312015 376.9944053919001
    vertex 467.98804184707865 826.7659842868776 377.0000026143373
  endloop
endfacet
facet normal -0.00013391066245990564 0.00028052486211466984 0.999999951686867
  outer loop
    vertex 496.84632653150584 843.8506613951181 395.49491155563686
    vertex 482.8513933263848 826.7658398536108 395.4938595622388
    vertex 498.33637389883046 842.6333830555623 395.49347877288983
  endloop
endfacet
facet normal -0.00013391066245990564 0.00028052486211466984 0.999999951686867
  outer loop
    vertex 485.6694567744187 827.1686421088604 395.4936199199399
    vertex 498.33637389883046 842.6333830555623 395.49347877288983
    vertex 482.8513933263848 826.7658398536108 395.4938595622388
  endloop
endfacet
facet normal -0.00013391066245990564 0.00028052486211466984 0.999999951686867
  outer loop
    vertex 488.005223959215 825.2520019334758 395.50208876445805
    vertex 485.6694567744187 827.1686421088604 395.4936199199399
    vertex 482.8513933263848 826.7658398536108 395.4938595622388
  endloop
endfacet
facet normal -0.00013391066245990564 0.00028052486211466984 0.999999951686867
  outer loop
    vertex 467.9881009692604 825.2660941234715 395.4954583327212
    vertex 488.005223959215 825.2520019334758 395.50208876445805
    vertex 482.8513933263848 826.7658398536108 395.4938595622388
  endloop
endfacet
facet normal -0.00013391066245990564 0.00028052486211466984 0.999999951686867
  outer loop
    vertex 482.8513933263848 826.7658398536108 395.4938595622388
    vertex 467.98810369772747 826.7660941234666 395.49545564268305
    vertex 467.9881009692604 825.2660941234715 395.4954583327212
  endloop
endfacet
facet normal 0.7743110182542032 -0.6328052204340034 1.2694155651892815e-06
  outer loop
    vertex 503.0131303727162 838.8156315127709 376.9944315576838
    vertex 498.10430572000683 832.8090304122786 371.00000037455004
    vertex 503.0130818371318 838.8155226320054 370.9999054752117
  endloop
endfacet
facet normal 0.7743110182542032 -0.6328052204340034 1.2694155651892815e-06
  outer loop
    vertex 490.3534922145458 823.32510925727 395.5073348171374
    vertex 488.26209475945006 820.7660019448803 395.49986822056434
    vertex 503.0131303727162 838.8156315127709 376.9944315576838
  endloop
endfacet
facet normal 0.7743110182542032 -0.6328052204340034 1.2694155651892815e-06
  outer loop
    vertex 488.26204431001855 820.7659366615865 371.00001318278044
    vertex 503.0131303727162 838.8156315127709 376.9944315576838
    vertex 488.26209475945006 820.7660019448803 395.49986822056434
  endloop
endfacet
facet normal 0.7743110182542032 -0.6328052204340034 1.2694155651892815e-06
  outer loop
    vertex 498.10430572000683 832.8090304122786 371.00000037455004
    vertex 503.0131303727162 838.8156315127709 376.9944315576838
    vertex 488.26204431001855 820.7659366615865 371.00001318278044
  endloop
endfacet
facet normal 2.300487026074554e-06 4.302838866011958e-06 0.9999999999880967
  outer loop
    vertex 494.5084760352904 845.7659692972991 372.49985328061234
    vertex 467.98807640763727 845.7659762167009 372.4999685405277
    vertex 502.1137335582611 839.5505103994014 372.499899062454
  endloop
endfacet
facet normal 2.300487026074554e-06 4.302838866011958e-06 0.9999999999880967
  outer loop
    vertex 467.9880336616529 822.2659762167775 372.50001068445897
    vertex 502.1137335582611 839.5505103994014 372.499899062454
    vertex 467.98807640763727 845.7659762167009 372.4999685405277
  endloop
endfacet
facet normal 2.300487026074554e-06 4.302838866011958e-06 0.9999999999880967
  outer loop
    vertex 487.98803367195757 822.2659398498502 372.5000080419799
    vertex 502.1137335582611 839.5505103994014 372.499899062454
    vertex 467.9880336616529 822.2659762167775 372.50001068445897
  endloop
endfacet
facet normal 0.7736152516930871 -0.6336556176590691 -2.3599683510906198e-05
  outer loop
    vertex 485.6694567744187 827.1686421088604 395.4936199199399
    vertex 485.66714643814015 827.1665657013959 375.4999397562455
    vertex 498.33637389883046 842.6333830555623 395.49347877288983
  endloop
endfacet
facet normal 0.7736152516930871 -0.6336556176590691 -2.3599683510906198e-05
  outer loop
    vertex 498.33406356255193 842.6313066480978 375.4997986091955
    vertex 498.33637389883046 842.6333830555623 395.49347877288983
    vertex 485.66714643814015 827.1665657013959 375.4999397562455
  endloop
endfacet
facet normal -3.0806436187184625e-06 -5.7615780234710795e-06 -0.999999999978657
  outer loop
    vertex 494.4529351125775 845.8000134591584 375.4997208500222
    vertex 498.33406356255193 842.6313066480978 375.4997986091955
    vertex 467.98807640765375 845.7659815967774 375.4999685405228
  endloop
endfacet
facet normal -3.0806436187184625e-06 -5.7615780234710795e-06 -0.999999999978657
  outer loop
    vertex 467.9880336616694 822.265981596854 375.50001068445414
    vertex 467.98807640765375 845.7659815967774 375.4999685405228
    vertex 498.33406356255193 842.6313066480978 375.4997986091955
  endloop
endfacet
facet normal -3.0806436187184625e-06 -5.7615780234710795e-06 -0.999999999978657
  outer loop
    vertex 485.66714643814015 827.1665657013959 375.4999397562455
    vertex 467.9880336616694 822.265981596854 375.50001068445414
    vertex 498.33406356255193 842.6313066480978 375.4997986091955
  endloop
endfacet
facet normal -3.0806436187184625e-06 -5.7615780234710795e-06 -0.999999999978657
  outer loop
    vertex 487.98775757001704 825.2656275926196 375.4999707591374
    vertex 467.9880336616694 822.265981596854 375.50001068445414
    vertex 485.66714643814015 827.1665657013959 375.4999397562455
  endloop
endfacet
facet normal -3.0806436187184625e-06 -5.7615780234710795e-06 -0.999999999978657
  outer loop
    vertex 487.98803366163617 822.2659452172928 375.50001068440935
    vertex 467.9880336616694 822.265981596854 375.50001068445414
    vertex 487.98775757001704 825.2656275926196 375.4999707591374
  endloop
endfacet
facet normal -3.0806436187184625e-06 -5.7615780234710795e-06 -0.999999999978657
  outer loop
    vertex 500.6612016457116 840.7380337253617 375.4998908013991
    vertex 502.11372291238916 839.5505235479179 375.499899062405
    vertex 487.98775757001704 825.2656275926196 375.4999707591374
  endloop
endfacet
facet normal -3.0806436187184625e-06 -5.7615780234710795e-06 -0.999999999978657
  outer loop
    vertex 487.98803366163617 822.2659452172928 375.50001068440935
    vertex 487.98775757001704 825.2656275926196 375.4999707591374
    vertex 502.11372291238916 839.5505235479179 375.499899062405
  endloop
endfacet
facet normal 1.8186620982270868e-06 0.9999999999967419 -1.791252386544897e-06
  outer loop
    vertex 467.9880336616529 822.2659762167775 372.50001068445897
    vertex 467.9880336616694 822.265981596854 375.50001068445414
    vertex 487.98803367195757 822.2659398498502 372.5000080419799
  endloop
endfacet
facet normal 1.8186620982270868e-06 0.9999999999967419 -1.791252386544897e-06
  outer loop
    vertex 487.98803366163617 822.2659452172928 375.50001068440935
    vertex 487.98803367195757 822.2659398498502 372.5000080419799
    vertex 467.9880336616694 822.265981596854 375.50001068445414
  endloop
endfacet
facet normal 1.774880371828575e-06 0.9999999999969014 -1.7456856289030458e-06
  outer loop
    vertex 467.9880336616773 822.2659842868921 377.0000106844518
    vertex 467.98803366177924 822.2660174640299 395.5000106844222
    vertex 487.98803093316303 822.2659496712603 377.00002032959526
  endloop
endfacet
facet normal 1.774880371828575e-06 0.9999999999969014 -1.7456856289030458e-06
  outer loop
    vertex 487.9880336617462 822.2659810844686 395.50001068437734
    vertex 487.98803093316303 822.2659496712603 377.00002032959526
    vertex 467.98803366177924 822.2660174640299 395.5000106844222
  endloop
endfacet
facet normal -0.7743134878464467 0.6328021985817757 -3.0235594552853304e-06
  outer loop
    vertex 487.98803366163617 822.2659452172928 375.50001068440935
    vertex 502.11372291238916 839.5505235479179 375.499899062405
    vertex 487.98803367195757 822.2659398498502 372.5000080419799
  endloop
endfacet
facet normal -0.7743134878464467 0.6328021985817757 -3.0235594552853304e-06
  outer loop
    vertex 502.1137335582611 839.5505103994014 372.499899062454
    vertex 487.98803367195757 822.2659398498502 372.5000080419799
    vertex 502.11372291238916 839.5505235479179 375.499899062405
  endloop
endfacet
facet normal 0.6339776292448209 0.7733513810667846 -8.378074552041018e-05
  outer loop
    vertex 485.66714643814015 827.1665657013959 375.4999397562455
    vertex 485.6694567744187 827.1686421088604 395.4936199199399
    vertex 487.98775757001704 825.2656275926196 375.4999707591374
  endloop
endfacet
facet normal 0.6339776292448209 0.7733513810667846 -8.378074552041018e-05
  outer loop
    vertex 487.9877452459216 825.2656418118745 376.999944344904
    vertex 487.98775757001704 825.2656275926196 375.4999707591374
    vertex 485.6694567744187 827.1686421088604 395.4936199199399
  endloop
endfacet
facet normal 0.6339776292448209 0.7733513810667846 -8.378074552041018e-05
  outer loop
    vertex 487.9877452459216 825.2656418118745 376.999944344904
    vertex 485.6694567744187 827.1686421088604 395.4936199199399
    vertex 488.005223959215 825.2520019334758 395.50208876445805
  endloop
endfacet
facet normal -7.311158947826465e-05 -0.0007518818418095007 0.9999997146641552
  outer loop
    vertex 488.005223959215 825.2520019334758 395.50208876445805
    vertex 487.9880336617462 822.2659810844686 395.50001068437734
    vertex 490.3534922145458 823.32510925727 395.5073348171374
  endloop
endfacet
facet normal -7.311158947826465e-05 -0.0007518818418095007 0.9999997146641552
  outer loop
    vertex 488.26209475945006 820.7660019448803 395.49986822056434
    vertex 490.3534922145458 823.32510925727 395.5073348171374
    vertex 487.9880336617462 822.2659810844686 395.50001068437734
  endloop
endfacet
facet normal -7.311158947826465e-05 -0.0007518818418095007 0.9999997146641552
  outer loop
    vertex 467.98803366177924 822.2660174640299 395.5000106844222
    vertex 488.26209475945006 820.7660019448803 395.49986822056434
    vertex 487.9880336617462 822.2659810844686 395.50001068437734
  endloop
endfacet
facet normal -7.311158947826465e-05 -0.0007518818418095007 0.9999997146641552
  outer loop
    vertex 487.9881018171442 820.7660022069347 395.50001120766933
    vertex 488.26209475945006 820.7660019448803 395.49986822056434
    vertex 467.98803366177924 822.2660174640299 395.5000106844222
  endloop
endfacet
facet normal -7.311158947826465e-05 -0.0007518818418095007 0.9999997146641552
  outer loop
    vertex 467.98803093331264 820.7660174640349 395.5000133744604
    vertex 487.9881018171442 820.7660022069347 395.50001120766933
    vertex 467.98803366177924 822.2660174640299 395.5000106844222
  endloop
endfacet
facet normal 0.6327961239757927 0.7743184496765576 6.302147174925567e-05
  outer loop
    vertex 494.5084661570259 845.7659252993291 370.99990696663514
    vertex 494.5084760352904 845.7659692972991 372.49985328061234
    vertex 503.0130818371318 838.8155226320054 370.9999054752117
  endloop
endfacet
facet normal 0.6327961239757927 0.7743184496765576 6.302147174925567e-05
  outer loop
    vertex 502.1137335582611 839.5505103994014 372.499899062454
    vertex 503.0130818371318 838.8155226320054 370.9999054752117
    vertex 494.5084760352904 845.7659692972991 372.49985328061234
  endloop
endfacet
facet normal 0.6327961239757927 0.7743184496765576 6.302147174925567e-05
  outer loop
    vertex 500.66031100632824 840.7369547856661 376.99442156630664
    vertex 503.0131303727162 838.8156315127709 376.9944315576838
    vertex 500.6612016457116 840.7380337253617 375.4998908013991
  endloop
endfacet
facet normal 0.6327961239757927 0.7743184496765576 6.302147174925567e-05
  outer loop
    vertex 502.11372291238916 839.5505235479179 375.499899062405
    vertex 500.6612016457116 840.7380337253617 375.4998908013991
    vertex 503.0131303727162 838.8156315127709 376.9944315576838
  endloop
endfacet
facet normal 0.6327961239757927 0.7743184496765576 6.302147174925567e-05
  outer loop
    vertex 502.1137335582611 839.5505103994014 372.499899062454
    vertex 502.11372291238916 839.5505235479179 375.499899062405
    vertex 503.0131303727162 838.8156315127709 376.9944315576838
  endloop
endfacet
facet normal 0.6327961239757927 0.7743184496765576 6.302147174925567e-05
  outer loop
    vertex 503.0130818371318 838.8155226320054 370.9999054752117
    vertex 502.1137335582611 839.5505103994014 372.499899062454
    vertex 503.0131303727162 838.8156315127709 376.9944315576838
  endloop
endfacet
facet normal 0.42973478050277736 0.5259784090352769 0.7339446380040859
  outer loop
    vertex 500.66031100632824 840.7369547856661 376.99442156630664
    vertex 488.005223959215 825.2520019334758 395.50208876445805
    vertex 503.0131303727162 838.8156315127709 376.9944315576838
  endloop
endfacet
facet normal 0.42973478050277736 0.5259784090352769 0.7339446380040859
  outer loop
    vertex 490.3534922145458 823.32510925727 395.5073348171374
    vertex 503.0131303727162 838.8156315127709 376.9944315576838
    vertex 488.005223959215 825.2520019334758 395.50208876445805
  endloop
endfacet
facet normal -0.773610457528275 0.6336604449700287 0.001140387337082085
  outer loop
    vertex 488.005223959215 825.2520019334758 395.50208876445805
    vertex 500.66031100632824 840.7369547856661 376.99442156630664
    vertex 487.9877452459216 825.2656418118745 376.999944344904
  endloop
endfacet
facet normal -0.773610457528275 0.6336604449700287 0.001140387337082085
  outer loop
    vertex 487.98775757001704 825.2656275926196 375.4999707591374
    vertex 487.9877452459216 825.2656418118745 376.999944344904
    vertex 500.66031100632824 840.7369547856661 376.99442156630664
  endloop
endfacet
facet normal -0.773610457528275 0.6336604449700287 0.001140387337082085
  outer loop
    vertex 500.6612016457116 840.7380337253617 375.4998908013991
    vertex 487.98775757001704 825.2656275926196 375.4999707591374
    vertex 500.66031100632824 840.7369547856661 376.99442156630664
  endloop
endfacet
endsolid 3Dsprt box 24
