solid 3Dsprt-box
facet normal 1.0 1.4588626603047432e-14 -1.3477314502503273e-15
  outer loop
    vertex -751.3953177128615 542.255641508118 352.00000000000006
    vertex -751.3953177128614 539.255641508118 380.0000000000001
    vertex -751.3953177128612 539.255641508118 352.0000000000002
  endloop
endfacet
facet normal 1.0 1.4588626603047432e-14 -1.3477314502503273e-15
  outer loop
    vertex -751.3953177128614 539.255641508118 380.0000000000001
    vertex -751.3953177128615 542.255641508118 352.00000000000006
    vertex -751.3953177128612 542.255641508118 380.00000000000006
  endloop
endfacet
facet normal 1.6008490829240988e-14 -8.194505635058022e-16 -1.0
  outer loop
    vertex -751.3953177128614 518.755641508118 380.00000000000006
    vertex -748.3953177128612 537.7556415081181 380.0000000000001
    vertex -748.3953177128612 518.7556415081181 380.0000000000001
  endloop
endfacet
facet normal 1.6008490829240988e-14 -8.194505635058022e-16 -1.0
  outer loop
    vertex -748.3953177128612 537.7556415081181 380.0000000000001
    vertex -751.3953177128614 518.755641508118 380.00000000000006
    vertex -751.3953177128612 537.7556415081181 380.0
  endloop
endfacet
facet normal 3.5289023165618308e-15 1.147105009849991e-15 -1.0
  outer loop
    vertex -746.8953177128612 518.7556415081181 375.5
    vertex -727.8953177128612 537.7556415081181 375.5000000000001
    vertex -727.8953177128612 518.7556415081181 375.5000000000001
  endloop
endfacet
facet normal 3.5289023165618308e-15 1.147105009849991e-15 -1.0
  outer loop
    vertex -727.8953177128612 537.7556415081181 375.5000000000001
    vertex -746.8953177128612 518.7556415081181 375.5
    vertex -746.8953177128612 537.755641508118 375.50000000000006
  endloop
endfacet
facet normal 3.458677788614735e-15 3.7032373401323814e-15 1.0
  outer loop
    vertex -752.8953177128614 543.755641508118 381.5000000000001
    vertex -727.8953177128612 518.755641508118 381.5000000000001
    vertex -727.8953177128612 543.7556415081181 381.50000000000006
  endloop
endfacet
facet normal 3.458677788614735e-15 3.7032373401323814e-15 1.0
  outer loop
    vertex -727.8953177128612 518.755641508118 381.5000000000001
    vertex -752.8953177128614 543.755641508118 381.5000000000001
    vertex -752.8953177128614 518.755641508118 381.5000000000002
  endloop
endfacet
facet normal -1.4431438500357744e-15 3.3079892279665713e-16 -1.0
  outer loop
    vertex -746.8953177128614 518.7556415081181 380.00000000000006
    vertex -727.8953177128612 537.7556415081181 380.00000000000006
    vertex -727.8953177128612 518.755641508118 380.00000000000006
  endloop
endfacet
facet normal -1.4431438500357744e-15 3.3079892279665713e-16 -1.0
  outer loop
    vertex -727.8953177128612 537.7556415081181 380.00000000000006
    vertex -746.8953177128614 518.7556415081181 380.00000000000006
    vertex -746.8953177128612 537.7556415081181 380.0000000000001
  endloop
endfacet
facet normal -4.511946372076791e-16 -1.0 4.643044087488124e-16
  outer loop
    vertex -751.3953177128612 537.7556415081181 380.0
    vertex -748.3953177128612 537.755641508118 352.00000000000017
    vertex -748.3953177128612 537.7556415081181 380.0000000000001
  endloop
endfacet
facet normal -4.511946372076791e-16 -1.0 4.643044087488124e-16
  outer loop
    vertex -748.3953177128612 537.755641508118 352.00000000000017
    vertex -751.3953177128612 537.7556415081181 380.0
    vertex -751.3953177128612 537.755641508118 352.0000000000002
  endloop
endfacet
facet normal 1.0 -1.638548945648867e-15 -3.733587513229046e-14
  outer loop
    vertex -746.8953177128615 537.7556415081181 377.0000000000001
    vertex -746.8953177128614 518.7556415081181 380.00000000000006
    vertex -746.8953177128615 518.7556415081181 377.0000000000001
  endloop
endfacet
facet normal 1.0 -1.638548945648867e-15 -3.733587513229046e-14
  outer loop
    vertex -746.8953177128614 518.7556415081181 380.00000000000006
    vertex -746.8953177128615 537.7556415081181 377.0000000000001
    vertex -746.8953177128612 537.7556415081181 380.0000000000001
  endloop
endfacet
facet normal -7.263102648864183e-16 -1.0837752540978516e-14 -1.0
  outer loop
    vertex -751.3953177128614 539.255641508118 380.0000000000001
    vertex -727.8953177128612 542.255641508118 380.0
    vertex -727.8953177128612 539.255641508118 380.00000000000006
  endloop
endfacet
facet normal -7.263102648864183e-16 -1.0837752540978516e-14 -1.0
  outer loop
    vertex -727.8953177128612 542.255641508118 380.0
    vertex -751.3953177128614 539.255641508118 380.0000000000001
    vertex -751.3953177128612 542.255641508118 380.00000000000006
  endloop
endfacet
facet normal 1.0 -2.825903254090106e-15 2.6367796834847345e-16
  outer loop
    vertex -751.3953177128612 537.755641508118 352.0000000000002
    vertex -751.3953177128614 518.755641508118 380.00000000000006
    vertex -751.3953177128614 518.755641508118 352.0000000000001
  endloop
endfacet
facet normal 1.0 -2.825903254090106e-15 2.6367796834847345e-16
  outer loop
    vertex -751.3953177128614 518.755641508118 380.00000000000006
    vertex -751.3953177128612 537.755641508118 352.0000000000002
    vertex -751.3953177128612 537.7556415081181 380.0
  endloop
endfacet
facet normal 1.0 -4.511946372076631e-16 -1.6562992112586168e-15
  outer loop
    vertex -746.8953177128612 537.755641508118 352.0000000000003
    vertex -746.8953177128612 518.7556415081181 375.5
    vertex -746.8953177128612 518.755641508118 352.0000000000001
  endloop
endfacet
facet normal 1.0 -4.511946372076631e-16 -1.6562992112586168e-15
  outer loop
    vertex -746.8953177128612 518.7556415081181 375.5
    vertex -746.8953177128612 537.755641508118 352.0000000000003
    vertex -746.8953177128612 537.755641508118 375.50000000000006
  endloop
endfacet
facet normal -3.960772723373598e-15 6.958972126867161e-16 -1.0
  outer loop
    vertex -748.3953177128612 518.755641508118 352.0000000000001
    vertex -746.8953177128612 537.755641508118 352.0000000000003
    vertex -746.8953177128612 518.755641508118 352.0000000000001
  endloop
endfacet
facet normal -3.960772723373598e-15 6.958972126867161e-16 -1.0
  outer loop
    vertex -746.8953177128612 537.755641508118 352.0000000000003
    vertex -748.3953177128612 518.755641508118 352.0000000000001
    vertex -748.3953177128612 537.755641508118 352.00000000000017
  endloop
endfacet
facet normal -3.960772723373598e-15 6.958972126867161e-16 -1.0
  outer loop
    vertex -746.8953177128612 537.755641508118 352.0000000000003
    vertex -727.8953177128614 539.255641508118 352.00000000000006
    vertex -727.8953177128614 537.755641508118 352.00000000000006
  endloop
endfacet
facet normal -3.960772723373598e-15 6.958972126867161e-16 -1.0
  outer loop
    vertex -727.8953177128614 539.255641508118 352.00000000000006
    vertex -746.8953177128612 537.755641508118 352.0000000000003
    vertex -751.3953177128612 539.255641508118 352.0000000000002
  endloop
endfacet
facet normal -3.960772723373598e-15 6.958972126867161e-16 -1.0
  outer loop
    vertex -751.3953177128612 539.255641508118 352.0000000000002
    vertex -746.8953177128612 537.755641508118 352.0000000000003
    vertex -748.3953177128612 537.755641508118 352.00000000000017
  endloop
endfacet
facet normal -3.960772723373598e-15 6.958972126867161e-16 -1.0
  outer loop
    vertex -751.3953177128612 539.255641508118 352.0000000000002
    vertex -748.3953177128612 537.755641508118 352.00000000000017
    vertex -751.3953177128612 537.755641508118 352.0000000000002
  endloop
endfacet
facet normal -3.960772723373598e-15 6.958972126867161e-16 -1.0
  outer loop
    vertex -751.3953177128612 539.255641508118 352.0000000000002
    vertex -751.3953177128612 537.755641508118 352.0000000000002
    vertex -751.3953177128614 518.755641508118 352.0000000000001
  endloop
endfacet
facet normal -3.960772723373598e-15 6.958972126867161e-16 -1.0
  outer loop
    vertex -751.3953177128612 539.255641508118 352.0000000000002
    vertex -751.3953177128614 518.755641508118 352.0000000000001
    vertex -751.3953177128615 542.255641508118 352.00000000000006
  endloop
endfacet
facet normal -3.960772723373598e-15 6.958972126867161e-16 -1.0
  outer loop
    vertex -751.3953177128615 542.255641508118 352.00000000000006
    vertex -751.3953177128614 518.755641508118 352.0000000000001
    vertex -752.8953177128611 518.7556415081181 352.0000000000001
  endloop
endfacet
facet normal -3.960772723373598e-15 6.958972126867161e-16 -1.0
  outer loop
    vertex -751.3953177128615 542.255641508118 352.00000000000006
    vertex -727.8953177128614 543.755641508118 352.0
    vertex -727.8953177128614 542.255641508118 352.00000000000006
  endloop
endfacet
facet normal -3.960772723373598e-15 6.958972126867161e-16 -1.0
  outer loop
    vertex -727.8953177128614 543.755641508118 352.0
    vertex -751.3953177128615 542.255641508118 352.00000000000006
    vertex -752.8953177128611 543.7556415081181 352.0000000000001
  endloop
endfacet
facet normal -3.960772723373598e-15 6.958972126867161e-16 -1.0
  outer loop
    vertex -752.8953177128611 543.7556415081181 352.0000000000001
    vertex -751.3953177128615 542.255641508118 352.00000000000006
    vertex -752.8953177128611 518.7556415081181 352.0000000000001
  endloop
endfacet
facet normal 7.36159671233556e-16 -1.0 -1.8711642004644815e-16
  outer loop
    vertex -746.8953177128612 537.755641508118 375.50000000000006
    vertex -727.8953177128614 537.755641508118 352.00000000000006
    vertex -727.8953177128612 537.7556415081181 375.5000000000001
  endloop
endfacet
facet normal 7.36159671233556e-16 -1.0 -1.8711642004644815e-16
  outer loop
    vertex -727.8953177128614 537.755641508118 352.00000000000006
    vertex -746.8953177128612 537.755641508118 375.50000000000006
    vertex -746.8953177128612 537.755641508118 352.0000000000003
  endloop
endfacet
facet normal -5.087939525958759e-16 1.0 3.414003005505912e-16
  outer loop
    vertex -727.8953177128612 539.255641508118 380.00000000000006
    vertex -751.3953177128612 539.255641508118 352.0000000000002
    vertex -751.3953177128614 539.255641508118 380.0000000000001
  endloop
endfacet
facet normal -5.087939525958759e-16 1.0 3.414003005505912e-16
  outer loop
    vertex -751.3953177128612 539.255641508118 352.0000000000002
    vertex -727.8953177128612 539.255641508118 380.00000000000006
    vertex -727.8953177128614 539.255641508118 352.00000000000006
  endloop
endfacet
facet normal -3.734736442766379e-16 -1.0 -3.527872722250501e-16
  outer loop
    vertex -752.8953177128614 518.755641508118 381.5000000000002
    vertex -751.3953177128614 518.755641508118 380.00000000000006
    vertex -727.8953177128612 518.755641508118 381.5000000000001
  endloop
endfacet
facet normal -3.734736442766379e-16 -1.0 -3.527872722250501e-16
  outer loop
    vertex -751.3953177128614 518.755641508118 380.00000000000006
    vertex -752.8953177128614 518.755641508118 381.5000000000002
    vertex -752.8953177128611 518.7556415081181 352.0000000000001
  endloop
endfacet
facet normal -3.734736442766379e-16 -1.0 -3.527872722250501e-16
  outer loop
    vertex -727.8953177128612 518.755641508118 381.5000000000001
    vertex -751.3953177128614 518.755641508118 380.00000000000006
    vertex -748.3953177128612 518.7556415081181 380.0000000000001
  endloop
endfacet
facet normal -3.734736442766379e-16 -1.0 -3.527872722250501e-16
  outer loop
    vertex -751.3953177128614 518.755641508118 380.00000000000006
    vertex -752.8953177128611 518.7556415081181 352.0000000000001
    vertex -751.3953177128614 518.755641508118 352.0000000000001
  endloop
endfacet
facet normal -3.734736442766379e-16 -1.0 -3.527872722250501e-16
  outer loop
    vertex -748.3953177128612 518.755641508118 352.0000000000001
    vertex -746.8953177128614 518.7556415081181 380.00000000000006
    vertex -748.3953177128612 518.7556415081181 380.0000000000001
  endloop
endfacet
facet normal -3.734736442766379e-16 -1.0 -3.527872722250501e-16
  outer loop
    vertex -746.8953177128614 518.7556415081181 380.00000000000006
    vertex -748.3953177128612 518.755641508118 352.0000000000001
    vertex -746.8953177128615 518.7556415081181 377.0000000000001
  endloop
endfacet
facet normal -3.734736442766379e-16 -1.0 -3.527872722250501e-16
  outer loop
    vertex -746.8953177128615 518.7556415081181 377.0000000000001
    vertex -748.3953177128612 518.755641508118 352.0000000000001
    vertex -746.8953177128612 518.7556415081181 375.5
  endloop
endfacet
facet normal -3.734736442766379e-16 -1.0 -3.527872722250501e-16
  outer loop
    vertex -746.8953177128615 518.7556415081181 377.0000000000001
    vertex -746.8953177128612 518.7556415081181 375.5
    vertex -727.8953177128614 518.7556415081181 377.0000000000001
  endloop
endfacet
facet normal -3.734736442766379e-16 -1.0 -3.527872722250501e-16
  outer loop
    vertex -727.8953177128614 518.7556415081181 377.0000000000001
    vertex -746.8953177128612 518.7556415081181 375.5
    vertex -727.8953177128612 518.7556415081181 375.5000000000001
  endloop
endfacet
facet normal -3.734736442766379e-16 -1.0 -3.527872722250501e-16
  outer loop
    vertex -746.8953177128612 518.7556415081181 375.5
    vertex -748.3953177128612 518.755641508118 352.0000000000001
    vertex -746.8953177128612 518.755641508118 352.0000000000001
  endloop
endfacet
facet normal -3.734736442766379e-16 -1.0 -3.527872722250501e-16
  outer loop
    vertex -748.3953177128612 518.7556415081181 380.0000000000001
    vertex -727.8953177128612 518.755641508118 380.00000000000006
    vertex -727.8953177128612 518.755641508118 381.5000000000001
  endloop
endfacet
facet normal -3.734736442766379e-16 -1.0 -3.527872722250501e-16
  outer loop
    vertex -727.8953177128612 518.755641508118 380.00000000000006
    vertex -748.3953177128612 518.7556415081181 380.0000000000001
    vertex -746.8953177128614 518.7556415081181 380.00000000000006
  endloop
endfacet
facet normal -1.0 2.8259032540901127e-15 -3.486496805546077e-15
  outer loop
    vertex -748.3953177128612 518.7556415081181 380.0000000000001
    vertex -748.3953177128612 537.755641508118 352.00000000000017
    vertex -748.3953177128612 518.755641508118 352.0000000000001
  endloop
endfacet
facet normal -1.0 2.8259032540901127e-15 -3.486496805546077e-15
  outer loop
    vertex -748.3953177128612 537.755641508118 352.00000000000017
    vertex -748.3953177128612 518.7556415081181 380.0000000000001
    vertex -748.3953177128612 537.7556415081181 380.0000000000001
  endloop
endfacet
facet normal -1.0 4.511946372076505e-16 -9.440518047148396e-15
  outer loop
    vertex -752.8953177128614 543.755641508118 381.5000000000001
    vertex -752.8953177128611 518.7556415081181 352.0000000000001
    vertex -752.8953177128614 518.755641508118 381.5000000000002
  endloop
endfacet
facet normal -1.0 4.511946372076505e-16 -9.440518047148396e-15
  outer loop
    vertex -752.8953177128611 518.7556415081181 352.0000000000001
    vertex -752.8953177128614 543.755641508118 381.5000000000001
    vertex -752.8953177128611 543.7556415081181 352.0000000000001
  endloop
endfacet
facet normal -4.511946372076692e-16 1.0 3.823683366166623e-16
  outer loop
    vertex -727.8953177128612 543.7556415081181 381.50000000000006
    vertex -752.8953177128611 543.7556415081181 352.0000000000001
    vertex -752.8953177128614 543.755641508118 381.5000000000001
  endloop
endfacet
facet normal -4.511946372076692e-16 1.0 3.823683366166623e-16
  outer loop
    vertex -752.8953177128611 543.7556415081181 352.0000000000001
    vertex -727.8953177128612 543.7556415081181 381.50000000000006
    vertex -727.8953177128614 543.755641508118 352.0
  endloop
endfacet
facet normal 1.0 -8.828521440013965e-16 -2.6607516952345372e-15
  outer loop
    vertex -727.8953177128614 539.255641508118 352.00000000000006
    vertex -727.8953177128612 537.7556415081181 375.5000000000001
    vertex -727.8953177128614 537.755641508118 352.00000000000006
  endloop
endfacet
facet normal 1.0 -8.828521440013965e-16 -2.6607516952345372e-15
  outer loop
    vertex -727.8953177128612 537.7556415081181 375.5000000000001
    vertex -727.8953177128614 539.255641508118 352.00000000000006
    vertex -727.8953177128614 537.7556415081181 377.0000000000001
  endloop
endfacet
facet normal 1.0 -8.828521440013965e-16 -2.6607516952345372e-15
  outer loop
    vertex -727.8953177128614 537.7556415081181 377.0000000000001
    vertex -727.8953177128614 539.255641508118 352.00000000000006
    vertex -727.8953177128612 537.7556415081181 380.00000000000006
  endloop
endfacet
facet normal 1.0 -8.828521440013965e-16 -2.6607516952345372e-15
  outer loop
    vertex -727.8953177128614 543.755641508118 352.0
    vertex -727.8953177128612 542.255641508118 380.0
    vertex -727.8953177128614 542.255641508118 352.00000000000006
  endloop
endfacet
facet normal 1.0 -8.828521440013965e-16 -2.6607516952345372e-15
  outer loop
    vertex -727.8953177128612 537.7556415081181 380.00000000000006
    vertex -727.8953177128612 518.755641508118 381.5000000000001
    vertex -727.8953177128612 518.755641508118 380.00000000000006
  endloop
endfacet
facet normal 1.0 -8.828521440013965e-16 -2.6607516952345372e-15
  outer loop
    vertex -727.8953177128612 518.755641508118 381.5000000000001
    vertex -727.8953177128612 537.7556415081181 380.00000000000006
    vertex -727.8953177128612 543.7556415081181 381.50000000000006
  endloop
endfacet
facet normal 1.0 -8.828521440013965e-16 -2.6607516952345372e-15
  outer loop
    vertex -727.8953177128612 543.7556415081181 381.50000000000006
    vertex -727.8953177128612 537.7556415081181 380.00000000000006
    vertex -727.8953177128612 539.255641508118 380.00000000000006
  endloop
endfacet
facet normal 1.0 -8.828521440013965e-16 -2.6607516952345372e-15
  outer loop
    vertex -727.8953177128612 539.255641508118 380.00000000000006
    vertex -727.8953177128612 537.7556415081181 380.00000000000006
    vertex -727.8953177128614 539.255641508118 352.00000000000006
  endloop
endfacet
facet normal 1.0 -8.828521440013965e-16 -2.6607516952345372e-15
  outer loop
    vertex -727.8953177128612 543.7556415081181 381.50000000000006
    vertex -727.8953177128612 539.255641508118 380.00000000000006
    vertex -727.8953177128612 542.255641508118 380.0
  endloop
endfacet
facet normal 1.0 -8.828521440013965e-16 -2.6607516952345372e-15
  outer loop
    vertex -727.8953177128612 543.7556415081181 381.50000000000006
    vertex -727.8953177128612 542.255641508118 380.0
    vertex -727.8953177128614 543.755641508118 352.0
  endloop
endfacet
facet normal 1.0 -8.828521440013965e-16 -2.6607516952345372e-15
  outer loop
    vertex -727.8953177128612 537.7556415081181 375.5000000000001
    vertex -727.8953177128614 518.7556415081181 377.0000000000001
    vertex -727.8953177128612 518.7556415081181 375.5000000000001
  endloop
endfacet
facet normal 1.0 -8.828521440013965e-16 -2.6607516952345372e-15
  outer loop
    vertex -727.8953177128614 518.7556415081181 377.0000000000001
    vertex -727.8953177128612 537.7556415081181 375.5000000000001
    vertex -727.8953177128614 537.7556415081181 377.0000000000001
  endloop
endfacet
facet normal 5.087939525958708e-16 -1.0 -3.4140030055059723e-16
  outer loop
    vertex -751.3953177128615 542.255641508118 352.00000000000006
    vertex -727.8953177128612 542.255641508118 380.0
    vertex -751.3953177128612 542.255641508118 380.00000000000006
  endloop
endfacet
facet normal 5.087939525958708e-16 -1.0 -3.4140030055059723e-16
  outer loop
    vertex -727.8953177128612 542.255641508118 380.0
    vertex -751.3953177128615 542.255641508118 352.00000000000006
    vertex -727.8953177128614 542.255641508118 352.00000000000006
  endloop
endfacet
facet normal -3.378876126260504e-16 -6.276374999069591e-16 1.0
  outer loop
    vertex -746.8953177128615 537.7556415081181 377.0000000000001
    vertex -727.8953177128614 518.7556415081181 377.0000000000001
    vertex -727.8953177128614 537.7556415081181 377.0000000000001
  endloop
endfacet
facet normal -3.378876126260504e-16 -6.276374999069591e-16 1.0
  outer loop
    vertex -727.8953177128614 518.7556415081181 377.0000000000001
    vertex -746.8953177128615 537.7556415081181 377.0000000000001
    vertex -746.8953177128615 518.7556415081181 377.0000000000001
  endloop
endfacet
facet normal -4.511946372076696e-16 -1.0 -1.1471050098499927e-15
  outer loop
    vertex -746.8953177128615 537.7556415081181 377.0000000000001
    vertex -727.8953177128612 537.7556415081181 380.00000000000006
    vertex -746.8953177128612 537.7556415081181 380.0000000000001
  endloop
endfacet
facet normal -4.511946372076696e-16 -1.0 -1.1471050098499927e-15
  outer loop
    vertex -727.8953177128612 537.7556415081181 380.00000000000006
    vertex -746.8953177128615 537.7556415081181 377.0000000000001
    vertex -727.8953177128614 537.7556415081181 377.0000000000001
  endloop
endfacet
endsolid 3Dsprt-box
