solid 3Dsprt-box
facet normal 1.0 7.361596712335548e-16 -2.1534361595497336e-15
  outer loop
    vertex -751.3953177128614 95.75564150811816 352.0000000000003
    vertex -751.3953177128612 76.75564150811812 380.0000000000001
    vertex -751.3953177128614 76.75564150811815 352.0000000000003
  endloop
endfacet
facet normal 1.0 7.361596712335548e-16 -2.1534361595497336e-15
  outer loop
    vertex -751.3953177128612 76.75564150811812 380.0000000000001
    vertex -751.3953177128614 95.75564150811816 352.0000000000003
    vertex -751.3953177128614 95.75564150811816 380.00000000000017
  endloop
endfacet
facet normal -1.428783017824267e-15 1.0 9.456788325251442e-16
  outer loop
    vertex -748.3953177128612 76.75564150811816 352.0000000000001
    vertex -751.3953177128612 76.75564150811812 380.0000000000001
    vertex -748.3953177128612 76.75564150811812 380.00000000000017
  endloop
endfacet
facet normal -1.428783017824267e-15 1.0 9.456788325251442e-16
  outer loop
    vertex -751.3953177128612 76.75564150811812 380.0000000000001
    vertex -748.3953177128612 76.75564150811816 352.0000000000001
    vertex -751.3953177128614 76.75564150811815 352.0000000000003
  endloop
endfacet
facet normal 1.1541936996793898e-15 8.502664327396871e-16 -1.0
  outer loop
    vertex -746.8953177128612 76.75564150811813 375.5000000000001
    vertex -727.8953177128612 95.7556415081181 375.50000000000017
    vertex -727.8953177128612 76.75564150811812 375.5000000000001
  endloop
endfacet
facet normal 1.1541936996793898e-15 8.502664327396871e-16 -1.0
  outer loop
    vertex -727.8953177128612 95.7556415081181 375.50000000000017
    vertex -746.8953177128612 76.75564150811813 375.5000000000001
    vertex -746.8953177128612 95.75564150811813 375.5000000000001
  endloop
endfacet
facet normal 1.0 1.9235139796747712e-15 -1.656299211258613e-15
  outer loop
    vertex -746.8953177128614 95.75564150811816 352.0000000000002
    vertex -746.8953177128612 76.75564150811813 375.5000000000001
    vertex -746.8953177128612 76.75564150811815 352.0000000000002
  endloop
endfacet
facet normal 1.0 1.9235139796747712e-15 -1.656299211258613e-15
  outer loop
    vertex -746.8953177128612 76.75564150811813 375.5000000000001
    vertex -746.8953177128614 95.75564150811816 352.0000000000002
    vertex -746.8953177128612 95.75564150811813 375.5000000000001
  endloop
endfacet
facet normal -2.5887759728751355e-15 1.8216666557124503e-15 -1.0
  outer loop
    vertex -752.8953177128611 70.75564150811817 352.00000000000017
    vertex -727.8953177128614 72.25564150811816 352.00000000000006
    vertex -727.8953177128614 70.75564150811816 352.00000000000006
  endloop
endfacet
facet normal -2.5887759728751355e-15 1.8216666557124503e-15 -1.0
  outer loop
    vertex -727.8953177128614 72.25564150811816 352.00000000000006
    vertex -752.8953177128611 70.75564150811817 352.00000000000017
    vertex -751.3953177128614 72.25564150811816 352.0000000000001
  endloop
endfacet
facet normal -2.5887759728751355e-15 1.8216666557124503e-15 -1.0
  outer loop
    vertex -751.3953177128614 72.25564150811816 352.0000000000001
    vertex -752.8953177128611 70.75564150811817 352.00000000000017
    vertex -751.3953177128614 75.25564150811819 352.0000000000003
  endloop
endfacet
facet normal -2.5887759728751355e-15 1.8216666557124503e-15 -1.0
  outer loop
    vertex -751.3953177128614 75.25564150811819 352.0000000000003
    vertex -752.8953177128611 70.75564150811817 352.00000000000017
    vertex -751.3953177128614 76.75564150811815 352.0000000000003
  endloop
endfacet
facet normal -2.5887759728751355e-15 1.8216666557124503e-15 -1.0
  outer loop
    vertex -751.3953177128614 76.75564150811815 352.0000000000003
    vertex -752.8953177128611 70.75564150811817 352.00000000000017
    vertex -751.3953177128614 95.75564150811816 352.0000000000003
  endloop
endfacet
facet normal -2.5887759728751355e-15 1.8216666557124503e-15 -1.0
  outer loop
    vertex -751.3953177128614 95.75564150811816 352.0000000000003
    vertex -752.8953177128611 70.75564150811817 352.00000000000017
    vertex -752.8953177128611 95.75564150811816 352.0000000000003
  endloop
endfacet
facet normal -2.5887759728751355e-15 1.8216666557124503e-15 -1.0
  outer loop
    vertex -751.3953177128614 75.25564150811819 352.0000000000003
    vertex -727.8953177128614 76.75564150811813 352.0000000000002
    vertex -727.8953177128612 75.25564150811819 352.00000000000017
  endloop
endfacet
facet normal -2.5887759728751355e-15 1.8216666557124503e-15 -1.0
  outer loop
    vertex -727.8953177128614 76.75564150811813 352.0000000000002
    vertex -751.3953177128614 75.25564150811819 352.0000000000003
    vertex -746.8953177128612 76.75564150811815 352.0000000000002
  endloop
endfacet
facet normal -2.5887759728751355e-15 1.8216666557124503e-15 -1.0
  outer loop
    vertex -746.8953177128612 76.75564150811815 352.0000000000002
    vertex -751.3953177128614 75.25564150811819 352.0000000000003
    vertex -748.3953177128612 76.75564150811816 352.0000000000001
  endloop
endfacet
facet normal -2.5887759728751355e-15 1.8216666557124503e-15 -1.0
  outer loop
    vertex -746.8953177128612 76.75564150811815 352.0000000000002
    vertex -748.3953177128612 76.75564150811816 352.0000000000001
    vertex -746.8953177128614 95.75564150811816 352.0000000000002
  endloop
endfacet
facet normal -2.5887759728751355e-15 1.8216666557124503e-15 -1.0
  outer loop
    vertex -748.3953177128612 76.75564150811816 352.0000000000001
    vertex -751.3953177128614 75.25564150811819 352.0000000000003
    vertex -751.3953177128614 76.75564150811815 352.0000000000003
  endloop
endfacet
facet normal -2.5887759728751355e-15 1.8216666557124503e-15 -1.0
  outer loop
    vertex -748.3953177128612 95.75564150811817 352.00000000000017
    vertex -746.8953177128614 95.75564150811816 352.0000000000002
    vertex -748.3953177128612 76.75564150811816 352.0000000000001
  endloop
endfacet
facet normal 1.044871791428283e-15 1.0 6.671107149482202e-16
  outer loop
    vertex -727.8953177128614 76.75564150811813 352.0000000000002
    vertex -746.8953177128612 76.75564150811813 375.5000000000001
    vertex -727.8953177128612 76.75564150811812 375.5000000000001
  endloop
endfacet
facet normal 1.044871791428283e-15 1.0 6.671107149482202e-16
  outer loop
    vertex -746.8953177128612 76.75564150811813 375.5000000000001
    vertex -727.8953177128614 76.75564150811813 352.0000000000002
    vertex -746.8953177128612 76.75564150811815 352.0000000000002
  endloop
endfacet
facet normal -4.511946372076696e-16 -1.0 -1.1471050098499927e-15
  outer loop
    vertex -751.3953177128614 75.25564150811819 352.0000000000003
    vertex -727.8953177128612 75.25564150811815 380.0000000000001
    vertex -751.3953177128612 75.25564150811816 380.0000000000001
  endloop
endfacet
facet normal -4.511946372076696e-16 -1.0 -1.1471050098499927e-15
  outer loop
    vertex -727.8953177128612 75.25564150811815 380.0000000000001
    vertex -751.3953177128614 75.25564150811819 352.0000000000003
    vertex -727.8953177128612 75.25564150811819 352.00000000000017
  endloop
endfacet
facet normal 7.867730543123621e-16 1.0 9.41703096028295e-16
  outer loop
    vertex -727.8953177128612 95.7556415081181 375.50000000000017
    vertex -746.8953177128614 95.75564150811812 377.0000000000001
    vertex -727.8953177128614 95.7556415081181 377.00000000000017
  endloop
endfacet
facet normal 7.867730543123621e-16 1.0 9.41703096028295e-16
  outer loop
    vertex -727.8953177128612 95.75564150811815 380.0000000000001
    vertex -748.3953177128612 95.75564150811812 380.0000000000002
    vertex -727.8953177128614 95.75564150811816 381.50000000000017
  endloop
endfacet
facet normal 7.867730543123621e-16 1.0 9.41703096028295e-16
  outer loop
    vertex -748.3953177128612 95.75564150811812 380.0000000000002
    vertex -727.8953177128612 95.75564150811815 380.0000000000001
    vertex -746.8953177128612 95.75564150811812 380.0000000000001
  endloop
endfacet
facet normal 7.867730543123621e-16 1.0 9.41703096028295e-16
  outer loop
    vertex -748.3953177128612 95.75564150811812 380.0000000000002
    vertex -746.8953177128612 95.75564150811812 380.0000000000001
    vertex -748.3953177128612 95.75564150811817 352.00000000000017
  endloop
endfacet
facet normal 7.867730543123621e-16 1.0 9.41703096028295e-16
  outer loop
    vertex -748.3953177128612 95.75564150811817 352.00000000000017
    vertex -746.8953177128612 95.75564150811812 380.0000000000001
    vertex -746.8953177128614 95.75564150811812 377.0000000000001
  endloop
endfacet
facet normal 7.867730543123621e-16 1.0 9.41703096028295e-16
  outer loop
    vertex -748.3953177128612 95.75564150811817 352.00000000000017
    vertex -746.8953177128614 95.75564150811812 377.0000000000001
    vertex -746.8953177128612 95.75564150811813 375.5000000000001
  endloop
endfacet
facet normal 7.867730543123621e-16 1.0 9.41703096028295e-16
  outer loop
    vertex -746.8953177128612 95.75564150811813 375.5000000000001
    vertex -746.8953177128614 95.75564150811812 377.0000000000001
    vertex -727.8953177128612 95.7556415081181 375.50000000000017
  endloop
endfacet
facet normal 7.867730543123621e-16 1.0 9.41703096028295e-16
  outer loop
    vertex -748.3953177128612 95.75564150811817 352.00000000000017
    vertex -746.8953177128612 95.75564150811813 375.5000000000001
    vertex -746.8953177128614 95.75564150811816 352.0000000000002
  endloop
endfacet
facet normal 7.867730543123621e-16 1.0 9.41703096028295e-16
  outer loop
    vertex -752.8953177128614 95.75564150811816 381.50000000000017
    vertex -751.3953177128614 95.75564150811816 380.00000000000017
    vertex -752.8953177128611 95.75564150811816 352.0000000000003
  endloop
endfacet
facet normal 7.867730543123621e-16 1.0 9.41703096028295e-16
  outer loop
    vertex -751.3953177128614 95.75564150811816 380.00000000000017
    vertex -752.8953177128614 95.75564150811816 381.50000000000017
    vertex -727.8953177128614 95.75564150811816 381.50000000000017
  endloop
endfacet
facet normal 7.867730543123621e-16 1.0 9.41703096028295e-16
  outer loop
    vertex -751.3953177128614 95.75564150811816 380.00000000000017
    vertex -727.8953177128614 95.75564150811816 381.50000000000017
    vertex -748.3953177128612 95.75564150811812 380.0000000000002
  endloop
endfacet
facet normal 7.867730543123621e-16 1.0 9.41703096028295e-16
  outer loop
    vertex -752.8953177128611 95.75564150811816 352.0000000000003
    vertex -751.3953177128614 95.75564150811816 380.00000000000017
    vertex -751.3953177128614 95.75564150811816 352.0000000000003
  endloop
endfacet
facet normal -1.0 -7.361596712335496e-16 -1.0693826776478739e-15
  outer loop
    vertex -748.3953177128612 95.75564150811812 380.0000000000002
    vertex -748.3953177128612 76.75564150811816 352.0000000000001
    vertex -748.3953177128612 76.75564150811812 380.00000000000017
  endloop
endfacet
facet normal -1.0 -7.361596712335496e-16 -1.0693826776478739e-15
  outer loop
    vertex -748.3953177128612 76.75564150811816 352.0000000000001
    vertex -748.3953177128612 95.75564150811812 380.0000000000002
    vertex -748.3953177128612 95.75564150811817 352.00000000000017
  endloop
endfacet
facet normal -1.0 4.511946372076866e-16 -7.91104470068176e-15
  outer loop
    vertex -752.8953177128614 70.75564150811815 381.50000000000017
    vertex -752.8953177128611 95.75564150811816 352.0000000000003
    vertex -752.8953177128611 70.75564150811817 352.00000000000017
  endloop
endfacet
facet normal -1.0 4.511946372076866e-16 -7.91104470068176e-15
  outer loop
    vertex -752.8953177128611 95.75564150811816 352.0000000000003
    vertex -752.8953177128614 70.75564150811815 381.50000000000017
    vertex -752.8953177128614 95.75564150811816 381.50000000000017
  endloop
endfacet
facet normal -2.255973186038347e-16 -1.0 -5.735525049249965e-16
  outer loop
    vertex -752.8953177128611 70.75564150811817 352.00000000000017
    vertex -727.8953177128614 70.75564150811815 381.50000000000017
    vertex -752.8953177128614 70.75564150811815 381.50000000000017
  endloop
endfacet
facet normal -2.255973186038347e-16 -1.0 -5.735525049249965e-16
  outer loop
    vertex -727.8953177128614 70.75564150811815 381.50000000000017
    vertex -752.8953177128611 70.75564150811817 352.00000000000017
    vertex -727.8953177128614 70.75564150811816 352.00000000000006
  endloop
endfacet
facet normal 4.511946372076693e-16 1.0 7.442526552002929e-16
  outer loop
    vertex -727.8953177128612 72.25564150811813 380.0000000000001
    vertex -751.3953177128614 72.25564150811816 352.0000000000001
    vertex -751.3953177128612 72.25564150811815 380.00000000000006
  endloop
endfacet
facet normal 4.511946372076693e-16 1.0 7.442526552002929e-16
  outer loop
    vertex -751.3953177128614 72.25564150811816 352.0000000000001
    vertex -727.8953177128612 72.25564150811813 380.0000000000001
    vertex -727.8953177128614 72.25564150811816 352.00000000000006
  endloop
endfacet
facet normal 2.1571633368466827e-16 -9.4970735607164e-16 1.0
  outer loop
    vertex -752.8953177128614 95.75564150811816 381.50000000000017
    vertex -727.8953177128614 70.75564150811815 381.50000000000017
    vertex -727.8953177128614 95.75564150811816 381.50000000000017
  endloop
endfacet
facet normal 2.1571633368466827e-16 -9.4970735607164e-16 1.0
  outer loop
    vertex -727.8953177128614 70.75564150811815 381.50000000000017
    vertex -752.8953177128614 95.75564150811816 381.50000000000017
    vertex -752.8953177128614 70.75564150811815 381.50000000000017
  endloop
endfacet
facet normal 1.0 -1.7575159808391327e-16 -8.985475489406565e-16
  outer loop
    vertex -727.8953177128614 76.75564150811813 352.0000000000002
    vertex -727.8953177128612 75.25564150811815 380.0000000000001
    vertex -727.8953177128612 75.25564150811819 352.00000000000017
  endloop
endfacet
facet normal 1.0 -1.7575159808391327e-16 -8.985475489406565e-16
  outer loop
    vertex -727.8953177128612 75.25564150811815 380.0000000000001
    vertex -727.8953177128614 76.75564150811813 352.0000000000002
    vertex -727.8953177128614 76.75564150811809 377.00000000000017
  endloop
endfacet
facet normal 1.0 -1.7575159808391327e-16 -8.985475489406565e-16
  outer loop
    vertex -727.8953177128614 76.75564150811809 377.00000000000017
    vertex -727.8953177128614 76.75564150811813 352.0000000000002
    vertex -727.8953177128612 76.75564150811812 375.5000000000001
  endloop
endfacet
facet normal 1.0 -1.7575159808391327e-16 -8.985475489406565e-16
  outer loop
    vertex -727.8953177128614 76.75564150811809 377.00000000000017
    vertex -727.8953177128612 76.75564150811812 375.5000000000001
    vertex -727.8953177128614 95.7556415081181 377.00000000000017
  endloop
endfacet
facet normal 1.0 -1.7575159808391327e-16 -8.985475489406565e-16
  outer loop
    vertex -727.8953177128614 95.7556415081181 377.00000000000017
    vertex -727.8953177128612 76.75564150811812 375.5000000000001
    vertex -727.8953177128612 95.7556415081181 375.50000000000017
  endloop
endfacet
facet normal 1.0 -1.7575159808391327e-16 -8.985475489406565e-16
  outer loop
    vertex -727.8953177128614 72.25564150811816 352.00000000000006
    vertex -727.8953177128614 70.75564150811815 381.50000000000017
    vertex -727.8953177128614 70.75564150811816 352.00000000000006
  endloop
endfacet
facet normal 1.0 -1.7575159808391327e-16 -8.985475489406565e-16
  outer loop
    vertex -727.8953177128614 70.75564150811815 381.50000000000017
    vertex -727.8953177128614 72.25564150811816 352.00000000000006
    vertex -727.8953177128612 72.25564150811813 380.0000000000001
  endloop
endfacet
facet normal 1.0 -1.7575159808391327e-16 -8.985475489406565e-16
  outer loop
    vertex -727.8953177128614 70.75564150811815 381.50000000000017
    vertex -727.8953177128612 72.25564150811813 380.0000000000001
    vertex -727.8953177128614 95.75564150811816 381.50000000000017
  endloop
endfacet
facet normal 1.0 -1.7575159808391327e-16 -8.985475489406565e-16
  outer loop
    vertex -727.8953177128614 95.75564150811816 381.50000000000017
    vertex -727.8953177128612 72.25564150811813 380.0000000000001
    vertex -727.8953177128612 75.25564150811815 380.0000000000001
  endloop
endfacet
facet normal 1.0 -1.7575159808391327e-16 -8.985475489406565e-16
  outer loop
    vertex -727.8953177128614 95.75564150811816 381.50000000000017
    vertex -727.8953177128612 75.25564150811815 380.0000000000001
    vertex -727.8953177128612 76.75564150811812 380.0000000000001
  endloop
endfacet
facet normal 1.0 -1.7575159808391327e-16 -8.985475489406565e-16
  outer loop
    vertex -727.8953177128612 76.75564150811812 380.0000000000001
    vertex -727.8953177128612 75.25564150811815 380.0000000000001
    vertex -727.8953177128614 76.75564150811809 377.00000000000017
  endloop
endfacet
facet normal 1.0 -1.7575159808391327e-16 -8.985475489406565e-16
  outer loop
    vertex -727.8953177128614 95.75564150811816 381.50000000000017
    vertex -727.8953177128612 76.75564150811812 380.0000000000001
    vertex -727.8953177128612 95.75564150811815 380.0000000000001
  endloop
endfacet
facet normal 1.0448717914282893e-15 1.0 -2.6128503002139432e-15
  outer loop
    vertex -727.8953177128614 76.75564150811809 377.00000000000017
    vertex -746.8953177128612 76.75564150811812 380.0
    vertex -727.8953177128612 76.75564150811812 380.0000000000001
  endloop
endfacet
facet normal 1.0448717914282893e-15 1.0 -2.6128503002139432e-15
  outer loop
    vertex -746.8953177128612 76.75564150811812 380.0
    vertex -727.8953177128614 76.75564150811809 377.00000000000017
    vertex -746.8953177128614 76.75564150811812 377.00000000000006
  endloop
endfacet
facet normal 1.0 7.068715982920079e-15 -2.1534361595497238e-15
  outer loop
    vertex -751.3953177128614 75.25564150811819 352.0000000000003
    vertex -751.3953177128612 72.25564150811815 380.00000000000006
    vertex -751.3953177128614 72.25564150811816 352.0000000000001
  endloop
endfacet
facet normal 1.0 7.068715982920079e-15 -2.1534361595497238e-15
  outer loop
    vertex -751.3953177128612 72.25564150811815 380.00000000000006
    vertex -751.3953177128614 75.25564150811819 352.0000000000003
    vertex -751.3953177128612 75.25564150811816 380.0000000000001
  endloop
endfacet
facet normal 1.822080498177573e-15 1.6665725197930243e-15 -1.0
  outer loop
    vertex -746.8953177128612 76.75564150811812 380.0
    vertex -727.8953177128612 95.75564150811815 380.0000000000001
    vertex -727.8953177128612 76.75564150811812 380.0000000000001
  endloop
endfacet
facet normal 1.822080498177573e-15 1.6665725197930243e-15 -1.0
  outer loop
    vertex -727.8953177128612 95.75564150811815 380.0000000000001
    vertex -746.8953177128612 76.75564150811812 380.0
    vertex -746.8953177128612 95.75564150811812 380.0000000000001
  endloop
endfacet
facet normal 1.4367939462303223e-16 1.1471050098499925e-15 -1.0
  outer loop
    vertex -751.3953177128612 72.25564150811815 380.00000000000006
    vertex -727.8953177128612 75.25564150811815 380.0000000000001
    vertex -727.8953177128612 72.25564150811813 380.0000000000001
  endloop
endfacet
facet normal 1.4367939462303223e-16 1.1471050098499925e-15 -1.0
  outer loop
    vertex -727.8953177128612 75.25564150811815 380.0000000000001
    vertex -751.3953177128612 72.25564150811815 380.00000000000006
    vertex -751.3953177128612 75.25564150811816 380.0000000000001
  endloop
endfacet
facet normal -2.5641769409533344e-15 -1.2213146541275678e-15 1.0
  outer loop
    vertex -746.8953177128614 95.75564150811812 377.0000000000001
    vertex -727.8953177128614 76.75564150811809 377.00000000000017
    vertex -727.8953177128614 95.7556415081181 377.00000000000017
  endloop
endfacet
facet normal -2.5641769409533344e-15 -1.2213146541275678e-15 1.0
  outer loop
    vertex -727.8953177128614 76.75564150811809 377.00000000000017
    vertex -746.8953177128614 95.75564150811812 377.0000000000001
    vertex -746.8953177128614 76.75564150811812 377.00000000000006
  endloop
endfacet
facet normal 1.0 -4.511946372076074e-16 -2.9815964512162774e-14
  outer loop
    vertex -746.8953177128614 95.75564150811812 377.0000000000001
    vertex -746.8953177128612 76.75564150811812 380.0
    vertex -746.8953177128614 76.75564150811812 377.00000000000006
  endloop
endfacet
facet normal 1.0 -4.511946372076074e-16 -2.9815964512162774e-14
  outer loop
    vertex -746.8953177128612 76.75564150811812 380.0
    vertex -746.8953177128614 95.75564150811812 377.0000000000001
    vertex -746.8953177128612 95.75564150811812 380.0000000000001
  endloop
endfacet
facet normal 1.7653471277393675e-14 2.4086689625688016e-15 -1.0
  outer loop
    vertex -751.3953177128612 76.75564150811812 380.0000000000001
    vertex -748.3953177128612 95.75564150811812 380.0000000000002
    vertex -748.3953177128612 76.75564150811812 380.00000000000017
  endloop
endfacet
facet normal 1.7653471277393675e-14 2.4086689625688016e-15 -1.0
  outer loop
    vertex -748.3953177128612 95.75564150811812 380.0000000000002
    vertex -751.3953177128612 76.75564150811812 380.0000000000001
    vertex -751.3953177128614 95.75564150811816 380.00000000000017
  endloop
endfacet
endsolid 3Dsprt-box
